<?xml version="1.0" encoding="UTF-8"?>
<svg xmlns="http://www.w3.org/2000/svg" xmlns:xlink="http://www.w3.org/1999/xlink" width="528" height="336" viewBox="0 0 528 336">
<defs>
<g>
<g id="glyph-0-0-57c87f88">
<path d="M 7.09375 -4.78125 C 7.09375 -1.515625 5.953125 0.203125 3.84375 0.203125 C 1.71875 0.203125 0.609375 -1.515625 0.609375 -4.859375 C 0.609375 -8.1875 1.703125 -9.921875 3.84375 -9.921875 C 6 -9.921875 7.09375 -8.21875 7.09375 -4.78125 Z M 5.84375 -4.890625 C 5.84375 -7.546875 5.1875 -8.828125 3.84375 -8.828125 C 2.515625 -8.828125 1.859375 -7.5625 1.859375 -4.84375 C 1.859375 -2.125 2.515625 -0.8125 3.828125 -0.8125 C 5.1875 -0.8125 5.84375 -2.078125 5.84375 -4.890625 Z M 5.84375 -4.890625 "/>
</g>
<g id="glyph-0-1-57c87f88">
<path d="M 7.1875 -3.296875 C 7.1875 -1.1875 5.78125 0.203125 3.78125 0.203125 C 2.015625 0.203125 0.890625 -0.578125 0.484375 -2.546875 C 0.484375 -2.546875 1.71875 -2.546875 1.71875 -2.546875 C 2.015625 -1.421875 2.671875 -0.875 3.75 -0.875 C 5.09375 -0.875 5.921875 -1.6875 5.921875 -3.125 C 5.921875 -4.59375 5.078125 -5.453125 3.75 -5.453125 C 2.984375 -5.453125 2.5 -5.203125 1.9375 -4.515625 C 1.9375 -4.515625 0.796875 -4.515625 0.796875 -4.515625 C 0.796875 -4.515625 1.546875 -9.71875 1.546875 -9.71875 C 1.546875 -9.71875 6.65625 -9.71875 6.65625 -9.71875 C 6.65625 -9.71875 6.65625 -8.5 6.65625 -8.5 C 6.65625 -8.5 2.53125 -8.5 2.53125 -8.5 C 2.53125 -8.5 2.140625 -5.9375 2.140625 -5.9375 C 2.71875 -6.359375 3.28125 -6.53125 3.96875 -6.53125 C 5.875 -6.53125 7.1875 -5.25 7.1875 -3.296875 Z M 7.1875 -3.296875 "/>
</g>
<g id="glyph-0-2-57c87f88">
<path d="M 4.859375 0 C 4.859375 0 3.625 0 3.625 0 C 3.625 0 3.625 -7.0625 3.625 -7.0625 C 3.625 -7.0625 1.421875 -7.0625 1.421875 -7.0625 C 1.421875 -7.0625 1.421875 -7.953125 1.421875 -7.953125 C 3.328125 -8.1875 3.609375 -8.40625 4.046875 -9.921875 C 4.046875 -9.921875 4.859375 -9.921875 4.859375 -9.921875 C 4.859375 -9.921875 4.859375 0 4.859375 0 Z M 4.859375 0 "/>
</g>
<g id="glyph-0-3-57c87f88">
<path d="M 7.078125 -2.890625 C 7.078125 -1.015625 5.765625 0.203125 3.71875 0.203125 C 1.6875 0.203125 0.609375 -0.78125 0.453125 -3 C 0.453125 -3 1.6875 -3 1.6875 -3 C 1.765625 -1.546875 2.421875 -0.875 3.765625 -0.875 C 5.046875 -0.875 5.828125 -1.625 5.828125 -2.875 C 5.828125 -3.96875 5.125 -4.625 3.765625 -4.625 C 3.765625 -4.625 3.09375 -4.625 3.09375 -4.625 C 3.09375 -4.625 3.09375 -5.65625 3.09375 -5.65625 C 5.0625 -5.65625 5.53125 -6.09375 5.53125 -7.15625 C 5.53125 -8.203125 4.875 -8.84375 3.78125 -8.84375 C 2.515625 -8.84375 1.921875 -8.1875 1.890625 -6.71875 C 1.890625 -6.71875 0.65625 -6.71875 0.65625 -6.71875 C 0.703125 -8.828125 1.765625 -9.921875 3.765625 -9.921875 C 5.65625 -9.921875 6.796875 -8.90625 6.796875 -7.203125 C 6.796875 -6.203125 6.328125 -5.5625 5.40625 -5.1875 C 6.59375 -4.78125 7.078125 -4.09375 7.078125 -2.890625 Z M 7.078125 -2.890625 "/>
</g>
<g id="glyph-0-4-57c87f88">
<path d="M 2.671875 0 C 2.671875 0 1.21875 0 1.21875 0 C 1.21875 0 1.21875 -1.453125 1.21875 -1.453125 C 1.21875 -1.453125 2.671875 -1.453125 2.671875 -1.453125 C 2.671875 -1.453125 2.671875 0 2.671875 0 Z M 2.671875 0 "/>
</g>
<g id="glyph-0-5-57c87f88">
<path d="M 7.28125 -2.375 C 7.28125 -2.375 5.8125 -2.375 5.8125 -2.375 C 5.8125 -2.375 5.8125 0 5.8125 0 C 5.8125 0 4.578125 0 4.578125 0 C 4.578125 0 4.578125 -2.375 4.578125 -2.375 C 4.578125 -2.375 0.390625 -2.375 0.390625 -2.375 C 0.390625 -2.375 0.390625 -3.6875 0.390625 -3.6875 C 0.390625 -3.6875 4.90625 -9.921875 4.90625 -9.921875 C 4.90625 -9.921875 5.8125 -9.921875 5.8125 -9.921875 C 5.8125 -9.921875 5.8125 -3.484375 5.8125 -3.484375 C 5.8125 -3.484375 7.28125 -3.484375 7.28125 -3.484375 C 7.28125 -3.484375 7.28125 -2.375 7.28125 -2.375 Z M 4.578125 -3.484375 C 4.578125 -3.484375 4.578125 -7.828125 4.578125 -7.828125 C 4.578125 -7.828125 1.46875 -3.484375 1.46875 -3.484375 C 1.46875 -3.484375 4.578125 -3.484375 4.578125 -3.484375 Z M 4.578125 -3.484375 "/>
</g>
<g id="glyph-0-6-57c87f88">
<path d="M 7.1875 -3.078125 C 7.1875 -1.140625 5.828125 0.203125 3.9375 0.203125 C 1.671875 0.203125 0.609375 -1.421875 0.609375 -4.515625 C 0.609375 -7.984375 1.84375 -9.921875 4.15625 -9.921875 C 5.671875 -9.921875 6.734375 -8.953125 6.96875 -7.34375 C 6.96875 -7.34375 5.734375 -7.34375 5.734375 -7.34375 C 5.546875 -8.28125 4.9375 -8.828125 4.078125 -8.828125 C 2.65625 -8.828125 1.875 -7.484375 1.859375 -5.0625 C 2.390625 -5.796875 3.15625 -6.171875 4.140625 -6.171875 C 5.921875 -6.171875 7.1875 -4.921875 7.1875 -3.078125 Z M 5.921875 -2.984375 C 5.921875 -4.3125 5.1875 -5.078125 3.984375 -5.078125 C 2.765625 -5.078125 1.9375 -4.28125 1.9375 -3.046875 C 1.9375 -1.78125 2.796875 -0.875 3.953125 -0.875 C 5.078125 -0.875 5.921875 -1.734375 5.921875 -2.984375 Z M 5.921875 -2.984375 "/>
</g>
<g id="glyph-0-7-57c87f88">
<path d="M 7.28125 -8.6875 C 5.1875 -6.203125 3.796875 -3.203125 3.25 0 C 3.25 0 1.9375 0 1.9375 0 C 2.625 -3.109375 4.03125 -6 6 -8.5 C 6 -8.5 0.640625 -8.5 0.640625 -8.5 C 0.640625 -8.5 0.640625 -9.71875 0.640625 -9.71875 C 0.640625 -9.71875 7.28125 -9.71875 7.28125 -9.71875 C 7.28125 -9.71875 7.28125 -8.6875 7.28125 -8.6875 Z M 7.28125 -8.6875 "/>
</g>
<g id="glyph-1-0-57c87f88">
<path d="M 0 -7.78125 C 0 -7.78125 0 -6.640625 0 -6.640625 C 0 -6.640625 -0.640625 -6.640625 -0.640625 -6.640625 C -0.140625 -6.171875 0.171875 -5.578125 0.171875 -4.84375 C 0.171875 -4.109375 -0.140625 -3.515625 -0.640625 -3.046875 C -0.640625 -3.046875 3.21875 -3.046875 3.21875 -3.046875 C 3.21875 -3.046875 3.21875 -1.90625 3.21875 -1.90625 C 3.21875 -1.90625 -7.34375 -1.90625 -7.34375 -1.90625 C -7.34375 -1.90625 -7.34375 -3.046875 -7.34375 -3.046875 C -7.34375 -3.046875 -2.671875 -3.046875 -2.671875 -3.046875 C -1.6875 -3.296875 -0.890625 -3.890625 -0.890625 -4.84375 C -0.890625 -5.796875 -1.6875 -6.390625 -2.671875 -6.640625 C -2.671875 -6.640625 -7.34375 -6.640625 -7.34375 -6.640625 C -7.34375 -6.640625 -7.34375 -7.78125 -7.34375 -7.78125 C -7.34375 -7.78125 0 -7.78125 0 -7.78125 Z M 0 -7.78125 "/>
</g>
<g id="glyph-2-0-57c87f88">
<path d="M -7.03125 -8.578125 C -6.84375 -7.9375 -6.734375 -7.265625 -6.65625 -6.59375 C -5.984375 -7.234375 -4.953125 -7.59375 -3.609375 -7.59375 C -1.203125 -7.59375 0.203125 -6.328125 0.203125 -4.265625 C 0.203125 -2.1875 -1.203125 -0.953125 -3.671875 -0.953125 C -6.125 -0.953125 -7.546875 -2.203125 -7.546875 -4.25 C -7.546875 -4.59375 -7.5 -4.90625 -7.4375 -5.1875 C -7.53125 -6.25 -7.765625 -7.28125 -8.0625 -8.296875 C -8.0625 -8.296875 -7.03125 -8.578125 -7.03125 -8.578125 Z M -3.625 -6.375 C -5.453125 -6.375 -6.46875 -5.59375 -6.46875 -4.265625 C -6.46875 -2.96875 -5.4375 -2.171875 -3.671875 -2.171875 C -1.890625 -2.171875 -0.875 -2.96875 -0.875 -4.265625 C -0.875 -5.5625 -1.90625 -6.375 -3.625 -6.375 Z M -3.625 -6.375 "/>
</g>
</g>
</defs>
<rect x="-52.8" y="-33.6" width="633.6" height="403.2" fill="rgb(100%, 100%, 100%)" fill-opacity="1"/>
<path fill-rule="nonzero" fill="rgb(100%, 100%, 100%)" fill-opacity="1" d="M 74 136 L 512 136 L 512 16 L 74 16 Z M 74 136 "/>
<path fill-rule="nonzero" fill="rgb(100%, 100%, 100%)" fill-opacity="1" d="M 74 297 L 512 297 L 512 177 L 74 177 Z M 74 297 "/>
<path fill="none" stroke-width="1" stroke-linecap="butt" stroke-linejoin="miter" stroke="rgb(0%, 0%, 0%)" stroke-opacity="0.12" stroke-miterlimit="1.154701" d="M 93.511719 136 L 93.511719 16 "/>
<path fill="none" stroke-width="1" stroke-linecap="butt" stroke-linejoin="miter" stroke="rgb(0%, 0%, 0%)" stroke-opacity="0.12" stroke-miterlimit="1.154701" d="M 292.800781 136 L 292.800781 16 "/>
<path fill="none" stroke-width="1" stroke-linecap="butt" stroke-linejoin="miter" stroke="rgb(0%, 0%, 0%)" stroke-opacity="0.12" stroke-miterlimit="1.154701" d="M 492.089844 136 L 492.089844 16 "/>
<path fill="none" stroke-width="1" stroke-linecap="butt" stroke-linejoin="miter" stroke="rgb(0%, 0%, 0%)" stroke-opacity="0.12" stroke-miterlimit="1.154701" d="M 74 127.65625 L 512 127.65625 "/>
<path fill="none" stroke-width="1" stroke-linecap="butt" stroke-linejoin="miter" stroke="rgb(0%, 0%, 0%)" stroke-opacity="0.12" stroke-miterlimit="1.154701" d="M 74 94.550781 L 512 94.550781 "/>
<path fill="none" stroke-width="1" stroke-linecap="butt" stroke-linejoin="miter" stroke="rgb(0%, 0%, 0%)" stroke-opacity="0.12" stroke-miterlimit="1.154701" d="M 74 61.441406 L 512 61.441406 "/>
<path fill="none" stroke-width="1" stroke-linecap="butt" stroke-linejoin="miter" stroke="rgb(0%, 0%, 0%)" stroke-opacity="0.12" stroke-miterlimit="1.154701" d="M 74 28.335938 L 512 28.335938 "/>
<path fill="none" stroke-width="1" stroke-linecap="butt" stroke-linejoin="miter" stroke="rgb(0%, 0%, 0%)" stroke-opacity="0.12" stroke-miterlimit="1.154701" d="M 93.511719 297 L 93.511719 177 "/>
<path fill="none" stroke-width="1" stroke-linecap="butt" stroke-linejoin="miter" stroke="rgb(0%, 0%, 0%)" stroke-opacity="0.12" stroke-miterlimit="1.154701" d="M 292.800781 297 L 292.800781 177 "/>
<path fill="none" stroke-width="1" stroke-linecap="butt" stroke-linejoin="miter" stroke="rgb(0%, 0%, 0%)" stroke-opacity="0.12" stroke-miterlimit="1.154701" d="M 492.089844 297 L 492.089844 177 "/>
<path fill="none" stroke-width="1" stroke-linecap="butt" stroke-linejoin="miter" stroke="rgb(0%, 0%, 0%)" stroke-opacity="0.12" stroke-miterlimit="1.154701" d="M 74 278.09375 L 512 278.09375 "/>
<path fill="none" stroke-width="1" stroke-linecap="butt" stroke-linejoin="miter" stroke="rgb(0%, 0%, 0%)" stroke-opacity="0.12" stroke-miterlimit="1.154701" d="M 74 256.328125 L 512 256.328125 "/>
<path fill="none" stroke-width="1" stroke-linecap="butt" stroke-linejoin="miter" stroke="rgb(0%, 0%, 0%)" stroke-opacity="0.12" stroke-miterlimit="1.154701" d="M 74 234.5625 L 512 234.5625 "/>
<path fill="none" stroke-width="1" stroke-linecap="butt" stroke-linejoin="miter" stroke="rgb(0%, 0%, 0%)" stroke-opacity="0.12" stroke-miterlimit="1.154701" d="M 74 212.796875 L 512 212.796875 "/>
<path fill="none" stroke-width="1" stroke-linecap="butt" stroke-linejoin="miter" stroke="rgb(0%, 0%, 0%)" stroke-opacity="0.12" stroke-miterlimit="1.154701" d="M 74 191.03125 L 512 191.03125 "/>
<g fill="rgb(0%, 0%, 0%)" fill-opacity="1">
<use xlink:href="#glyph-0-0-57c87f88" x="89.618516" y="157.257997"/>
</g>
<g fill="rgb(0%, 0%, 0%)" fill-opacity="1">
<use xlink:href="#glyph-0-1-57c87f88" x="281.124729" y="157.257997"/>
</g>
<g fill="rgb(0%, 0%, 0%)" fill-opacity="1">
<use xlink:href="#glyph-0-0-57c87f88" x="288.908729" y="157.257997"/>
</g>
<g fill="rgb(0%, 0%, 0%)" fill-opacity="1">
<use xlink:href="#glyph-0-0-57c87f88" x="296.692729" y="157.257997"/>
</g>
<g fill="rgb(0%, 0%, 0%)" fill-opacity="1">
<use xlink:href="#glyph-0-2-57c87f88" x="476.522926" y="157.257997"/>
</g>
<g fill="rgb(0%, 0%, 0%)" fill-opacity="1">
<use xlink:href="#glyph-0-0-57c87f88" x="484.306926" y="157.257997"/>
</g>
<g fill="rgb(0%, 0%, 0%)" fill-opacity="1">
<use xlink:href="#glyph-0-0-57c87f88" x="492.090927" y="157.257997"/>
</g>
<g fill="rgb(0%, 0%, 0%)" fill-opacity="1">
<use xlink:href="#glyph-0-0-57c87f88" x="499.874926" y="157.257997"/>
</g>
<g fill="rgb(0%, 0%, 0%)" fill-opacity="1">
<use xlink:href="#glyph-1-0-57c87f88" x="36.488002" y="80.843995"/>
</g>
<g fill="rgb(0%, 0%, 0%)" fill-opacity="1">
<use xlink:href="#glyph-0-3-57c87f88" x="44.540002" y="132.760681"/>
</g>
<g fill="rgb(0%, 0%, 0%)" fill-opacity="1">
<use xlink:href="#glyph-0-4-57c87f88" x="52.324003" y="132.760681"/>
</g>
<g fill="rgb(0%, 0%, 0%)" fill-opacity="1">
<use xlink:href="#glyph-0-5-57c87f88" x="56.216002" y="132.760681"/>
</g>
<g fill="rgb(0%, 0%, 0%)" fill-opacity="1">
<use xlink:href="#glyph-0-3-57c87f88" x="44.540002" y="99.653273"/>
</g>
<g fill="rgb(0%, 0%, 0%)" fill-opacity="1">
<use xlink:href="#glyph-0-4-57c87f88" x="52.324003" y="99.653273"/>
</g>
<g fill="rgb(0%, 0%, 0%)" fill-opacity="1">
<use xlink:href="#glyph-0-1-57c87f88" x="56.216002" y="99.653273"/>
</g>
<g fill="rgb(0%, 0%, 0%)" fill-opacity="1">
<use xlink:href="#glyph-0-3-57c87f88" x="44.540002" y="66.545866"/>
</g>
<g fill="rgb(0%, 0%, 0%)" fill-opacity="1">
<use xlink:href="#glyph-0-4-57c87f88" x="52.324003" y="66.545866"/>
</g>
<g fill="rgb(0%, 0%, 0%)" fill-opacity="1">
<use xlink:href="#glyph-0-6-57c87f88" x="56.216002" y="66.545866"/>
</g>
<g fill="rgb(0%, 0%, 0%)" fill-opacity="1">
<use xlink:href="#glyph-0-3-57c87f88" x="44.540002" y="33.438474"/>
</g>
<g fill="rgb(0%, 0%, 0%)" fill-opacity="1">
<use xlink:href="#glyph-0-4-57c87f88" x="52.324003" y="33.438474"/>
</g>
<g fill="rgb(0%, 0%, 0%)" fill-opacity="1">
<use xlink:href="#glyph-0-7-57c87f88" x="56.216002" y="33.438474"/>
</g>
<path fill="none" stroke-width="1.5" stroke-linecap="butt" stroke-linejoin="miter" stroke="rgb(0%, 44.705883%, 69.803923%)" stroke-opacity="1" stroke-miterlimit="2" d="M 93.910156 70.847656 L 94.308594 97.953125 L 94.707031 79.429688 L 95.105469 71.097656 L 95.503906 54.648438 L 95.902344 86.171875 L 96.300781 67.90625 L 96.699219 83.757812 L 97.097656 56.511719 L 97.496094 56.511719 L 97.894531 42.949219 L 98.292969 86.972656 L 98.691406 49.480469 L 99.089844 62.6875 L 101.480469 62.6875 L 101.878906 77.144531 L 102.277344 83.789062 L 102.679688 61.25 L 103.078125 77.523438 L 103.476562 68.75 L 103.875 79.085938 L 104.273438 53.304688 L 104.671875 53.304688 L 105.070312 68.238281 L 105.46875 65.433594 L 105.867188 39.136719 L 106.265625 39.136719 L 106.664062 44.644531 L 107.0625 98.988281 L 107.460938 41.476562 L 107.859375 55.597656 L 108.257812 41.238281 L 108.65625 72.726562 L 109.453125 72.726562 L 109.851562 99.28125 L 110.25 103.105469 L 110.648438 47.4375 L 111.046875 58.652344 L 111.445312 68.578125 L 111.84375 68.578125 L 112.242188 58.980469 L 112.640625 58.980469 L 113.039062 79.285156 L 113.441406 67.628906 L 113.839844 73.074219 L 114.238281 61.429688 L 114.636719 45.902344 L 115.035156 85.617188 L 115.433594 65.164062 L 115.832031 68.890625 L 116.230469 75.59375 L 117.027344 75.59375 L 117.425781 91.871094 L 117.824219 57.84375 L 118.222656 57.84375 L 118.621094 114.066406 L 119.019531 114.066406 L 119.417969 93.875 L 119.816406 74.773438 L 120.214844 60.230469 L 120.613281 60.230469 L 121.011719 84.515625 L 121.410156 54.382812 L 121.808594 52.980469 L 122.207031 52.980469 L 122.605469 45.371094 L 123.003906 45.371094 L 123.402344 72.324219 L 123.800781 31.960938 L 124.203125 31.960938 L 124.601562 111.949219 L 125 63.59375 L 125.398438 63.59375 L 125.796875 80.164062 L 126.195312 64.222656 L 126.59375 30.769531 L 126.992188 63.988281 L 127.390625 67.472656 L 127.789062 67.472656 L 128.1875 65.433594 L 128.984375 65.433594 L 129.382812 65.265625 L 129.78125 80.71875 L 130.179688 80.71875 L 130.578125 79.378906 L 130.976562 90.238281 L 131.375 84.234375 L 131.773438 94.003906 L 132.171875 57.660156 L 132.570312 102.980469 L 132.96875 112.007812 L 133.367188 112.007812 L 133.765625 81.890625 L 134.164062 69.277344 L 134.5625 59.871094 L 134.960938 96.167969 L 135.363281 89.976562 L 135.761719 56.9375 L 136.160156 53.308594 L 136.558594 97.765625 L 136.957031 97.765625 L 137.355469 66.375 L 138.550781 66.375 L 138.949219 51.15625 L 139.347656 67.320312 L 139.746094 79.476562 L 140.144531 56.527344 L 140.542969 81.632812 L 140.941406 81.632812 L 141.339844 90.828125 L 142.136719 90.828125 L 142.535156 101.664062 L 142.933594 81.796875 L 143.730469 81.796875 L 144.128906 74.667969 L 144.527344 74.667969 L 144.925781 56.648438 L 145.324219 97.210938 L 145.722656 93.464844 L 146.125 69.261719 L 146.523438 57.671875 L 146.921875 88.996094 L 147.71875 88.996094 L 148.117188 69.636719 L 148.515625 43.296875 L 148.914062 67.910156 L 150.109375 67.910156 L 150.507812 69.554688 L 150.90625 69.554688 L 151.304688 64.789062 L 151.703125 64.789062 L 152.101562 53.746094 L 152.5 87.011719 L 152.898438 89.410156 L 153.296875 86.695312 L 153.695312 86.230469 L 154.09375 104.683594 L 154.492188 71.234375 L 154.890625 66.8125 L 155.289062 66.8125 L 155.6875 88.667969 L 156.085938 88.667969 L 156.484375 65.132812 L 156.886719 91.773438 L 157.285156 51.578125 L 157.683594 92.246094 L 158.082031 92.246094 L 158.480469 81.773438 L 158.878906 94.660156 L 159.277344 79.359375 L 159.675781 79.359375 L 160.074219 42.921875 L 160.472656 31.941406 L 160.871094 79.769531 L 161.269531 24.058594 L 161.667969 68.253906 L 162.066406 104.480469 L 162.464844 61.011719 L 163.261719 61.011719 L 163.660156 63.636719 L 164.058594 63.636719 L 164.457031 58.558594 L 164.855469 62.382812 L 165.253906 46.414062 L 165.652344 46.414062 L 166.050781 43.136719 L 166.449219 41.117188 L 166.847656 63.519531 L 167.246094 53.082031 L 167.644531 58.382812 L 168.046875 88.125 L 168.445312 70.261719 L 168.84375 60.246094 L 169.242188 90.003906 L 169.640625 89.683594 L 170.4375 89.683594 L 170.835938 78.878906 L 171.234375 67.253906 L 171.632812 88.574219 L 172.03125 85.769531 L 172.429688 83.308594 L 172.828125 64.132812 L 173.226562 64.132812 L 173.625 104.046875 L 174.023438 89.734375 L 174.421875 80.566406 L 174.820312 64.757812 L 175.21875 64.367188 L 175.617188 50.414062 L 176.015625 49.800781 L 176.414062 93.625 L 176.8125 53.75 L 177.210938 53.75 L 177.609375 64.375 L 178.007812 56.425781 L 178.40625 45.980469 L 178.808594 70.417969 L 180.003906 70.417969 L 180.402344 72.046875 L 180.800781 44.628906 L 181.597656 44.628906 L 181.996094 100.03125 L 182.394531 84.175781 L 182.792969 60.070312 L 183.191406 60.070312 L 183.589844 43.769531 L 183.988281 73.277344 L 184.386719 100.332031 L 184.785156 97.328125 L 185.183594 61.785156 L 185.582031 75.101562 L 185.980469 65.386719 L 186.378906 74.6875 L 186.777344 66.589844 L 188.371094 66.589844 L 188.769531 73.09375 L 189.167969 80.304688 L 189.570312 94.128906 L 189.96875 111.457031 L 190.367188 105.890625 L 190.765625 85.816406 L 191.164062 76.683594 L 191.5625 66.691406 L 191.960938 75.519531 L 192.359375 94.492188 L 192.757812 41.429688 L 193.15625 84.796875 L 193.554688 57.414062 L 193.953125 63.027344 L 194.351562 79.957031 L 194.75 73.148438 L 195.148438 35.738281 L 195.546875 64.476562 L 195.945312 55.339844 L 196.34375 55.339844 L 196.742188 57.855469 L 197.140625 96.234375 L 197.539062 60.539062 L 199.929688 60.539062 L 200.328125 78.851562 L 200.730469 96.117188 L 201.128906 78.660156 L 201.925781 78.660156 L 202.324219 59.0625 L 202.722656 41.730469 L 203.121094 59.363281 L 203.519531 85.828125 L 203.917969 68.332031 L 204.316406 79.339844 L 204.714844 94.320312 L 205.113281 93.371094 L 205.511719 96.84375 L 205.910156 84.449219 L 206.308594 86.636719 L 206.707031 87.691406 L 207.105469 87.691406 L 207.503906 70.230469 L 207.902344 70.230469 L 208.300781 50.820312 L 208.699219 50.820312 L 209.097656 81.605469 L 209.496094 43.457031 L 209.894531 59.433594 L 210.292969 56.636719 L 211.089844 56.636719 L 211.492188 81.921875 L 212.289062 81.921875 L 212.6875 86.164062 L 213.085938 100.269531 L 213.484375 106.171875 L 213.882812 80.808594 L 214.28125 80.808594 L 214.679688 78.605469 L 215.875 78.605469 L 216.273438 72.460938 L 216.671875 72.460938 L 217.070312 73.453125 L 218.664062 73.453125 L 219.0625 59.96875 L 219.460938 69.8125 L 219.859375 82.800781 L 220.257812 77.238281 L 220.65625 91.613281 L 221.054688 63.128906 L 221.453125 75.363281 L 221.851562 112.65625 L 222.253906 94.816406 L 222.652344 60.136719 L 223.050781 79.945312 L 223.449219 79.945312 L 223.847656 81.5 L 224.246094 65.597656 L 224.644531 78.464844 L 225.042969 92.902344 L 225.441406 86.550781 L 225.839844 74.035156 L 226.238281 95.792969 L 227.035156 95.792969 L 227.433594 58.3125 L 227.832031 85.035156 L 228.230469 85.035156 L 228.628906 90.96875 L 229.027344 60.097656 L 229.425781 91.203125 L 229.824219 63.648438 L 230.222656 73.554688 L 230.621094 78.367188 L 231.019531 58.800781 L 231.417969 55.699219 L 231.816406 122.167969 L 232.214844 47.59375 L 232.613281 56.339844 L 233.011719 56.039062 L 233.414062 56.039062 L 233.8125 77.359375 L 234.210938 77.359375 L 234.609375 63.0625 L 235.007812 35.078125 L 235.40625 21.453125 L 235.804688 117.207031 L 236.203125 61.375 L 236.601562 61.375 L 237 70.558594 L 237.398438 96.609375 L 237.796875 33.074219 L 238.195312 31.847656 L 238.59375 82.171875 L 238.992188 62.355469 L 239.390625 62.355469 L 239.789062 51.402344 L 240.1875 87.703125 L 240.585938 99.269531 L 240.984375 63.992188 L 241.382812 75.355469 L 241.78125 75.355469 L 242.179688 70.699219 L 242.578125 70.699219 L 242.976562 81.632812 L 243.375 72.214844 L 244.175781 72.214844 L 244.574219 82.941406 L 244.972656 80.136719 L 245.371094 84.179688 L 245.769531 87.195312 L 246.167969 95.535156 L 246.566406 87.820312 L 246.964844 70.144531 L 247.363281 70.144531 L 247.761719 36.917969 L 248.160156 36.917969 L 248.558594 72.1875 L 248.957031 77.414062 L 249.355469 71.761719 L 249.753906 67.199219 L 250.152344 53.308594 L 250.550781 53.308594 L 250.949219 53.972656 L 251.347656 86.65625 L 251.746094 54.273438 L 252.144531 67.628906 L 252.542969 69.75 L 252.941406 69.75 L 253.339844 65.855469 L 253.738281 78.136719 L 254.136719 62.265625 L 254.535156 44.292969 L 254.9375 51.515625 L 255.335938 102.492188 L 255.734375 102.492188 L 256.132812 30.695312 L 256.53125 55.523438 L 256.929688 106.832031 L 257.328125 37.832031 L 257.726562 112.671875 L 258.125 77.6875 L 258.523438 68.796875 L 258.921875 50.261719 L 259.71875 50.261719 L 260.117188 90.320312 L 260.515625 62.769531 L 260.914062 62.769531 L 261.3125 91.191406 L 261.710938 55.492188 L 262.109375 82.191406 L 262.507812 82.191406 L 262.90625 45.308594 L 263.304688 54.113281 L 263.703125 91.660156 L 264.101562 64.464844 L 264.5 62.820312 L 264.898438 90.058594 L 265.296875 56.34375 L 265.695312 115.488281 L 266.097656 22.867188 L 266.496094 82.589844 L 266.894531 46.660156 L 267.292969 65.527344 L 267.691406 65.527344 L 268.089844 49.011719 L 268.488281 62.746094 L 268.886719 62.746094 L 269.285156 85.578125 L 269.683594 73.925781 L 270.082031 80.503906 L 270.480469 76.925781 L 270.878906 56.753906 L 271.277344 62.109375 L 271.675781 75.359375 L 272.074219 49.988281 L 272.472656 75.042969 L 272.871094 75.808594 L 273.269531 75.808594 L 273.667969 54.457031 L 274.066406 54.457031 L 274.464844 58.566406 L 275.261719 58.566406 L 275.660156 65.585938 L 276.058594 44.21875 L 276.457031 103.558594 L 276.859375 84.535156 L 277.257812 83.277344 L 277.65625 63.867188 L 278.054688 92.886719 L 278.453125 61.976562 L 278.851562 61.976562 L 279.25 39.550781 L 279.648438 29.875 L 280.046875 99.378906 L 280.445312 44.007812 L 280.84375 44.007812 L 281.242188 96.179688 L 281.640625 71.519531 L 282.039062 75.421875 L 282.4375 69.132812 L 282.835938 69.132812 L 283.234375 99.3125 L 283.632812 65.277344 L 284.03125 58.027344 L 284.429688 58.027344 L 284.828125 63.207031 L 285.226562 85.628906 L 285.625 82.207031 L 286.023438 73.273438 L 286.421875 78.386719 L 286.820312 53.742188 L 287.21875 78.894531 L 287.617188 69.351562 L 288.019531 69.351562 L 288.417969 40.0625 L 288.816406 69.289062 L 289.214844 83.726562 L 289.613281 98.949219 L 290.011719 66.546875 L 290.410156 66.546875 L 290.808594 78.5625 L 291.207031 65.46875 L 292.003906 65.46875 L 292.402344 98.785156 L 292.800781 86.535156 L 293.199219 67.394531 L 293.597656 67.394531 L 293.996094 39.566406 L 294.394531 79.761719 L 294.792969 79.761719 L 295.191406 65.648438 L 295.589844 49.847656 L 295.988281 91.613281 L 296.386719 80.789062 L 296.785156 79.375 L 297.183594 52.003906 L 297.582031 105.359375 L 297.980469 84.507812 L 298.378906 84.507812 L 298.78125 55.035156 L 299.179688 55.035156 L 299.578125 76.003906 L 299.976562 76.003906 L 300.375 61.449219 L 301.570312 61.449219 L 301.96875 63.71875 L 302.367188 63.71875 L 302.765625 95.484375 L 303.164062 42.988281 L 303.5625 89.96875 L 303.960938 118.191406 L 304.359375 77.640625 L 304.757812 61.203125 L 305.15625 37.316406 L 305.554688 43.492188 L 305.953125 100.785156 L 306.351562 75.277344 L 306.75 65.46875 L 307.148438 35.058594 L 307.546875 62.238281 L 307.945312 88.261719 L 308.34375 58.851562 L 309.140625 58.851562 L 309.542969 54.027344 L 309.941406 48.03125 L 310.339844 48.03125 L 310.738281 88.058594 L 311.136719 83.269531 L 311.535156 83.269531 L 311.933594 69.269531 L 312.730469 69.269531 L 313.128906 70.507812 L 313.527344 84.511719 L 313.925781 84.511719 L 314.324219 73.070312 L 315.917969 73.070312 L 316.316406 85.316406 L 317.113281 85.316406 L 317.511719 109.589844 L 317.910156 89.0625 L 318.308594 89.0625 L 318.707031 51.695312 L 319.105469 51.695312 L 319.503906 71.203125 L 319.902344 76.285156 L 320.304688 70.539062 L 320.703125 64.996094 L 321.101562 61.035156 L 321.5 98.199219 L 321.898438 62.714844 L 322.296875 62.714844 L 322.695312 71.8125 L 323.09375 38.5625 L 323.492188 42.417969 L 323.890625 65.824219 L 324.289062 73.714844 L 324.6875 62.925781 L 325.085938 76.328125 L 326.28125 76.328125 L 326.679688 76.050781 L 327.078125 93.304688 L 327.476562 44.394531 L 327.875 98.804688 L 328.273438 52.097656 L 328.671875 68.566406 L 329.070312 68.566406 L 329.46875 78.460938 L 329.867188 78.460938 L 330.265625 61.351562 L 331.0625 61.351562 L 331.464844 77.394531 L 331.863281 94.589844 L 332.261719 94.589844 L 332.660156 64.171875 L 333.058594 75.828125 L 333.457031 75.269531 L 333.855469 99.777344 L 334.253906 51.902344 L 334.652344 55.066406 L 335.050781 56.824219 L 335.449219 56.824219 L 335.847656 80.402344 L 336.246094 50.976562 L 336.644531 85.421875 L 337.042969 66.535156 L 337.441406 57.820312 L 337.839844 85.882812 L 338.238281 71.953125 L 338.636719 100.417969 L 339.035156 87.996094 L 339.433594 110.875 L 339.832031 90.339844 L 340.230469 90.339844 L 340.628906 66.890625 L 341.027344 95.0625 L 341.425781 55.347656 L 341.824219 58.183594 L 342.226562 86.851562 L 342.625 86.851562 L 343.023438 103.808594 L 343.421875 85.515625 L 343.820312 37.640625 L 344.21875 87.1875 L 344.617188 65.09375 L 345.015625 82.296875 L 345.414062 79.890625 L 345.8125 58.503906 L 346.210938 130.546875 L 346.609375 46.011719 L 347.007812 66.207031 L 347.40625 61.351562 L 348.203125 61.351562 L 348.601562 63.421875 L 349 73.871094 L 349.398438 69.035156 L 350.59375 69.035156 L 350.992188 70.5625 L 351.390625 81.441406 L 351.789062 59.273438 L 352.1875 78.332031 L 352.585938 78.332031 L 352.984375 77.554688 L 353.386719 77.554688 L 353.785156 101.238281 L 354.183594 83.359375 L 354.582031 58.257812 L 354.980469 84.367188 L 355.378906 84.367188 L 355.777344 87.527344 L 356.175781 94.613281 L 356.574219 94.613281 L 356.972656 98.371094 L 357.371094 64.988281 L 357.769531 64.988281 L 358.167969 71.542969 L 358.566406 85.84375 L 358.964844 86.421875 L 359.363281 69.097656 L 359.761719 89.058594 L 360.160156 76.234375 L 360.558594 76.234375 L 360.957031 86.855469 L 361.355469 75.117188 L 361.753906 60.421875 L 362.152344 60.421875 L 362.550781 60.78125 L 362.949219 82.90625 L 363.347656 60.648438 L 363.746094 60.648438 L 364.148438 69.785156 L 364.546875 60.816406 L 364.945312 51.464844 L 365.34375 99.140625 L 365.742188 57.0625 L 366.140625 57.0625 L 366.539062 93.960938 L 366.9375 93.960938 L 367.335938 34.316406 L 367.734375 82.769531 L 368.132812 67.136719 L 368.53125 71.394531 L 368.929688 93.621094 L 369.328125 65.578125 L 369.726562 42.957031 L 370.125 64.519531 L 370.523438 90.15625 L 371.320312 90.15625 L 371.71875 84.039062 L 372.117188 51.589844 L 372.515625 51.589844 L 372.914062 73.96875 L 373.3125 73.96875 L 373.710938 99.554688 L 374.109375 63.867188 L 374.507812 74.34375 L 374.910156 76.542969 L 375.308594 61.09375 L 375.707031 51.828125 L 376.105469 54.375 L 376.503906 72.140625 L 377.300781 72.140625 L 377.699219 71.839844 L 378.097656 87.523438 L 378.496094 93.601562 L 378.894531 61.1875 L 379.691406 61.1875 L 380.089844 82.097656 L 380.488281 85.859375 L 380.886719 73.261719 L 381.285156 73.261719 L 381.683594 75.324219 L 382.082031 64.105469 L 382.480469 64.105469 L 382.878906 62.429688 L 383.675781 62.429688 L 384.074219 73.511719 L 384.472656 57.351562 L 384.871094 72.570312 L 385.269531 84.640625 L 385.671875 80.355469 L 386.070312 58.328125 L 386.46875 48.820312 L 386.867188 78.226562 L 387.265625 49.945312 L 387.664062 58.46875 L 388.0625 46.339844 L 388.460938 56.113281 L 388.859375 94.945312 L 389.257812 94.945312 L 389.65625 108.03125 L 390.054688 85.164062 L 390.453125 85.164062 L 390.851562 93.273438 L 391.25 79.75 L 391.648438 69.171875 L 392.046875 38.632812 L 392.445312 97.214844 L 392.84375 68.527344 L 393.242188 110.804688 L 393.640625 38.320312 L 394.039062 105.691406 L 394.4375 115.351562 L 394.835938 78 L 395.234375 59.222656 L 396.429688 59.222656 L 396.832031 56.199219 L 397.230469 56.199219 L 397.628906 82.75 L 398.027344 82.75 L 398.425781 72.8125 L 398.824219 65.503906 L 399.222656 46.125 L 399.621094 59.273438 L 400.019531 84.292969 L 400.417969 66.074219 L 400.816406 68.863281 L 401.214844 54.820312 L 401.613281 73.09375 L 402.011719 64.976562 L 402.410156 91.4375 L 402.808594 91.4375 L 403.207031 51.097656 L 403.605469 57.578125 L 404.402344 57.578125 L 404.800781 45.261719 L 405.199219 70.113281 L 405.597656 57.929688 L 405.996094 71.148438 L 406.394531 83.273438 L 406.792969 91.289062 L 407.191406 98.183594 L 407.59375 92.242188 L 407.992188 85.648438 L 408.390625 59.003906 L 408.789062 55.785156 L 409.1875 110.726562 L 409.585938 113.632812 L 409.984375 90.53125 L 410.382812 79.75 L 410.78125 79.75 L 411.179688 65.695312 L 411.578125 90.175781 L 411.976562 49.929688 L 412.375 79.902344 L 412.773438 79.902344 L 413.171875 51.078125 L 413.570312 86.582031 L 413.96875 86.582031 L 414.367188 40.832031 L 414.765625 77.746094 L 415.164062 123.101562 L 415.5625 43.972656 L 415.960938 81.273438 L 416.359375 81.273438 L 416.757812 95.257812 L 417.15625 95.257812 L 417.554688 94.5 L 417.953125 29.609375 L 418.351562 85.875 L 419.152344 85.875 L 419.550781 55.777344 L 419.949219 48.117188 L 420.347656 71.007812 L 420.746094 79.695312 L 421.144531 126.167969 L 421.542969 114.683594 L 421.941406 56.921875 L 422.738281 56.921875 L 423.136719 57.632812 L 423.535156 71.007812 L 423.933594 50.101562 L 424.332031 56.066406 L 424.730469 89.535156 L 425.128906 89.535156 L 425.527344 68.773438 L 425.925781 68.773438 L 426.324219 47.757812 L 426.722656 49.757812 L 427.121094 45.710938 L 427.519531 72.566406 L 427.917969 72.566406 L 428.316406 63.453125 L 429.914062 63.453125 L 430.3125 99.761719 L 430.710938 79.035156 L 431.109375 89.90625 L 431.507812 52.933594 L 431.90625 52.933594 L 432.304688 68.027344 L 432.703125 74.21875 L 433.101562 81.355469 L 433.5 94.582031 L 433.898438 94.582031 L 434.296875 54.105469 L 434.695312 80.988281 L 435.09375 80.988281 L 435.492188 109.695312 L 435.890625 91.710938 L 436.289062 87.34375 L 436.6875 99.058594 L 437.085938 57.96875 L 437.484375 68.738281 L 437.882812 68.738281 L 438.28125 63.113281 L 438.679688 63.113281 L 439.078125 87.246094 L 439.476562 84.15625 L 439.875 77.699219 L 440.277344 77.699219 L 440.675781 91.828125 L 441.074219 29.355469 L 441.472656 29.355469 L 441.871094 84.648438 L 442.269531 83.222656 L 442.667969 83.222656 L 443.066406 65.761719 L 443.464844 57.414062 L 443.863281 72.308594 L 444.261719 57.808594 L 444.660156 82.003906 L 445.457031 82.003906 L 445.855469 83.925781 L 446.253906 94.699219 L 446.652344 55.765625 L 447.050781 81.546875 L 447.449219 83.523438 L 447.847656 58.039062 L 448.246094 92.511719 L 448.644531 92.511719 L 449.042969 90.101562 L 449.441406 84.175781 L 449.839844 112.867188 L 450.238281 48.914062 L 450.636719 64.152344 L 451.039062 82.023438 L 451.4375 42.59375 L 451.835938 86.445312 L 452.234375 86.445312 L 452.632812 56.898438 L 453.03125 56.898438 L 453.429688 55.0625 L 453.828125 57.070312 L 454.226562 91.882812 L 454.625 91.882812 L 455.023438 73.117188 L 455.421875 73.117188 L 455.820312 52 L 456.21875 79.941406 L 456.617188 29.460938 L 457.015625 57.503906 L 457.414062 79.679688 L 457.8125 55.886719 L 458.210938 81.964844 L 458.609375 71.804688 L 459.007812 104.910156 L 459.40625 107.53125 L 459.804688 73.867188 L 460.203125 61.175781 L 460.601562 74.207031 L 461 68.527344 L 461.398438 68.527344 L 461.796875 69.578125 L 462.199219 106.949219 L 462.597656 88.152344 L 462.996094 44.191406 L 463.394531 44.191406 L 463.792969 47.199219 L 464.191406 47.199219 L 464.589844 97.753906 L 464.988281 78.378906 L 465.386719 78.378906 L 465.785156 48.078125 L 466.183594 95.875 L 466.582031 78.910156 L 466.980469 71.421875 L 467.378906 61.695312 L 467.777344 83.28125 L 468.175781 62.269531 L 468.574219 62.269531 L 468.972656 51.015625 L 469.371094 72.789062 L 469.769531 95.164062 L 470.167969 56.671875 L 470.566406 56.671875 L 470.964844 86.570312 L 471.363281 86.570312 L 471.761719 55.1875 L 472.160156 42.960938 L 472.558594 100.980469 L 472.960938 42.277344 L 473.359375 100.78125 L 473.757812 109.382812 L 474.15625 95.242188 L 474.554688 47.101562 L 474.953125 75.617188 L 475.351562 80.359375 L 475.75 58.683594 L 476.148438 58.683594 L 476.546875 92.78125 L 476.945312 92.78125 L 477.34375 80.027344 L 477.742188 80.027344 L 478.140625 82.617188 L 478.539062 75.832031 L 478.9375 59.730469 L 479.335938 63.242188 L 479.734375 72.207031 L 480.132812 62.085938 L 480.929688 62.085938 L 481.328125 52.484375 L 481.726562 80.929688 L 482.125 71.902344 L 482.523438 65.542969 L 482.921875 69.710938 L 483.320312 74.671875 L 483.71875 77.042969 L 484.121094 77.878906 L 484.519531 65.574219 L 484.917969 65.574219 L 485.316406 81.691406 L 485.714844 52.675781 L 486.113281 69.382812 L 486.511719 85.257812 L 486.910156 75.5625 L 487.308594 88.007812 L 487.707031 49.5 L 488.105469 79.574219 L 488.503906 88.972656 L 489.300781 88.972656 L 489.699219 97.605469 L 490.097656 64.558594 L 490.496094 64.558594 L 490.894531 73.25 L 491.292969 73.25 L 491.691406 122.375 L 492.089844 30.296875 "/>
<g fill="rgb(0%, 0%, 0%)" fill-opacity="1">
<use xlink:href="#glyph-0-0-57c87f88" x="89.618516" y="318.258"/>
</g>
<g fill="rgb(0%, 0%, 0%)" fill-opacity="1">
<use xlink:href="#glyph-0-1-57c87f88" x="281.124729" y="318.258"/>
</g>
<g fill="rgb(0%, 0%, 0%)" fill-opacity="1">
<use xlink:href="#glyph-0-0-57c87f88" x="288.908729" y="318.258"/>
</g>
<g fill="rgb(0%, 0%, 0%)" fill-opacity="1">
<use xlink:href="#glyph-0-0-57c87f88" x="296.692729" y="318.258"/>
</g>
<g fill="rgb(0%, 0%, 0%)" fill-opacity="1">
<use xlink:href="#glyph-0-2-57c87f88" x="476.522926" y="318.258"/>
</g>
<g fill="rgb(0%, 0%, 0%)" fill-opacity="1">
<use xlink:href="#glyph-0-0-57c87f88" x="484.306926" y="318.258"/>
</g>
<g fill="rgb(0%, 0%, 0%)" fill-opacity="1">
<use xlink:href="#glyph-0-0-57c87f88" x="492.090927" y="318.258"/>
</g>
<g fill="rgb(0%, 0%, 0%)" fill-opacity="1">
<use xlink:href="#glyph-0-0-57c87f88" x="499.874926" y="318.258"/>
</g>
<g fill="rgb(0%, 0%, 0%)" fill-opacity="1">
<use xlink:href="#glyph-2-0-57c87f88" x="28.704001" y="241.528998"/>
</g>
<g fill="rgb(0%, 0%, 0%)" fill-opacity="1">
<use xlink:href="#glyph-0-0-57c87f88" x="36.756002" y="283.198348"/>
</g>
<g fill="rgb(0%, 0%, 0%)" fill-opacity="1">
<use xlink:href="#glyph-0-4-57c87f88" x="44.540002" y="283.198348"/>
</g>
<g fill="rgb(0%, 0%, 0%)" fill-opacity="1">
<use xlink:href="#glyph-0-5-57c87f88" x="48.432002" y="283.198348"/>
</g>
<g fill="rgb(0%, 0%, 0%)" fill-opacity="1">
<use xlink:href="#glyph-0-0-57c87f88" x="56.216001" y="283.198348"/>
</g>
<g fill="rgb(0%, 0%, 0%)" fill-opacity="1">
<use xlink:href="#glyph-0-0-57c87f88" x="36.756002" y="261.431971"/>
</g>
<g fill="rgb(0%, 0%, 0%)" fill-opacity="1">
<use xlink:href="#glyph-0-4-57c87f88" x="44.540002" y="261.431971"/>
</g>
<g fill="rgb(0%, 0%, 0%)" fill-opacity="1">
<use xlink:href="#glyph-0-5-57c87f88" x="48.432002" y="261.431971"/>
</g>
<g fill="rgb(0%, 0%, 0%)" fill-opacity="1">
<use xlink:href="#glyph-0-1-57c87f88" x="56.216001" y="261.431971"/>
</g>
<g fill="rgb(0%, 0%, 0%)" fill-opacity="1">
<use xlink:href="#glyph-0-0-57c87f88" x="36.756002" y="239.66559"/>
</g>
<g fill="rgb(0%, 0%, 0%)" fill-opacity="1">
<use xlink:href="#glyph-0-4-57c87f88" x="44.540002" y="239.66559"/>
</g>
<g fill="rgb(0%, 0%, 0%)" fill-opacity="1">
<use xlink:href="#glyph-0-1-57c87f88" x="48.432002" y="239.66559"/>
</g>
<g fill="rgb(0%, 0%, 0%)" fill-opacity="1">
<use xlink:href="#glyph-0-0-57c87f88" x="56.216001" y="239.66559"/>
</g>
<g fill="rgb(0%, 0%, 0%)" fill-opacity="1">
<use xlink:href="#glyph-0-0-57c87f88" x="36.756002" y="217.899217"/>
</g>
<g fill="rgb(0%, 0%, 0%)" fill-opacity="1">
<use xlink:href="#glyph-0-4-57c87f88" x="44.540002" y="217.899217"/>
</g>
<g fill="rgb(0%, 0%, 0%)" fill-opacity="1">
<use xlink:href="#glyph-0-1-57c87f88" x="48.432002" y="217.899217"/>
</g>
<g fill="rgb(0%, 0%, 0%)" fill-opacity="1">
<use xlink:href="#glyph-0-1-57c87f88" x="56.216001" y="217.899217"/>
</g>
<g fill="rgb(0%, 0%, 0%)" fill-opacity="1">
<use xlink:href="#glyph-0-0-57c87f88" x="36.756002" y="196.132828"/>
</g>
<g fill="rgb(0%, 0%, 0%)" fill-opacity="1">
<use xlink:href="#glyph-0-4-57c87f88" x="44.540002" y="196.132828"/>
</g>
<g fill="rgb(0%, 0%, 0%)" fill-opacity="1">
<use xlink:href="#glyph-0-6-57c87f88" x="48.432002" y="196.132828"/>
</g>
<g fill="rgb(0%, 0%, 0%)" fill-opacity="1">
<use xlink:href="#glyph-0-0-57c87f88" x="56.216001" y="196.132828"/>
</g>
<path fill="none" stroke-width="1.5" stroke-linecap="butt" stroke-linejoin="miter" stroke="rgb(0%, 44.705883%, 69.803923%)" stroke-opacity="1" stroke-miterlimit="2" d="M 93.910156 244.386719 L 94.308594 237.085938 L 94.707031 241.351562 L 95.105469 236.765625 L 95.503906 234.125 L 95.902344 250.179688 L 96.300781 265.144531 L 96.699219 253.9375 L 97.097656 254.605469 L 97.496094 254.605469 L 97.894531 274.164062 L 98.292969 277.539062 L 98.691406 267.199219 L 99.089844 267.191406 L 101.480469 267.191406 L 101.878906 275.269531 L 102.277344 272.992188 L 102.679688 225.46875 L 103.078125 211.726562 L 103.476562 275.796875 L 103.875 266.886719 L 104.273438 269.03125 L 104.671875 269.03125 L 105.070312 270.714844 L 105.46875 259.402344 L 105.867188 255.523438 L 106.265625 255.523438 L 106.664062 258.652344 L 107.0625 237.625 L 107.460938 254.609375 L 107.859375 252.601562 L 108.257812 252.515625 L 108.65625 239.171875 L 109.453125 239.171875 L 109.851562 210.703125 L 110.25 210.050781 L 110.648438 231.890625 L 111.046875 245.378906 L 111.445312 275.859375 L 111.84375 275.859375 L 112.242188 238.023438 L 112.640625 238.023438 L 113.039062 228.996094 L 113.441406 238.058594 L 113.839844 228.675781 L 114.238281 227.566406 L 114.636719 218.234375 L 115.035156 220.257812 L 115.433594 273.898438 L 115.832031 232.957031 L 116.230469 243.914062 L 117.027344 243.914062 L 117.425781 260.867188 L 117.824219 238.292969 L 118.222656 238.292969 L 118.621094 231.585938 L 119.019531 231.585938 L 119.417969 234.894531 L 119.816406 244.199219 L 120.214844 244.398438 L 120.613281 244.398438 L 121.011719 258.554688 L 121.410156 245.304688 L 121.808594 270.390625 L 122.207031 270.390625 L 122.605469 252.007812 L 123.003906 252.007812 L 123.402344 254.585938 L 123.800781 270.320312 L 124.203125 270.320312 L 124.601562 270.992188 L 125 269.582031 L 125.398438 269.582031 L 125.796875 258.382812 L 126.195312 276.027344 L 126.59375 246.992188 L 126.992188 246.976562 L 127.390625 253.03125 L 127.789062 253.03125 L 128.1875 247.738281 L 128.984375 247.738281 L 129.382812 263.332031 L 129.78125 278.03125 L 130.179688 278.03125 L 130.578125 268.175781 L 130.976562 198.378906 L 131.375 224.074219 L 131.773438 248.929688 L 132.171875 232.785156 L 132.570312 235.023438 L 132.96875 253.148438 L 133.367188 253.148438 L 133.765625 273.753906 L 134.164062 276.90625 L 134.5625 250.363281 L 134.960938 273.894531 L 135.363281 236.410156 L 135.761719 260.992188 L 136.160156 244.941406 L 136.558594 256.894531 L 136.957031 256.894531 L 137.355469 254.820312 L 138.550781 254.820312 L 138.949219 249.128906 L 139.347656 265.804688 L 139.746094 269.292969 L 140.144531 259.265625 L 140.542969 253.769531 L 140.941406 253.769531 L 141.339844 247.453125 L 142.136719 247.453125 L 142.535156 280.078125 L 142.933594 290.019531 L 143.730469 290.019531 L 144.128906 244.785156 L 144.527344 244.785156 L 144.925781 250.605469 L 145.324219 260.296875 L 145.722656 274.492188 L 146.125 256.824219 L 146.523438 270.082031 L 146.921875 273.941406 L 147.71875 273.941406 L 148.117188 249.296875 L 148.515625 239.820312 L 148.914062 276.203125 L 150.109375 276.203125 L 150.507812 256.300781 L 150.90625 256.300781 L 151.304688 263.503906 L 151.703125 263.503906 L 152.101562 270.714844 L 152.5 277.238281 L 152.898438 261.574219 L 153.296875 248.367188 L 153.695312 251.964844 L 154.09375 250.53125 L 154.492188 279.808594 L 154.890625 243.753906 L 155.289062 243.753906 L 155.6875 234.371094 L 156.085938 234.371094 L 156.484375 211.414062 L 156.886719 239.003906 L 157.285156 252.09375 L 157.683594 260.253906 L 158.082031 260.253906 L 158.480469 269.691406 L 158.878906 268.339844 L 159.277344 273.234375 L 159.675781 273.234375 L 160.074219 246.414062 L 160.472656 266.320312 L 160.871094 265.472656 L 161.269531 272.03125 L 161.667969 280.976562 L 162.066406 291.003906 L 162.464844 268.976562 L 163.261719 268.976562 L 163.660156 245.859375 L 164.058594 245.859375 L 164.457031 270.320312 L 164.855469 245.21875 L 165.253906 244.792969 L 165.652344 244.792969 L 166.050781 252.253906 L 166.449219 260.625 L 166.847656 253.914062 L 167.246094 262.394531 L 167.644531 264.878906 L 168.046875 279.585938 L 168.445312 254.703125 L 168.84375 266.101562 L 169.242188 269.042969 L 169.640625 269.066406 L 170.4375 269.066406 L 170.835938 262.601562 L 171.234375 234.128906 L 171.632812 268.097656 L 172.03125 270.742188 L 172.429688 263.480469 L 172.828125 262.675781 L 173.226562 262.675781 L 173.625 245.585938 L 174.023438 288.859375 L 174.421875 271.269531 L 174.820312 261.6875 L 175.21875 252.265625 L 175.617188 266.738281 L 176.015625 249.277344 L 176.414062 260.582031 L 176.8125 262.019531 L 177.210938 262.019531 L 177.609375 247.382812 L 178.007812 252.984375 L 178.40625 249.191406 L 178.808594 249.984375 L 180.003906 249.984375 L 180.402344 261.675781 L 180.800781 272.894531 L 181.597656 272.894531 L 181.996094 266.511719 L 182.394531 247.789062 L 182.792969 256.535156 L 183.191406 256.535156 L 183.589844 273.425781 L 183.988281 253.171875 L 184.386719 256.269531 L 184.785156 258.375 L 185.183594 269.460938 L 185.582031 216.785156 L 185.980469 267.074219 L 186.378906 227.613281 L 186.777344 271.070312 L 188.371094 271.070312 L 188.769531 243.6875 L 189.167969 245.40625 L 189.570312 231.21875 L 189.96875 244.867188 L 190.367188 238.476562 L 190.765625 253.339844 L 191.164062 252.226562 L 191.5625 256.019531 L 191.960938 232.0625 L 192.359375 231.148438 L 192.757812 234.28125 L 193.15625 253.527344 L 193.554688 256.742188 L 193.953125 222.378906 L 194.351562 255.402344 L 194.75 250.472656 L 195.148438 256.097656 L 195.546875 263.289062 L 195.945312 234.949219 L 196.34375 234.949219 L 196.742188 270.171875 L 197.140625 241.945312 L 197.539062 263.542969 L 199.929688 263.542969 L 200.328125 252.292969 L 200.730469 249.046875 L 201.128906 276.050781 L 201.925781 276.050781 L 202.324219 243.191406 L 202.722656 253.839844 L 203.121094 280.671875 L 203.519531 264.941406 L 203.917969 256.539062 L 204.316406 255.890625 L 204.714844 269.3125 L 205.113281 245.847656 L 205.511719 219.539062 L 205.910156 254.238281 L 206.308594 256.769531 L 206.707031 259.117188 L 207.105469 259.117188 L 207.503906 262.433594 L 207.902344 262.433594 L 208.300781 266.128906 L 208.699219 266.128906 L 209.097656 265.113281 L 209.496094 262.332031 L 209.894531 258.410156 L 210.292969 245.109375 L 211.089844 245.109375 L 211.492188 217.53125 L 212.289062 217.53125 L 212.6875 224.714844 L 213.085938 253.566406 L 213.484375 246.988281 L 213.882812 261.0625 L 214.28125 261.0625 L 214.679688 258.234375 L 215.875 258.234375 L 216.273438 248.328125 L 216.671875 248.328125 L 217.070312 268.34375 L 218.664062 268.34375 L 219.0625 273.625 L 219.460938 231.277344 L 219.859375 239.65625 L 220.257812 261.992188 L 220.65625 225.601562 L 221.054688 203.011719 L 221.453125 236.644531 L 221.851562 216.878906 L 222.253906 258.03125 L 222.652344 244.824219 L 223.050781 249.605469 L 223.449219 249.605469 L 223.847656 267.738281 L 224.246094 273.269531 L 224.644531 273.875 L 225.042969 254.128906 L 225.441406 274.023438 L 225.839844 272.945312 L 226.238281 238.601562 L 227.035156 238.601562 L 227.433594 206.765625 L 227.832031 192.566406 L 228.230469 192.566406 L 228.628906 232.273438 L 229.027344 241.710938 L 229.425781 215.714844 L 229.824219 229.695312 L 230.222656 223.980469 L 230.621094 275.25 L 231.019531 279.160156 L 231.417969 267.636719 L 231.816406 237.5 L 232.214844 226.074219 L 232.613281 228.078125 L 233.011719 255.792969 L 233.414062 255.792969 L 233.8125 248.015625 L 234.210938 248.015625 L 234.609375 241.863281 L 235.007812 270.371094 L 235.40625 266.015625 L 235.804688 222.707031 L 236.203125 276.832031 L 236.601562 276.832031 L 237 268.894531 L 237.398438 241.734375 L 237.796875 243.800781 L 238.195312 263.734375 L 238.59375 254.828125 L 238.992188 250.761719 L 239.390625 250.761719 L 239.789062 246.402344 L 240.1875 241 L 240.585938 252.890625 L 240.984375 267.316406 L 241.382812 237.984375 L 241.78125 237.984375 L 242.179688 262.820312 L 242.578125 262.820312 L 242.976562 245.285156 L 243.375 242.234375 L 244.175781 242.234375 L 244.574219 231.765625 L 244.972656 224.359375 L 245.371094 243.824219 L 245.769531 227.695312 L 246.167969 234.027344 L 246.566406 253.835938 L 246.964844 258.214844 L 247.363281 258.214844 L 247.761719 262.144531 L 248.160156 262.144531 L 248.558594 264.011719 L 248.957031 228.460938 L 249.355469 235.585938 L 249.753906 258.308594 L 250.152344 265 L 250.550781 265 L 250.949219 247.988281 L 251.347656 269.519531 L 251.746094 258.226562 L 252.144531 258.175781 L 252.542969 255.3125 L 252.941406 255.3125 L 253.339844 265.007812 L 253.738281 264.503906 L 254.136719 276.417969 L 254.535156 288.53125 L 254.9375 273.292969 L 255.335938 262.300781 L 255.734375 262.300781 L 256.132812 221.171875 L 256.53125 254.824219 L 256.929688 258.339844 L 257.328125 212.828125 L 257.726562 217.875 L 258.125 237.039062 L 258.523438 247.128906 L 258.921875 267.355469 L 259.71875 267.355469 L 260.117188 220.519531 L 260.515625 284.140625 L 260.914062 284.140625 L 261.3125 286.417969 L 261.710938 284.011719 L 262.109375 280.789062 L 262.507812 280.789062 L 262.90625 209.515625 L 263.304688 223.171875 L 263.703125 218.148438 L 264.101562 182.453125 L 264.5 250.976562 L 264.898438 269.789062 L 265.296875 271.507812 L 265.695312 243.289062 L 266.097656 259.90625 L 266.496094 244.015625 L 266.894531 242.695312 L 267.292969 270.242188 L 267.691406 270.242188 L 268.089844 235.5625 L 268.488281 272.503906 L 268.886719 272.503906 L 269.285156 249.171875 L 269.683594 214.78125 L 270.082031 210.4375 L 270.480469 208.804688 L 270.878906 255.25 L 271.277344 239.730469 L 271.675781 251.828125 L 272.074219 282.039062 L 272.472656 272.769531 L 272.871094 255.285156 L 273.269531 255.285156 L 273.667969 277.804688 L 274.066406 277.804688 L 274.464844 244.746094 L 275.261719 244.746094 L 275.660156 262.28125 L 276.058594 240.082031 L 276.457031 258.757812 L 276.859375 238.421875 L 277.257812 254.53125 L 277.65625 268.007812 L 278.054688 269.621094 L 278.453125 267.78125 L 278.851562 267.78125 L 279.25 273.582031 L 279.648438 266.457031 L 280.046875 227.398438 L 280.445312 245.738281 L 280.84375 245.738281 L 281.242188 248.035156 L 281.640625 247.992188 L 282.039062 258.367188 L 282.4375 269.578125 L 282.835938 269.578125 L 283.234375 236.140625 L 283.632812 272.542969 L 284.03125 271.847656 L 284.429688 271.847656 L 284.828125 244.546875 L 285.226562 274.582031 L 285.625 241.761719 L 286.023438 267.367188 L 286.421875 243.148438 L 286.820312 259.910156 L 287.21875 256.652344 L 287.617188 269.535156 L 288.019531 269.535156 L 288.417969 266.8125 L 288.816406 256.230469 L 289.214844 253.355469 L 289.613281 257.644531 L 290.011719 259.550781 L 290.410156 259.550781 L 290.808594 238.679688 L 291.207031 265.179688 L 292.003906 265.179688 L 292.402344 238.359375 L 292.800781 245.921875 L 293.199219 260.554688 L 293.597656 260.554688 L 293.996094 237.121094 L 294.394531 269.203125 L 294.792969 269.203125 L 295.191406 241.121094 L 295.589844 263.023438 L 295.988281 278.542969 L 296.386719 272.363281 L 296.785156 289.398438 L 297.183594 244.871094 L 297.582031 224.242188 L 297.980469 240.449219 L 298.378906 240.449219 L 298.78125 273.382812 L 299.179688 273.382812 L 299.578125 268.058594 L 299.976562 268.058594 L 300.375 269.898438 L 301.570312 269.898438 L 301.96875 275.609375 L 302.367188 275.609375 L 302.765625 258.699219 L 303.164062 277.757812 L 303.5625 217.800781 L 303.960938 223.5 L 304.359375 239.667969 L 304.757812 230.945312 L 305.15625 252.566406 L 305.554688 238.480469 L 305.953125 235.199219 L 306.351562 273.726562 L 306.75 281.796875 L 307.148438 229.835938 L 307.546875 233.445312 L 307.945312 254.847656 L 308.34375 258.542969 L 309.140625 258.542969 L 309.542969 267.339844 L 309.941406 256.339844 L 310.339844 256.339844 L 310.738281 235.617188 L 311.136719 259.0625 L 311.535156 259.0625 L 311.933594 272.011719 L 312.730469 272.011719 L 313.128906 217.871094 L 313.527344 232.316406 L 313.925781 232.316406 L 314.324219 265.851562 L 315.917969 265.851562 L 316.316406 255.390625 L 317.113281 255.390625 L 317.511719 244.40625 L 317.910156 236.742188 L 318.308594 236.742188 L 318.707031 239.335938 L 319.105469 239.335938 L 319.503906 239.445312 L 319.902344 263.589844 L 320.304688 257.585938 L 320.703125 247.726562 L 321.101562 221.230469 L 321.5 238.800781 L 321.898438 267.519531 L 322.296875 267.519531 L 322.695312 264.617188 L 323.09375 263.449219 L 323.492188 249.441406 L 323.890625 287.136719 L 324.289062 268.800781 L 324.6875 282.628906 L 325.085938 271.738281 L 326.28125 271.738281 L 326.679688 271.167969 L 327.078125 242.0625 L 327.476562 225.96875 L 327.875 248.984375 L 328.273438 248.742188 L 328.671875 248.203125 L 329.070312 248.203125 L 329.46875 228.339844 L 329.867188 228.339844 L 330.265625 243.296875 L 331.0625 243.296875 L 331.464844 247.59375 L 331.863281 229.621094 L 332.261719 229.621094 L 332.660156 243.980469 L 333.058594 265.507812 L 333.457031 272.125 L 333.855469 267.644531 L 334.253906 233.8125 L 334.652344 246.734375 L 335.050781 268.175781 L 335.449219 268.175781 L 335.847656 238.601562 L 336.246094 222.195312 L 336.644531 271.171875 L 337.042969 276.917969 L 337.441406 262.445312 L 337.839844 289.90625 L 338.238281 287.214844 L 338.636719 256.957031 L 339.035156 228.179688 L 339.433594 222.226562 L 339.832031 279.886719 L 340.230469 279.886719 L 340.628906 287.523438 L 341.027344 290.625 L 341.425781 219.332031 L 341.824219 235.96875 L 342.226562 280.660156 L 342.625 280.660156 L 343.023438 268.988281 L 343.421875 265.636719 L 343.820312 228.519531 L 344.21875 229.085938 L 344.617188 226.84375 L 345.015625 280.929688 L 345.414062 281.957031 L 345.8125 277.175781 L 346.210938 249.917969 L 346.609375 259.890625 L 347.007812 264.1875 L 347.40625 271.816406 L 348.203125 271.816406 L 348.601562 253.007812 L 349 246.445312 L 349.398438 268.445312 L 350.59375 268.445312 L 350.992188 274.4375 L 351.390625 275.007812 L 351.789062 279.640625 L 352.1875 289.960938 L 352.585938 289.960938 L 352.984375 277.722656 L 353.386719 277.722656 L 353.785156 276.445312 L 354.183594 235.816406 L 354.582031 268.703125 L 354.980469 226.90625 L 355.378906 226.90625 L 355.777344 224.917969 L 356.175781 222.773438 L 356.574219 222.773438 L 356.972656 250.46875 L 357.371094 250.089844 L 357.769531 250.089844 L 358.167969 274.941406 L 358.566406 271.847656 L 358.964844 268.398438 L 359.363281 245.917969 L 359.761719 250.773438 L 360.160156 264.949219 L 360.558594 264.949219 L 360.957031 256.035156 L 361.355469 255.191406 L 361.753906 243.992188 L 362.152344 243.992188 L 362.550781 272.421875 L 362.949219 252.125 L 363.347656 248.3125 L 363.746094 248.3125 L 364.148438 276.03125 L 364.546875 268.734375 L 364.945312 229.597656 L 365.34375 251.953125 L 365.742188 253.277344 L 366.140625 253.277344 L 366.539062 241.445312 L 366.9375 241.445312 L 367.335938 206.457031 L 367.734375 231.585938 L 368.132812 252.417969 L 368.53125 254.035156 L 368.929688 273.339844 L 369.328125 262.878906 L 369.726562 250.167969 L 370.125 259.046875 L 370.523438 263.808594 L 371.320312 263.808594 L 371.71875 250.859375 L 372.117188 256.625 L 372.515625 256.625 L 372.914062 259.164062 L 373.3125 259.164062 L 373.710938 252.96875 L 374.109375 257.53125 L 374.507812 227.953125 L 374.910156 261.042969 L 375.308594 282.285156 L 375.707031 278.621094 L 376.105469 282.085938 L 376.503906 276.070312 L 377.300781 276.070312 L 377.699219 291.546875 L 378.097656 258.414062 L 378.496094 258.003906 L 378.894531 259.335938 L 379.691406 259.335938 L 380.089844 234.34375 L 380.488281 222.75 L 380.886719 275.765625 L 381.285156 275.765625 L 381.683594 276.019531 L 382.082031 273.738281 L 382.480469 273.738281 L 382.878906 264.707031 L 383.675781 264.707031 L 384.074219 232.632812 L 384.472656 215.039062 L 384.871094 231.117188 L 385.269531 215.914062 L 385.671875 196.636719 L 386.070312 242.851562 L 386.46875 267.183594 L 386.867188 272.269531 L 387.265625 250.863281 L 387.664062 246.824219 L 388.0625 264.863281 L 388.460938 258.3125 L 388.859375 237.789062 L 389.257812 237.789062 L 389.65625 268.53125 L 390.054688 261.765625 L 390.453125 261.765625 L 390.851562 235.582031 L 391.25 248.636719 L 391.648438 252.464844 L 392.046875 279.050781 L 392.445312 268.917969 L 392.84375 264.007812 L 393.242188 238.242188 L 393.640625 245.617188 L 394.039062 226.359375 L 394.4375 220.117188 L 394.835938 269.84375 L 395.234375 250.941406 L 396.429688 250.941406 L 396.832031 262.191406 L 397.230469 262.191406 L 397.628906 276.734375 L 398.027344 276.734375 L 398.425781 227.386719 L 398.824219 232.230469 L 399.222656 252.359375 L 399.621094 271.234375 L 400.019531 247.804688 L 400.417969 279.296875 L 400.816406 265.175781 L 401.214844 277.457031 L 401.613281 235.1875 L 402.011719 230.804688 L 402.410156 270.402344 L 402.808594 270.402344 L 403.207031 266.953125 L 403.605469 288.058594 L 404.402344 288.058594 L 404.800781 270.828125 L 405.199219 251.40625 L 405.597656 242.5625 L 405.996094 249.078125 L 406.394531 242.25 L 406.792969 268.476562 L 407.191406 242.011719 L 407.59375 265.582031 L 407.992188 266.398438 L 408.390625 246.792969 L 408.789062 265.996094 L 409.1875 219.320312 L 409.585938 207.332031 L 409.984375 241.222656 L 410.382812 247.976562 L 410.78125 247.976562 L 411.179688 263.023438 L 411.578125 268.074219 L 411.976562 196.828125 L 412.375 275.527344 L 412.773438 275.527344 L 413.171875 221.0625 L 413.570312 246.730469 L 413.96875 246.730469 L 414.367188 251.757812 L 414.765625 225.960938 L 415.164062 233.917969 L 415.5625 248.628906 L 415.960938 245.039062 L 416.359375 245.039062 L 416.757812 235.460938 L 417.15625 235.460938 L 417.554688 216.144531 L 417.953125 284.453125 L 418.351562 270.261719 L 419.152344 270.261719 L 419.550781 254.964844 L 419.949219 261.058594 L 420.347656 244.917969 L 420.746094 236.234375 L 421.144531 240.1875 L 421.542969 260.609375 L 421.941406 259.640625 L 422.738281 259.640625 L 423.136719 254.003906 L 423.535156 246.175781 L 423.933594 234.855469 L 424.332031 258.433594 L 424.730469 240.992188 L 425.128906 240.992188 L 425.527344 247.414062 L 425.925781 247.414062 L 426.324219 234.003906 L 426.722656 196.925781 L 427.121094 288.722656 L 427.519531 269.503906 L 427.917969 269.503906 L 428.316406 277.738281 L 429.914062 277.738281 L 430.3125 265.402344 L 430.710938 252.222656 L 431.109375 278.972656 L 431.507812 274.871094 L 431.90625 274.871094 L 432.304688 255.941406 L 432.703125 230.707031 L 433.101562 276.113281 L 433.5 272.863281 L 433.898438 272.863281 L 434.296875 257.644531 L 434.695312 252.757812 L 435.09375 252.757812 L 435.492188 256.359375 L 435.890625 251.597656 L 436.289062 246.652344 L 436.6875 250.472656 L 437.085938 228.050781 L 437.484375 280.207031 L 437.882812 280.207031 L 438.28125 271.835938 L 438.679688 271.835938 L 439.078125 260.675781 L 439.476562 239.347656 L 439.875 271.652344 L 440.277344 271.652344 L 440.675781 276.886719 L 441.074219 241.183594 L 441.472656 241.183594 L 441.871094 229.15625 L 442.269531 242.273438 L 442.667969 242.273438 L 443.066406 253.890625 L 443.464844 250.285156 L 443.863281 270.304688 L 444.261719 228.832031 L 444.660156 248.652344 L 445.457031 248.652344 L 445.855469 267.214844 L 446.253906 238.964844 L 446.652344 254 L 447.050781 235.398438 L 447.449219 243.796875 L 447.847656 244.171875 L 448.246094 254.058594 L 448.644531 254.058594 L 449.042969 249.863281 L 449.441406 288.726562 L 449.839844 233.109375 L 450.238281 228.390625 L 450.636719 237.542969 L 451.039062 247.160156 L 451.4375 230.808594 L 451.835938 224.757812 L 452.234375 224.757812 L 452.632812 251.195312 L 453.03125 251.195312 L 453.429688 265.84375 L 453.828125 248.191406 L 454.226562 249.734375 L 454.625 249.734375 L 455.023438 246.070312 L 455.421875 246.070312 L 455.820312 239.804688 L 456.21875 233.304688 L 456.617188 248.804688 L 457.015625 259.464844 L 457.414062 267.027344 L 457.8125 270.925781 L 458.210938 279.976562 L 458.609375 233.71875 L 459.007812 258.253906 L 459.40625 249.027344 L 459.804688 254.914062 L 460.203125 258.585938 L 460.601562 255.113281 L 461 262.84375 L 461.398438 262.84375 L 461.796875 265.113281 L 462.199219 261.433594 L 462.597656 235.242188 L 462.996094 240.503906 L 463.394531 240.503906 L 463.792969 265.578125 L 464.191406 265.578125 L 464.589844 255.878906 L 464.988281 277.277344 L 465.386719 277.277344 L 465.785156 247.164062 L 466.183594 250.308594 L 466.582031 234.734375 L 466.980469 263.222656 L 467.378906 262.628906 L 467.777344 249.820312 L 468.175781 248.828125 L 468.574219 248.828125 L 468.972656 256.617188 L 469.371094 239.253906 L 469.769531 246.195312 L 470.167969 254.867188 L 470.566406 254.867188 L 470.964844 265.460938 L 471.363281 265.460938 L 471.761719 238.46875 L 472.160156 240.539062 L 472.558594 266.890625 L 472.960938 206.816406 L 473.359375 217.925781 L 473.757812 229.617188 L 474.15625 232.199219 L 474.554688 249.203125 L 474.953125 250.695312 L 475.351562 250.050781 L 475.75 252.691406 L 476.148438 252.691406 L 476.546875 244.550781 L 476.945312 244.550781 L 477.34375 267.992188 L 477.742188 267.992188 L 478.140625 228.527344 L 478.539062 255.613281 L 478.9375 248.8125 L 479.335938 240.414062 L 479.734375 266.289062 L 480.132812 241.457031 L 480.929688 241.457031 L 481.328125 251.5625 L 481.726562 235.5625 L 482.125 232.742188 L 482.523438 232.628906 L 482.921875 239.527344 L 483.320312 262.863281 L 483.71875 261.53125 L 484.121094 279.15625 L 484.519531 262.484375 L 484.917969 262.484375 L 485.316406 272.726562 L 485.714844 281.398438 L 486.113281 269.742188 L 486.511719 269.753906 L 486.910156 267.648438 L 487.308594 238.625 L 487.707031 261.101562 L 488.105469 246.789062 L 488.503906 261.847656 L 489.300781 261.847656 L 489.699219 253.269531 L 490.097656 250.195312 L 490.496094 250.195312 L 490.894531 254.625 L 491.292969 254.625 L 491.691406 277.378906 L 492.089844 269.21875 "/>
<path fill="none" stroke-width="1" stroke-linecap="butt" stroke-linejoin="miter" stroke="rgb(0%, 0%, 0%)" stroke-opacity="1" stroke-miterlimit="1.154701" d="M 93.511719 136.5 L 93.511719 141.5 "/>
<path fill="none" stroke-width="1" stroke-linecap="butt" stroke-linejoin="miter" stroke="rgb(0%, 0%, 0%)" stroke-opacity="1" stroke-miterlimit="1.154701" d="M 292.800781 136.5 L 292.800781 141.5 "/>
<path fill="none" stroke-width="1" stroke-linecap="butt" stroke-linejoin="miter" stroke="rgb(0%, 0%, 0%)" stroke-opacity="1" stroke-miterlimit="1.154701" d="M 492.089844 136.5 L 492.089844 141.5 "/>
<path fill="none" stroke-width="1" stroke-linecap="butt" stroke-linejoin="miter" stroke="rgb(0%, 0%, 0%)" stroke-opacity="1" stroke-miterlimit="1.154701" d="M 73.5 127.65625 L 68.5 127.65625 "/>
<path fill="none" stroke-width="1" stroke-linecap="butt" stroke-linejoin="miter" stroke="rgb(0%, 0%, 0%)" stroke-opacity="1" stroke-miterlimit="1.154701" d="M 73.5 94.550781 L 68.5 94.550781 "/>
<path fill="none" stroke-width="1" stroke-linecap="butt" stroke-linejoin="miter" stroke="rgb(0%, 0%, 0%)" stroke-opacity="1" stroke-miterlimit="1.154701" d="M 73.5 61.441406 L 68.5 61.441406 "/>
<path fill="none" stroke-width="1" stroke-linecap="butt" stroke-linejoin="miter" stroke="rgb(0%, 0%, 0%)" stroke-opacity="1" stroke-miterlimit="1.154701" d="M 73.5 28.335938 L 68.5 28.335938 "/>
<path fill="none" stroke-width="1" stroke-linecap="butt" stroke-linejoin="miter" stroke="rgb(0%, 0%, 0%)" stroke-opacity="1" stroke-miterlimit="1.154701" d="M 93.511719 297.5 L 93.511719 302.5 "/>
<path fill="none" stroke-width="1" stroke-linecap="butt" stroke-linejoin="miter" stroke="rgb(0%, 0%, 0%)" stroke-opacity="1" stroke-miterlimit="1.154701" d="M 292.800781 297.5 L 292.800781 302.5 "/>
<path fill="none" stroke-width="1" stroke-linecap="butt" stroke-linejoin="miter" stroke="rgb(0%, 0%, 0%)" stroke-opacity="1" stroke-miterlimit="1.154701" d="M 492.089844 297.5 L 492.089844 302.5 "/>
<path fill="none" stroke-width="1" stroke-linecap="butt" stroke-linejoin="miter" stroke="rgb(0%, 0%, 0%)" stroke-opacity="1" stroke-miterlimit="1.154701" d="M 73.5 278.09375 L 68.5 278.09375 "/>
<path fill="none" stroke-width="1" stroke-linecap="butt" stroke-linejoin="miter" stroke="rgb(0%, 0%, 0%)" stroke-opacity="1" stroke-miterlimit="1.154701" d="M 73.5 256.328125 L 68.5 256.328125 "/>
<path fill="none" stroke-width="1" stroke-linecap="butt" stroke-linejoin="miter" stroke="rgb(0%, 0%, 0%)" stroke-opacity="1" stroke-miterlimit="1.154701" d="M 73.5 234.5625 L 68.5 234.5625 "/>
<path fill="none" stroke-width="1" stroke-linecap="butt" stroke-linejoin="miter" stroke="rgb(0%, 0%, 0%)" stroke-opacity="1" stroke-miterlimit="1.154701" d="M 73.5 212.796875 L 68.5 212.796875 "/>
<path fill="none" stroke-width="1" stroke-linecap="butt" stroke-linejoin="miter" stroke="rgb(0%, 0%, 0%)" stroke-opacity="1" stroke-miterlimit="1.154701" d="M 73.5 191.03125 L 68.5 191.03125 "/>
<path fill="none" stroke-width="1" stroke-linecap="butt" stroke-linejoin="miter" stroke="rgb(0%, 0%, 0%)" stroke-opacity="1" stroke-miterlimit="1.154701" d="M 73.5 136 L 512.5 136 "/>
<path fill="none" stroke-width="1" stroke-linecap="butt" stroke-linejoin="miter" stroke="rgb(0%, 0%, 0%)" stroke-opacity="1" stroke-miterlimit="1.154701" d="M 74 136.5 L 74 15.5 "/>
<path fill="none" stroke-width="1" stroke-linecap="butt" stroke-linejoin="miter" stroke="rgb(0%, 0%, 0%)" stroke-opacity="1" stroke-miterlimit="1.154701" d="M 73.5 16 L 512.5 16 "/>
<path fill="none" stroke-width="1" stroke-linecap="butt" stroke-linejoin="miter" stroke="rgb(0%, 0%, 0%)" stroke-opacity="1" stroke-miterlimit="1.154701" d="M 512 136.5 L 512 15.5 "/>
<path fill="none" stroke-width="1" stroke-linecap="butt" stroke-linejoin="miter" stroke="rgb(0%, 0%, 0%)" stroke-opacity="1" stroke-miterlimit="1.154701" d="M 73.5 297 L 512.5 297 "/>
<path fill="none" stroke-width="1" stroke-linecap="butt" stroke-linejoin="miter" stroke="rgb(0%, 0%, 0%)" stroke-opacity="1" stroke-miterlimit="1.154701" d="M 74 297.5 L 74 176.5 "/>
<path fill="none" stroke-width="1" stroke-linecap="butt" stroke-linejoin="miter" stroke="rgb(0%, 0%, 0%)" stroke-opacity="1" stroke-miterlimit="1.154701" d="M 73.5 177 L 512.5 177 "/>
<path fill="none" stroke-width="1" stroke-linecap="butt" stroke-linejoin="miter" stroke="rgb(0%, 0%, 0%)" stroke-opacity="1" stroke-miterlimit="1.154701" d="M 512 297.5 L 512 176.5 "/>
</svg>
