<?xml version="1.0" encoding="UTF-8"?>
<svg xmlns="http://www.w3.org/2000/svg" xmlns:xlink="http://www.w3.org/1999/xlink" width="528" height="336" viewBox="0 0 528 336">
<defs>
<g>
<g id="glyph-0-0-2b0d3954">
<path d="M 8.296875 -9.0625 C 8.296875 -9.0625 4.953125 -9.0625 4.953125 -9.0625 C 4.953125 -9.0625 4.953125 0 4.953125 0 C 4.953125 0 3.65625 0 3.65625 0 C 3.65625 0 3.65625 -9.0625 3.65625 -9.0625 C 3.65625 -9.0625 0.296875 -9.0625 0.296875 -9.0625 C 0.296875 -9.0625 0.296875 -10.203125 0.296875 -10.203125 C 0.296875 -10.203125 8.296875 -10.203125 8.296875 -10.203125 C 8.296875 -10.203125 8.296875 -9.0625 8.296875 -9.0625 Z M 8.296875 -9.0625 "/>
</g>
<g id="glyph-0-1-2b0d3954">
<path d="M 4.5 -6.3125 C 2.6875 -6.28125 2.140625 -5.453125 2.140625 -3.8125 C 2.140625 -3.8125 2.140625 0 2.140625 0 C 2.140625 0 0.984375 0 0.984375 0 C 0.984375 0 0.984375 -7.34375 0.984375 -7.34375 C 0.984375 -7.34375 2.046875 -7.34375 2.046875 -7.34375 C 2.046875 -7.34375 2.046875 -6 2.046875 -6 C 2.71875 -7.09375 3.296875 -7.546875 4.046875 -7.546875 C 4.203125 -7.546875 4.296875 -7.53125 4.5 -7.5 C 4.5 -7.5 4.5 -6.3125 4.5 -6.3125 Z M 4.5 -6.3125 "/>
</g>
<g id="glyph-0-2-2b0d3954">
<path d="M 7.484375 -0.03125 C 7.109375 0.0625 6.9375 0.09375 6.6875 0.09375 C 6.125 0.09375 5.609375 -0.3125 5.484375 -0.875 C 4.84375 -0.1875 3.9375 0.203125 3 0.203125 C 1.515625 0.203125 0.59375 -0.578125 0.59375 -1.90625 C 0.59375 -2.796875 1.015625 -3.453125 1.875 -3.8125 C 2.328125 -3.984375 2.578125 -4.046875 4.234375 -4.25 C 5.15625 -4.375 5.453125 -4.578125 5.453125 -5.0625 C 5.453125 -5.0625 5.453125 -5.375 5.453125 -5.375 C 5.453125 -6.078125 4.859375 -6.46875 3.8125 -6.46875 C 2.71875 -6.46875 2.1875 -6.0625 2.09375 -5.171875 C 2.09375 -5.171875 0.90625 -5.171875 0.90625 -5.171875 C 0.984375 -6.859375 2.078125 -7.546875 3.84375 -7.546875 C 5.65625 -7.546875 6.609375 -6.84375 6.609375 -5.546875 C 6.609375 -5.546875 6.609375 -1.453125 6.609375 -1.453125 C 6.609375 -1.09375 6.828125 -0.875 7.234375 -0.875 C 7.3125 -0.875 7.359375 -0.875 7.484375 -0.90625 C 7.484375 -0.90625 7.484375 -0.03125 7.484375 -0.03125 Z M 5.453125 -2.53125 C 5.453125 -2.53125 5.453125 -3.625 5.453125 -3.625 C 5.046875 -3.4375 4.796875 -3.390625 3.5625 -3.21875 C 2.328125 -3.03125 1.8125 -2.703125 1.8125 -1.9375 C 1.8125 -1.140625 2.34375 -0.8125 3.25 -0.8125 C 4.375 -0.8125 5.453125 -1.484375 5.453125 -2.53125 Z M 5.453125 -2.53125 "/>
</g>
<g id="glyph-0-3-2b0d3954">
<path d="M 6.9375 0 C 6.9375 0 5.890625 0 5.890625 0 C 5.890625 0 5.890625 -1.078125 5.890625 -1.078125 C 5.265625 -0.171875 4.5625 0.203125 3.5625 0.203125 C 1.578125 0.203125 0.359375 -1.265625 0.359375 -3.734375 C 0.359375 -6.078125 1.609375 -7.546875 3.515625 -7.546875 C 4.5 -7.546875 5.28125 -7.15625 5.765625 -6.40625 C 5.765625 -6.40625 5.765625 -10.203125 5.765625 -10.203125 C 5.765625 -10.203125 6.9375 -10.203125 6.9375 -10.203125 C 6.9375 -10.203125 6.9375 0 6.9375 0 Z M 5.765625 -3.640625 C 5.765625 -5.328125 4.96875 -6.453125 3.703125 -6.453125 C 2.4375 -6.453125 1.578125 -5.375 1.578125 -3.671875 C 1.578125 -1.953125 2.4375 -0.875 3.71875 -0.875 C 4.953125 -0.875 5.765625 -1.953125 5.765625 -3.640625 Z M 5.765625 -3.640625 "/>
</g>
<g id="glyph-0-4-2b0d3954">
<path d="M 2.140625 0 C 2.140625 0 0.984375 0 0.984375 0 C 0.984375 0 0.984375 -7.34375 0.984375 -7.34375 C 0.984375 -7.34375 2.140625 -7.34375 2.140625 -7.34375 C 2.140625 -7.34375 2.140625 0 2.140625 0 Z M 2.296875 -8.4375 C 2.296875 -8.4375 0.84375 -8.4375 0.84375 -8.4375 C 0.84375 -8.4375 0.84375 -9.890625 0.84375 -9.890625 C 0.84375 -9.890625 2.296875 -9.890625 2.296875 -9.890625 C 2.296875 -9.890625 2.296875 -8.4375 2.296875 -8.4375 Z M 2.296875 -8.4375 "/>
</g>
<g id="glyph-0-5-2b0d3954">
<path d="M 6.8125 0 C 6.8125 0 5.65625 0 5.65625 0 C 5.65625 0 5.65625 -5.078125 5.65625 -5.078125 C 5.65625 -5.96875 5.0625 -6.53125 4.140625 -6.53125 C 2.953125 -6.53125 2.140625 -5.546875 2.140625 -4.046875 C 2.140625 -4.046875 2.140625 0 2.140625 0 C 2.140625 0 0.984375 0 0.984375 0 C 0.984375 0 0.984375 -7.34375 0.984375 -7.34375 C 0.984375 -7.34375 2.0625 -7.34375 2.0625 -7.34375 C 2.0625 -7.34375 2.0625 -6.109375 2.0625 -6.109375 C 2.703125 -7.125 3.40625 -7.546875 4.5 -7.546875 C 5.90625 -7.546875 6.8125 -6.765625 6.8125 -5.546875 C 6.8125 -5.546875 6.8125 0 6.8125 0 Z M 6.8125 0 "/>
</g>
<g id="glyph-0-6-2b0d3954">
<path d="M 6.84375 -1.203125 C 6.84375 2.03125 5.859375 3.046875 3.5625 3.046875 C 1.84375 3.046875 0.765625 2.21875 0.640625 0.84375 C 0.640625 0.84375 1.828125 0.84375 1.828125 0.84375 C 1.96875 1.734375 2.6875 2.078125 3.609375 2.078125 C 4.96875 2.078125 5.765625 1.328125 5.765625 -0.609375 C 5.765625 -0.609375 5.765625 -1.109375 5.765625 -1.109375 C 5 -0.1875 4.359375 0.203125 3.4375 0.203125 C 1.703125 0.203125 0.40625 -1.28125 0.40625 -3.59375 C 0.40625 -5.984375 1.671875 -7.546875 3.53125 -7.546875 C 4.46875 -7.546875 5.1875 -7.140625 5.765625 -6.265625 C 5.765625 -6.265625 5.765625 -7.34375 5.765625 -7.34375 C 5.765625 -7.34375 6.84375 -7.34375 6.84375 -7.34375 C 6.84375 -7.34375 6.84375 -1.203125 6.84375 -1.203125 Z M 5.65625 -3.625 C 5.65625 -5.40625 4.90625 -6.46875 3.65625 -6.46875 C 2.40625 -6.46875 1.625 -5.4375 1.625 -3.671875 C 1.625 -1.890625 2.390625 -0.875 3.671875 -0.875 C 4.90625 -0.875 5.65625 -1.875 5.65625 -3.625 Z M 5.65625 -3.625 "/>
</g>
<g id="glyph-0-7-2b0d3954">
<path d="M 6.6875 -7.34375 C 6.6875 -7.34375 3.4375 1.546875 3.4375 1.546875 C 3.03125 2.59375 2.359375 3.046875 1.546875 3.046875 C 1.234375 3.046875 1 3 0.75 2.875 C 0.75 2.875 0.75 1.8125 0.75 1.8125 C 1.015625 1.875 1.203125 1.90625 1.375 1.90625 C 1.875 1.90625 2.109375 1.703125 2.3125 1.1875 C 2.3125 1.1875 2.765625 0.03125 2.765625 0.03125 C 2.765625 0.03125 0.28125 -7.34375 0.28125 -7.34375 C 0.28125 -7.34375 1.53125 -7.34375 1.53125 -7.34375 C 1.53125 -7.34375 3.40625 -1.625 3.40625 -1.625 C 3.40625 -1.625 5.4375 -7.34375 5.4375 -7.34375 C 5.4375 -7.34375 6.6875 -7.34375 6.6875 -7.34375 Z M 6.6875 -7.34375 "/>
</g>
<g id="glyph-0-8-2b0d3954">
<path d="M 6.421875 -2.0625 C 6.421875 -0.640625 5.25 0.203125 3.40625 0.203125 C 1.484375 0.203125 0.53125 -0.546875 0.46875 -2.234375 C 0.46875 -2.234375 1.703125 -2.234375 1.703125 -2.234375 C 1.859375 -1.125 2.453125 -0.875 3.5 -0.875 C 4.515625 -0.875 5.203125 -1.28125 5.203125 -1.953125 C 5.203125 -2.484375 4.890625 -2.734375 4.078125 -2.921875 C 4.078125 -2.921875 2.984375 -3.1875 2.984375 -3.1875 C 1.25 -3.609375 0.65625 -4.15625 0.65625 -5.3125 C 0.65625 -6.65625 1.765625 -7.546875 3.46875 -7.546875 C 5.171875 -7.546875 6.125 -6.734375 6.125 -5.296875 C 6.125 -5.296875 4.90625 -5.296875 4.90625 -5.296875 C 4.875 -6.0625 4.375 -6.46875 3.4375 -6.46875 C 2.484375 -6.46875 1.875 -6.03125 1.875 -5.359375 C 1.875 -4.84375 2.28125 -4.53125 3.234375 -4.3125 C 3.234375 -4.3125 4.359375 -4.046875 4.359375 -4.046875 C 5.8125 -3.703125 6.421875 -3.15625 6.421875 -2.0625 Z M 6.421875 -2.0625 "/>
</g>
<g id="glyph-0-9-2b0d3954">
<path d="M 7.09375 -4.78125 C 7.09375 -1.515625 5.953125 0.203125 3.84375 0.203125 C 1.71875 0.203125 0.609375 -1.515625 0.609375 -4.859375 C 0.609375 -8.1875 1.703125 -9.921875 3.84375 -9.921875 C 6 -9.921875 7.09375 -8.21875 7.09375 -4.78125 Z M 5.84375 -4.890625 C 5.84375 -7.546875 5.1875 -8.828125 3.84375 -8.828125 C 2.515625 -8.828125 1.859375 -7.5625 1.859375 -4.84375 C 1.859375 -2.125 2.515625 -0.8125 3.828125 -0.8125 C 5.1875 -0.8125 5.84375 -2.078125 5.84375 -4.890625 Z M 5.84375 -4.890625 "/>
</g>
<g id="glyph-0-10-2b0d3954">
<path d="M 4.859375 0 C 4.859375 0 3.625 0 3.625 0 C 3.625 0 3.625 -7.0625 3.625 -7.0625 C 3.625 -7.0625 1.421875 -7.0625 1.421875 -7.0625 C 1.421875 -7.0625 1.421875 -7.953125 1.421875 -7.953125 C 3.328125 -8.1875 3.609375 -8.40625 4.046875 -9.921875 C 4.046875 -9.921875 4.859375 -9.921875 4.859375 -9.921875 C 4.859375 -9.921875 4.859375 0 4.859375 0 Z M 4.859375 0 "/>
</g>
<g id="glyph-0-11-2b0d3954">
<path d="M 7.15625 -7.015625 C 7.15625 -5.796875 6.4375 -4.765625 5.046875 -4.015625 C 5.046875 -4.015625 3.65625 -3.265625 3.65625 -3.265625 C 2.4375 -2.546875 1.984375 -2.03125 1.859375 -1.21875 C 1.859375 -1.21875 7.078125 -1.21875 7.078125 -1.21875 C 7.078125 -1.21875 7.078125 0 7.078125 0 C 7.078125 0 0.46875 0 0.46875 0 C 0.59375 -2.1875 1.1875 -3.125 3.265625 -4.296875 C 3.265625 -4.296875 4.546875 -5.03125 4.546875 -5.03125 C 5.4375 -5.53125 5.890625 -6.203125 5.890625 -6.984375 C 5.890625 -8.046875 5.046875 -8.84375 3.9375 -8.84375 C 2.71875 -8.84375 2.03125 -8.140625 1.9375 -6.484375 C 1.9375 -6.484375 0.703125 -6.484375 0.703125 -6.484375 C 0.765625 -8.890625 1.953125 -9.921875 3.96875 -9.921875 C 5.859375 -9.921875 7.15625 -8.6875 7.15625 -7.015625 Z M 7.15625 -7.015625 "/>
</g>
<g id="glyph-0-12-2b0d3954">
<path d="M 2.671875 0 C 2.671875 0 1.21875 0 1.21875 0 C 1.21875 0 1.21875 -1.453125 1.21875 -1.453125 C 1.21875 -1.453125 2.671875 -1.453125 2.671875 -1.453125 C 2.671875 -1.453125 2.671875 0 2.671875 0 Z M 2.671875 0 "/>
</g>
<g id="glyph-0-13-2b0d3954">
<path d="M 7.1875 -3.296875 C 7.1875 -1.1875 5.78125 0.203125 3.78125 0.203125 C 2.015625 0.203125 0.890625 -0.578125 0.484375 -2.546875 C 0.484375 -2.546875 1.71875 -2.546875 1.71875 -2.546875 C 2.015625 -1.421875 2.671875 -0.875 3.75 -0.875 C 5.09375 -0.875 5.921875 -1.6875 5.921875 -3.125 C 5.921875 -4.59375 5.078125 -5.453125 3.75 -5.453125 C 2.984375 -5.453125 2.5 -5.203125 1.9375 -4.515625 C 1.9375 -4.515625 0.796875 -4.515625 0.796875 -4.515625 C 0.796875 -4.515625 1.546875 -9.71875 1.546875 -9.71875 C 1.546875 -9.71875 6.65625 -9.71875 6.65625 -9.71875 C 6.65625 -9.71875 6.65625 -8.5 6.65625 -8.5 C 6.65625 -8.5 2.53125 -8.5 2.53125 -8.5 C 2.53125 -8.5 2.140625 -5.9375 2.140625 -5.9375 C 2.71875 -6.359375 3.28125 -6.53125 3.96875 -6.53125 C 5.875 -6.53125 7.1875 -5.25 7.1875 -3.296875 Z M 7.1875 -3.296875 "/>
</g>
<g id="glyph-0-14-2b0d3954">
<path d="M 7.078125 -2.890625 C 7.078125 -1.015625 5.765625 0.203125 3.71875 0.203125 C 1.6875 0.203125 0.609375 -0.78125 0.453125 -3 C 0.453125 -3 1.6875 -3 1.6875 -3 C 1.765625 -1.546875 2.421875 -0.875 3.765625 -0.875 C 5.046875 -0.875 5.828125 -1.625 5.828125 -2.875 C 5.828125 -3.96875 5.125 -4.625 3.765625 -4.625 C 3.765625 -4.625 3.09375 -4.625 3.09375 -4.625 C 3.09375 -4.625 3.09375 -5.65625 3.09375 -5.65625 C 5.0625 -5.65625 5.53125 -6.09375 5.53125 -7.15625 C 5.53125 -8.203125 4.875 -8.84375 3.78125 -8.84375 C 2.515625 -8.84375 1.921875 -8.1875 1.890625 -6.71875 C 1.890625 -6.71875 0.65625 -6.71875 0.65625 -6.71875 C 0.703125 -8.828125 1.765625 -9.921875 3.765625 -9.921875 C 5.65625 -9.921875 6.796875 -8.90625 6.796875 -7.203125 C 6.796875 -6.203125 6.328125 -5.5625 5.40625 -5.1875 C 6.59375 -4.78125 7.078125 -4.09375 7.078125 -2.890625 Z M 7.078125 -2.890625 "/>
</g>
<g id="glyph-0-15-2b0d3954">
<path d="M 7.28125 -2.375 C 7.28125 -2.375 5.8125 -2.375 5.8125 -2.375 C 5.8125 -2.375 5.8125 0 5.8125 0 C 5.8125 0 4.578125 0 4.578125 0 C 4.578125 0 4.578125 -2.375 4.578125 -2.375 C 4.578125 -2.375 0.390625 -2.375 0.390625 -2.375 C 0.390625 -2.375 0.390625 -3.6875 0.390625 -3.6875 C 0.390625 -3.6875 4.90625 -9.921875 4.90625 -9.921875 C 4.90625 -9.921875 5.8125 -9.921875 5.8125 -9.921875 C 5.8125 -9.921875 5.8125 -3.484375 5.8125 -3.484375 C 5.8125 -3.484375 7.28125 -3.484375 7.28125 -3.484375 C 7.28125 -3.484375 7.28125 -2.375 7.28125 -2.375 Z M 4.578125 -3.484375 C 4.578125 -3.484375 4.578125 -7.828125 4.578125 -7.828125 C 4.578125 -7.828125 1.46875 -3.484375 1.46875 -3.484375 C 1.46875 -3.484375 4.578125 -3.484375 4.578125 -3.484375 Z M 4.578125 -3.484375 "/>
</g>
<g id="glyph-0-16-2b0d3954">
<path d="M 3.5625 0 C 3.15625 0.0625 2.890625 0.09375 2.609375 0.09375 C 1.6875 0.09375 1.1875 -0.328125 1.1875 -1.0625 C 1.1875 -1.0625 1.1875 -6.390625 1.1875 -6.390625 C 1.1875 -6.390625 0.203125 -6.390625 0.203125 -6.390625 C 0.203125 -6.390625 0.203125 -7.34375 0.203125 -7.34375 C 0.203125 -7.34375 1.1875 -7.34375 1.1875 -7.34375 C 1.1875 -7.34375 1.1875 -9.359375 1.1875 -9.359375 C 1.1875 -9.359375 2.359375 -9.359375 2.359375 -9.359375 C 2.359375 -9.359375 2.359375 -7.34375 2.359375 -7.34375 C 2.359375 -7.34375 3.5625 -7.34375 3.5625 -7.34375 C 3.5625 -7.34375 3.5625 -6.390625 3.5625 -6.390625 C 3.5625 -6.390625 2.359375 -6.390625 2.359375 -6.390625 C 2.359375 -6.390625 2.359375 -1.578125 2.359375 -1.578125 C 2.359375 -1.0625 2.484375 -0.921875 3 -0.921875 C 3.21875 -0.921875 3.40625 -0.9375 3.5625 -0.984375 C 3.5625 -0.984375 3.5625 0 3.5625 0 Z M 3.5625 0 "/>
</g>
<g id="glyph-0-17-2b0d3954">
<path d="M 6.796875 0 C 6.796875 0 5.640625 0 5.640625 0 C 5.640625 0 5.640625 -5.078125 5.640625 -5.078125 C 5.640625 -6.046875 4.953125 -6.53125 4.125 -6.53125 C 2.921875 -6.53125 2.140625 -5.546875 2.140625 -4.046875 C 2.140625 -4.046875 2.140625 0 2.140625 0 C 2.140625 0 0.984375 0 0.984375 0 C 0.984375 0 0.984375 -10.203125 0.984375 -10.203125 C 0.984375 -10.203125 2.140625 -10.203125 2.140625 -10.203125 C 2.140625 -10.203125 2.140625 -6.328125 2.140625 -6.328125 C 2.828125 -7.21875 3.453125 -7.546875 4.5 -7.546875 C 5.921875 -7.546875 6.796875 -6.78125 6.796875 -5.546875 C 6.796875 -5.546875 6.796875 0 6.796875 0 Z M 6.796875 0 "/>
</g>
<g id="glyph-0-18-2b0d3954">
<path d="M 7.765625 -3.359375 C 7.765625 -3.359375 0 -3.359375 0 -3.359375 C 0 -3.359375 0 -4.375 0 -4.375 C 0 -4.375 7.765625 -4.375 7.765625 -4.375 C 7.765625 -4.375 7.765625 -3.359375 7.765625 -3.359375 Z M 7.765625 -3.359375 "/>
</g>
<g id="glyph-0-19-2b0d3954">
<path d="M 7.28125 -8.6875 C 5.1875 -6.203125 3.796875 -3.203125 3.25 0 C 3.25 0 1.9375 0 1.9375 0 C 2.625 -3.109375 4.03125 -6 6 -8.5 C 6 -8.5 0.640625 -8.5 0.640625 -8.5 C 0.640625 -8.5 0.640625 -9.71875 0.640625 -9.71875 C 0.640625 -9.71875 7.28125 -9.71875 7.28125 -9.71875 C 7.28125 -9.71875 7.28125 -8.6875 7.28125 -8.6875 Z M 7.28125 -8.6875 "/>
</g>
<g id="glyph-0-20-2b0d3954">
</g>
<g id="glyph-0-21-2b0d3954">
<path d="M 7.328125 -3.59375 C 7.328125 -1.265625 6.078125 0.203125 4.1875 0.203125 C 3.234375 0.203125 2.546875 -0.125 1.9375 -0.875 C 1.9375 -0.875 1.9375 3.046875 1.9375 3.046875 C 1.9375 3.046875 0.765625 3.046875 0.765625 3.046875 C 0.765625 3.046875 0.765625 -7.34375 0.765625 -7.34375 C 0.765625 -7.34375 1.828125 -7.34375 1.828125 -7.34375 C 1.828125 -7.34375 1.828125 -6.234375 1.828125 -6.234375 C 2.375 -7.09375 3.171875 -7.546875 4.171875 -7.546875 C 6.125 -7.546875 7.328125 -6.0625 7.328125 -3.59375 Z M 6.109375 -3.625 C 6.109375 -5.375 5.265625 -6.453125 3.96875 -6.453125 C 2.75 -6.453125 1.9375 -5.328125 1.9375 -3.609375 C 1.9375 -1.890625 2.75 -0.875 3.96875 -0.875 C 5.25 -0.875 6.109375 -1.953125 6.109375 -3.625 Z M 6.109375 -3.625 "/>
</g>
<g id="glyph-0-22-2b0d3954">
<path d="M 7.1875 -3.328125 C 7.1875 -3.328125 1.78125 -3.328125 1.78125 -3.328125 C 1.8125 -1.65625 2.71875 -0.875 3.9375 -0.875 C 4.875 -0.875 5.53125 -1.265625 5.859375 -2.21875 C 5.859375 -2.21875 7.03125 -2.21875 7.03125 -2.21875 C 6.734375 -0.734375 5.578125 0.203125 3.890625 0.203125 C 1.828125 0.203125 0.5625 -1.21875 0.5625 -3.625 C 0.5625 -6.03125 1.875 -7.546875 3.921875 -7.546875 C 5.296875 -7.546875 6.40625 -6.8125 6.890625 -5.609375 C 7.09375 -5.0625 7.1875 -4.390625 7.1875 -3.328125 Z M 5.9375 -4.375 C 5.9375 -5.515625 5.046875 -6.46875 3.90625 -6.46875 C 2.734375 -6.46875 1.90625 -5.59375 1.8125 -4.28125 C 1.8125 -4.28125 5.921875 -4.28125 5.921875 -4.28125 C 5.9375 -4.3125 5.9375 -4.375 5.9375 -4.375 Z M 5.9375 -4.375 "/>
</g>
<g id="glyph-0-23-2b0d3954">
<path d="M 6.671875 -2.515625 C 6.53125 -0.84375 5.4375 0.203125 3.6875 0.203125 C 1.6875 0.203125 0.4375 -1.234375 0.4375 -3.59375 C 0.4375 -6.03125 1.71875 -7.546875 3.703125 -7.546875 C 5.328125 -7.546875 6.453125 -6.65625 6.59375 -4.875 C 6.59375 -4.875 5.421875 -4.875 5.421875 -4.875 C 5.28125 -5.890625 4.65625 -6.46875 3.6875 -6.46875 C 2.40625 -6.46875 1.65625 -5.4375 1.65625 -3.59375 C 1.65625 -1.859375 2.421875 -0.875 3.703125 -0.875 C 4.703125 -0.875 5.3125 -1.34375 5.5 -2.515625 C 5.5 -2.515625 6.671875 -2.515625 6.671875 -2.515625 Z M 6.671875 -2.515625 "/>
</g>
<g id="glyph-0-24-2b0d3954">
<path d="M 2.109375 0 C 2.109375 0 0.953125 0 0.953125 0 C 0.953125 0 0.953125 -10.203125 0.953125 -10.203125 C 0.953125 -10.203125 2.109375 -10.203125 2.109375 -10.203125 C 2.109375 -10.203125 2.109375 0 2.109375 0 Z M 2.109375 0 "/>
</g>
<g id="glyph-0-25-2b0d3954">
<path d="M 10.65625 0 C 10.65625 0 9.421875 0 9.421875 0 C 9.421875 0 9.421875 -8.546875 9.421875 -8.546875 C 9.421875 -8.546875 6.546875 0 6.546875 0 C 6.546875 0 5.1875 0 5.1875 0 C 5.1875 0 2.28125 -8.546875 2.28125 -8.546875 C 2.28125 -8.546875 2.28125 0 2.28125 0 C 2.28125 0 1.046875 0 1.046875 0 C 1.046875 0 1.046875 -10.203125 1.046875 -10.203125 C 1.046875 -10.203125 2.859375 -10.203125 2.859375 -10.203125 C 2.859375 -10.203125 5.875 -1.3125 5.875 -1.3125 C 5.875 -1.3125 8.84375 -10.203125 8.84375 -10.203125 C 8.84375 -10.203125 10.65625 -10.203125 10.65625 -10.203125 C 10.65625 -10.203125 10.65625 0 10.65625 0 Z M 10.65625 0 "/>
</g>
<g id="glyph-1-0-2b0d3954">
<path d="M -10.203125 -9.03125 C -10.203125 -9.03125 0 -5.484375 0 -5.484375 C 0 -5.484375 0 -4.09375 0 -4.09375 C 0 -4.09375 -10.203125 -0.421875 -10.203125 -0.421875 C -10.203125 -0.421875 -10.203125 -1.8125 -10.203125 -1.8125 C -10.203125 -1.8125 -1.5625 -4.8125 -1.5625 -4.8125 C -1.5625 -4.8125 -10.203125 -7.640625 -10.203125 -7.640625 C -10.203125 -7.640625 -10.203125 -9.03125 -10.203125 -9.03125 Z M -10.203125 -9.03125 "/>
</g>
<g id="glyph-1-1-2b0d3954">
<path d="M -0.03125 -7.484375 C 0.0625 -7.109375 0.09375 -6.9375 0.09375 -6.6875 C 0.09375 -6.125 -0.3125 -5.609375 -0.875 -5.484375 C -0.1875 -4.84375 0.203125 -3.9375 0.203125 -3 C 0.203125 -1.515625 -0.578125 -0.59375 -1.90625 -0.59375 C -2.796875 -0.59375 -3.453125 -1.015625 -3.8125 -1.875 C -3.984375 -2.328125 -4.046875 -2.578125 -4.25 -4.234375 C -4.375 -5.15625 -4.578125 -5.453125 -5.0625 -5.453125 C -5.0625 -5.453125 -5.375 -5.453125 -5.375 -5.453125 C -6.078125 -5.453125 -6.46875 -4.859375 -6.46875 -3.8125 C -6.46875 -2.71875 -6.0625 -2.1875 -5.171875 -2.09375 C -5.171875 -2.09375 -5.171875 -0.90625 -5.171875 -0.90625 C -6.859375 -0.984375 -7.546875 -2.078125 -7.546875 -3.84375 C -7.546875 -5.65625 -6.84375 -6.609375 -5.546875 -6.609375 C -5.546875 -6.609375 -1.453125 -6.609375 -1.453125 -6.609375 C -1.09375 -6.609375 -0.875 -6.828125 -0.875 -7.234375 C -0.875 -7.3125 -0.875 -7.359375 -0.90625 -7.484375 C -0.90625 -7.484375 -0.03125 -7.484375 -0.03125 -7.484375 Z M -2.53125 -5.453125 C -2.53125 -5.453125 -3.625 -5.453125 -3.625 -5.453125 C -3.4375 -5.046875 -3.390625 -4.796875 -3.21875 -3.5625 C -3.03125 -2.328125 -2.703125 -1.8125 -1.9375 -1.8125 C -1.140625 -1.8125 -0.8125 -2.34375 -0.8125 -3.25 C -0.8125 -4.375 -1.484375 -5.453125 -2.53125 -5.453125 Z M -2.53125 -5.453125 "/>
</g>
<g id="glyph-1-2-2b0d3954">
<path d="M 0 -2.140625 C 0 -2.140625 0 -0.984375 0 -0.984375 C 0 -0.984375 -7.34375 -0.984375 -7.34375 -0.984375 C -7.34375 -0.984375 -7.34375 -2.140625 -7.34375 -2.140625 C -7.34375 -2.140625 0 -2.140625 0 -2.140625 Z M -8.4375 -2.296875 C -8.4375 -2.296875 -8.4375 -0.84375 -8.4375 -0.84375 C -8.4375 -0.84375 -9.890625 -0.84375 -9.890625 -0.84375 C -9.890625 -0.84375 -9.890625 -2.296875 -9.890625 -2.296875 C -9.890625 -2.296875 -8.4375 -2.296875 -8.4375 -2.296875 Z M -8.4375 -2.296875 "/>
</g>
<g id="glyph-2-0-2b0d3954">
<path d="M -3.609375 -7.140625 C -1.203125 -7.140625 0.203125 -5.875 0.203125 -3.828125 C 0.203125 -1.734375 -1.203125 -0.5 -3.671875 -0.5 C -6.125 -0.5 -7.546875 -1.75 -7.546875 -3.8125 C -7.546875 -5.921875 -6.140625 -7.140625 -3.609375 -7.140625 Z M -3.625 -5.921875 C -5.453125 -5.921875 -6.46875 -5.140625 -6.46875 -3.828125 C -6.46875 -2.515625 -5.4375 -1.71875 -3.671875 -1.71875 C -1.890625 -1.71875 -0.875 -2.515625 -0.875 -3.828125 C -0.875 -5.109375 -1.90625 -5.921875 -3.625 -5.921875 Z M -3.625 -5.921875 "/>
</g>
<g id="glyph-2-1-2b0d3954">
<path d="M 0 -2.109375 C 0 -2.109375 0 -0.953125 0 -0.953125 C 0 -0.953125 -10.203125 -0.953125 -10.203125 -0.953125 C -10.203125 -0.953125 -10.203125 -2.109375 -10.203125 -2.109375 C -10.203125 -2.109375 0 -2.109375 0 -2.109375 Z M 0 -2.109375 "/>
</g>
<g id="glyph-2-2-2b0d3954">
<path d="M 0 -3.5625 C 0.0625 -3.15625 0.09375 -2.890625 0.09375 -2.609375 C 0.09375 -1.6875 -0.328125 -1.1875 -1.0625 -1.1875 C -1.0625 -1.1875 -6.390625 -1.1875 -6.390625 -1.1875 C -6.390625 -1.1875 -6.390625 -0.203125 -6.390625 -0.203125 C -6.390625 -0.203125 -7.34375 -0.203125 -7.34375 -0.203125 C -7.34375 -0.203125 -7.34375 -1.1875 -7.34375 -1.1875 C -7.34375 -1.1875 -9.359375 -1.1875 -9.359375 -1.1875 C -9.359375 -1.1875 -9.359375 -2.359375 -9.359375 -2.359375 C -9.359375 -2.359375 -7.34375 -2.359375 -7.34375 -2.359375 C -7.34375 -2.359375 -7.34375 -3.5625 -7.34375 -3.5625 C -7.34375 -3.5625 -6.390625 -3.5625 -6.390625 -3.5625 C -6.390625 -3.5625 -6.390625 -2.359375 -6.390625 -2.359375 C -6.390625 -2.359375 -1.578125 -2.359375 -1.578125 -2.359375 C -1.0625 -2.359375 -0.921875 -2.484375 -0.921875 -3 C -0.921875 -3.21875 -0.9375 -3.40625 -0.984375 -3.5625 C -0.984375 -3.5625 0 -3.5625 0 -3.5625 Z M 0 -3.5625 "/>
</g>
<g id="glyph-3-0-2b0d3954">
<path d="M 0 -2.140625 C 0 -2.140625 0 -0.984375 0 -0.984375 C 0 -0.984375 -7.34375 -0.984375 -7.34375 -0.984375 C -7.34375 -0.984375 -7.34375 -2.140625 -7.34375 -2.140625 C -7.34375 -2.140625 0 -2.140625 0 -2.140625 Z M -8.4375 -2.296875 C -8.4375 -2.296875 -8.4375 -0.84375 -8.4375 -0.84375 C -8.4375 -0.84375 -9.890625 -0.84375 -9.890625 -0.84375 C -9.890625 -0.84375 -9.890625 -2.296875 -9.890625 -2.296875 C -9.890625 -2.296875 -8.4375 -2.296875 -8.4375 -2.296875 Z M -8.4375 -2.296875 "/>
</g>
<g id="glyph-4-0-2b0d3954">
<path d="M -7.34375 -6.6875 C -7.34375 -6.6875 1.546875 -3.4375 1.546875 -3.4375 C 2.59375 -3.03125 3.046875 -2.359375 3.046875 -1.546875 C 3.046875 -1.234375 3 -1 2.875 -0.75 C 2.875 -0.75 1.8125 -0.75 1.8125 -0.75 C 1.875 -1.015625 1.90625 -1.203125 1.90625 -1.375 C 1.90625 -1.875 1.703125 -2.109375 1.1875 -2.3125 C 1.1875 -2.3125 0.03125 -2.765625 0.03125 -2.765625 C 0.03125 -2.765625 -7.34375 -0.28125 -7.34375 -0.28125 C -7.34375 -0.28125 -7.34375 -1.53125 -7.34375 -1.53125 C -7.34375 -1.53125 -1.625 -3.40625 -1.625 -3.40625 C -1.625 -3.40625 -7.34375 -5.4375 -7.34375 -5.4375 C -7.34375 -5.4375 -7.34375 -6.6875 -7.34375 -6.6875 Z M -7.34375 -6.6875 "/>
</g>
<g id="glyph-5-0-2b0d3954">
<path d="M 9.953125 0 C 9.953125 0 8.6875 0 8.6875 0 C 8.6875 0 8.4375 -1.40625 8.4375 -1.40625 C 7.65625 -0.328125 6.734375 0.171875 5.359375 0.171875 C 2.609375 0.171875 0.59375 -2.015625 0.59375 -5.109375 C 0.59375 -8.28125 2.59375 -10.375 5.53125 -10.375 C 8 -10.375 9.703125 -9.046875 9.953125 -6.9375 C 9.953125 -6.9375 7.984375 -6.9375 7.984375 -6.9375 C 7.578125 -8.140625 6.6875 -8.578125 5.546875 -8.578125 C 3.765625 -8.578125 2.6875 -7.34375 2.6875 -5.140625 C 2.6875 -3.03125 3.90625 -1.625 5.59375 -1.625 C 6.84375 -1.625 8.046875 -2.46875 8.1875 -3.734375 C 8.1875 -3.734375 5.859375 -3.734375 5.859375 -3.734375 C 5.859375 -3.734375 5.859375 -5.484375 5.859375 -5.484375 C 5.859375 -5.484375 9.953125 -5.484375 9.953125 -5.484375 C 9.953125 -5.484375 9.953125 0 9.953125 0 Z M 9.953125 0 "/>
</g>
<g id="glyph-5-1-2b0d3954">
<path d="M 9.84375 0 C 9.84375 0 7.6875 0 7.6875 0 C 7.6875 0 7.015625 -2.0625 7.015625 -2.0625 C 7.015625 -2.0625 3.1875 -2.0625 3.1875 -2.0625 C 3.1875 -2.0625 2.5 0 2.5 0 C 2.5 0 0.359375 0 0.359375 0 C 0.359375 0 3.984375 -10.203125 3.984375 -10.203125 C 3.984375 -10.203125 6.3125 -10.203125 6.3125 -10.203125 C 6.3125 -10.203125 9.84375 0 9.84375 0 Z M 6.4375 -3.8125 C 6.4375 -3.8125 5.109375 -7.796875 5.109375 -7.796875 C 5.109375 -7.796875 3.78125 -3.8125 3.78125 -3.8125 C 3.78125 -3.8125 6.4375 -3.8125 6.4375 -3.8125 Z M 6.4375 -3.8125 "/>
</g>
<g id="glyph-5-2-2b0d3954">
<path d="M 9.484375 0 C 9.484375 0 7.21875 0 7.21875 0 C 6.953125 -0.484375 6.90625 -0.796875 6.90625 -1.75 C 6.90625 -1.75 6.9375 -2.828125 6.9375 -2.828125 C 6.9375 -3.6875 6.53125 -4.046875 5.625 -4.046875 C 5.625 -4.046875 3.21875 -4.046875 3.21875 -4.046875 C 3.21875 -4.046875 3.21875 0 3.21875 0 C 3.21875 0 1.125 0 1.125 0 C 1.125 0 1.125 -10.203125 1.125 -10.203125 C 1.125 -10.203125 6.59375 -10.203125 6.59375 -10.203125 C 8.40625 -10.203125 9.34375 -9.03125 9.34375 -7.453125 C 9.34375 -6.203125 8.765625 -5.375 7.609375 -4.921875 C 8.921875 -4.375 8.96875 -4.234375 9.03125 -1.21875 C 9.03125 -0.765625 9.15625 -0.5625 9.484375 -0.375 C 9.484375 -0.375 9.484375 0 9.484375 0 Z M 7.234375 -7.15625 C 7.234375 -8.03125 6.90625 -8.453125 5.75 -8.453125 C 5.75 -8.453125 3.21875 -8.453125 3.21875 -8.453125 C 3.21875 -8.453125 3.21875 -5.796875 3.21875 -5.796875 C 3.21875 -5.796875 5.75 -5.796875 5.75 -5.796875 C 6.9375 -5.796875 7.234375 -6.25 7.234375 -7.15625 Z M 7.234375 -7.15625 "/>
</g>
<g id="glyph-5-3-2b0d3954">
<path d="M 9.59375 -3.484375 C 9.46875 -1.140625 7.765625 0.171875 5.234375 0.171875 C 2.390625 0.171875 0.609375 -1.8125 0.609375 -5.09375 C 0.609375 -8.40625 2.40625 -10.375 5.296875 -10.375 C 7.59375 -10.375 9.359375 -9.09375 9.546875 -6.75 C 9.546875 -6.75 7.546875 -6.75 7.546875 -6.75 C 7.234375 -8.0625 6.5 -8.578125 5.359375 -8.578125 C 3.703125 -8.578125 2.71875 -7.328125 2.71875 -5.0625 C 2.71875 -2.84375 3.671875 -1.59375 5.296875 -1.59375 C 6.59375 -1.59375 7.421875 -2.1875 7.546875 -3.484375 C 7.546875 -3.484375 9.59375 -3.484375 9.59375 -3.484375 Z M 9.59375 -3.484375 "/>
</g>
<g id="glyph-5-4-2b0d3954">
<path d="M 9.203125 0 C 9.203125 0 7.09375 0 7.09375 0 C 7.09375 0 7.09375 -4.640625 7.09375 -4.640625 C 7.09375 -4.640625 3.046875 -4.640625 3.046875 -4.640625 C 3.046875 -4.640625 3.046875 0 3.046875 0 C 3.046875 0 0.953125 0 0.953125 0 C 0.953125 0 0.953125 -10.203125 0.953125 -10.203125 C 0.953125 -10.203125 3.046875 -10.203125 3.046875 -10.203125 C 3.046875 -10.203125 3.046875 -6.390625 3.046875 -6.390625 C 3.046875 -6.390625 7.09375 -6.390625 7.09375 -6.390625 C 7.09375 -6.390625 7.09375 -10.203125 7.09375 -10.203125 C 7.09375 -10.203125 9.203125 -10.203125 9.203125 -10.203125 C 9.203125 -10.203125 9.203125 0 9.203125 0 Z M 9.203125 0 "/>
</g>
<g id="glyph-5-5-2b0d3954">
<path d="M 4.234375 2.796875 C 4.234375 2.796875 2.84375 2.796875 2.84375 2.796875 C 1.234375 0.375 0.5625 -1.546875 0.5625 -3.703125 C 0.5625 -5.859375 1.234375 -7.78125 2.84375 -10.203125 C 2.84375 -10.203125 4.234375 -10.203125 4.234375 -10.203125 C 2.765625 -7.34375 2.28125 -5.75 2.28125 -3.703125 C 2.28125 -1.65625 2.765625 -0.078125 4.234375 2.796875 Z M 4.234375 2.796875 "/>
</g>
<g id="glyph-5-6-2b0d3954">
<path d="M 5.296875 0 C 5.296875 0 3.328125 0 3.328125 0 C 3.328125 0 3.328125 -6.84375 3.328125 -6.84375 C 3.328125 -6.84375 0.953125 -6.84375 0.953125 -6.84375 C 0.953125 -6.84375 0.953125 -8.140625 0.953125 -8.140625 C 2.65625 -8.140625 3.6875 -8.75 3.984375 -9.921875 C 3.984375 -9.921875 5.296875 -9.921875 5.296875 -9.921875 C 5.296875 -9.921875 5.296875 0 5.296875 0 Z M 5.296875 0 "/>
</g>
<g id="glyph-5-7-2b0d3954">
<path d="M 3 -0.125 C 3 0.96875 2.796875 1.484375 2.234375 1.921875 C 1.859375 2.21875 1.46875 2.359375 0.890625 2.4375 C 0.890625 2.4375 0.890625 1.65625 0.890625 1.65625 C 1.71875 1.484375 2.09375 1 2.09375 0.046875 C 2.09375 0.046875 2.09375 0 2.09375 0 C 2.09375 0 0.890625 0 0.890625 0 C 0.890625 0 0.890625 -2.046875 0.890625 -2.046875 C 0.890625 -2.046875 3 -2.046875 3 -2.046875 C 3 -2.046875 3 -0.125 3 -0.125 Z M 3 -0.125 "/>
</g>
<g id="glyph-5-8-2b0d3954">
</g>
<g id="glyph-5-9-2b0d3954">
<path d="M 3.984375 -3.703125 C 3.984375 -1.546875 3.3125 0.375 1.703125 2.796875 C 1.703125 2.796875 0.3125 2.796875 0.3125 2.796875 C 1.796875 -0.0625 2.265625 -1.65625 2.265625 -3.703125 C 2.265625 -5.75 1.796875 -7.328125 0.3125 -10.203125 C 0.3125 -10.203125 1.703125 -10.203125 1.703125 -10.203125 C 3.3125 -7.78125 3.984375 -5.859375 3.984375 -3.703125 Z M 3.984375 -3.703125 "/>
</g>
<g id="glyph-5-10-2b0d3954">
<path d="M 7.3125 -2.625 C 7.125 -1.015625 5.859375 0.125 4.015625 0.125 C 1.78125 0.125 0.46875 -1.234375 0.46875 -3.71875 C 0.46875 -6.296875 1.796875 -7.6875 4.046875 -7.6875 C 5.9375 -7.6875 7.171875 -6.578125 7.3125 -4.734375 C 7.3125 -4.734375 5.4375 -4.734375 5.4375 -4.734375 C 5.203125 -5.71875 4.828125 -6.109375 4.03125 -6.109375 C 2.796875 -6.109375 2.4375 -5.109375 2.4375 -3.71875 C 2.4375 -2.25 3.03125 -1.453125 4.03125 -1.453125 C 4.78125 -1.453125 5.1875 -1.828125 5.4375 -2.625 C 5.4375 -2.625 7.3125 -2.625 7.3125 -2.625 Z M 7.3125 -2.625 "/>
</g>
<g id="glyph-5-11-2b0d3954">
<path d="M 7.96875 -3.71875 C 7.96875 -1.296875 6.53125 0.125 4.234375 0.125 C 1.90625 0.125 0.484375 -1.28125 0.484375 -3.78125 C 0.484375 -6.265625 1.90625 -7.6875 4.21875 -7.6875 C 6.578125 -7.6875 7.96875 -6.28125 7.96875 -3.71875 Z M 6 -3.75 C 6 -5.234375 5.3125 -6.109375 4.234375 -6.109375 C 3.15625 -6.109375 2.453125 -5.21875 2.453125 -3.78125 C 2.453125 -2.34375 3.15625 -1.453125 4.234375 -1.453125 C 5.28125 -1.453125 6 -2.34375 6 -3.75 Z M 6 -3.75 "/>
</g>
<g id="glyph-5-12-2b0d3954">
<path d="M 7.640625 0 C 7.640625 0 5.6875 0 5.6875 0 C 5.6875 0 5.6875 -4.65625 5.6875 -4.65625 C 5.6875 -5.5625 5.265625 -6.015625 4.421875 -6.015625 C 3.46875 -6.015625 2.84375 -5.4375 2.84375 -4.53125 C 2.84375 -4.53125 2.84375 0 2.84375 0 C 2.84375 0 0.875 0 0.875 0 C 0.875 0 0.875 -7.5625 0.875 -7.5625 C 0.875 -7.5625 2.84375 -7.5625 2.84375 -7.5625 C 2.84375 -7.5625 2.84375 -6.46875 2.84375 -6.46875 C 3.40625 -7.3125 4.09375 -7.6875 5.109375 -7.6875 C 6.71875 -7.6875 7.640625 -6.734375 7.640625 -5.0625 C 7.640625 -5.0625 7.640625 0 7.640625 0 Z M 7.640625 0 "/>
</g>
<g id="glyph-5-13-2b0d3954">
<path d="M 7.625 0 C 7.625 0 5.671875 0 5.671875 0 C 5.671875 0 5.671875 -0.875 5.671875 -0.875 C 5.1875 -0.21875 4.515625 0.125 3.578125 0.125 C 1.578125 0.125 0.40625 -1.625 0.40625 -3.765625 C 0.40625 -6.046875 1.78125 -7.6875 3.578125 -7.6875 C 4.515625 -7.6875 5.1875 -7.34375 5.671875 -6.578125 C 5.671875 -6.578125 5.671875 -10.203125 5.671875 -10.203125 C 5.671875 -10.203125 7.625 -10.203125 7.625 -10.203125 C 7.625 -10.203125 7.625 0 7.625 0 Z M 5.671875 -3.734375 C 5.671875 -5.1875 5.015625 -6.046875 4.015625 -6.046875 C 3.03125 -6.046875 2.359375 -5.171875 2.359375 -3.765625 C 2.359375 -2.375 3.03125 -1.515625 4.015625 -1.515625 C 5 -1.515625 5.671875 -2.359375 5.671875 -3.734375 Z M 5.671875 -3.734375 "/>
</g>
<g id="glyph-5-14-2b0d3954">
<path d="M 2.890625 0 C 2.890625 0 0.9375 0 0.9375 0 C 0.9375 0 0.9375 -7.5625 0.9375 -7.5625 C 0.9375 -7.5625 2.890625 -7.5625 2.890625 -7.5625 C 2.890625 -7.5625 2.890625 0 2.890625 0 Z M 2.921875 -8.46875 C 2.921875 -8.46875 0.96875 -8.46875 0.96875 -8.46875 C 0.96875 -8.46875 0.96875 -10.4375 0.96875 -10.4375 C 0.96875 -10.4375 2.921875 -10.4375 2.921875 -10.4375 C 2.921875 -10.4375 2.921875 -8.46875 2.921875 -8.46875 Z M 2.921875 -8.46875 "/>
</g>
<g id="glyph-5-15-2b0d3954">
<path d="M 4.21875 0 C 3.859375 0.015625 3.515625 0.0625 3.078125 0.0625 C 1.796875 0.0625 1.15625 -0.4375 1.15625 -1.625 C 1.15625 -1.625 1.15625 -6.109375 1.15625 -6.109375 C 1.15625 -6.109375 0.203125 -6.109375 0.203125 -6.109375 C 0.203125 -6.109375 0.203125 -7.40625 0.203125 -7.40625 C 0.203125 -7.40625 1.15625 -7.40625 1.15625 -7.40625 C 1.15625 -7.40625 1.15625 -9.4375 1.15625 -9.4375 C 1.15625 -9.4375 3.125 -9.4375 3.125 -9.4375 C 3.125 -9.4375 3.125 -7.40625 3.125 -7.40625 C 3.125 -7.40625 4.21875 -7.40625 4.21875 -7.40625 C 4.21875 -7.40625 4.21875 -6.109375 4.21875 -6.109375 C 4.21875 -6.109375 3.125 -6.109375 3.125 -6.109375 C 3.125 -6.109375 3.125 -2.15625 3.125 -2.15625 C 3.125 -1.484375 3.25 -1.328125 3.765625 -1.328125 C 3.90625 -1.328125 4.015625 -1.34375 4.21875 -1.375 C 4.21875 -1.375 4.21875 0 4.21875 0 Z M 4.21875 0 "/>
</g>
<g id="glyph-5-16-2b0d3954">
<path d="M 7.34375 0 C 7.34375 0 5.203125 0 5.203125 0 C 5.03125 -0.21875 4.984375 -0.5625 4.984375 -0.953125 C 4.296875 -0.234375 3.53125 0.125 2.6875 0.125 C 1.421875 0.125 0.390625 -0.578125 0.390625 -2.046875 C 0.390625 -3.421875 1.125 -4.0625 2.625 -4.328125 C 2.625 -4.328125 3.40625 -4.46875 3.40625 -4.46875 C 4.375 -4.640625 4.96875 -4.546875 4.96875 -5.34375 C 4.96875 -5.859375 4.59375 -6.109375 3.84375 -6.109375 C 2.875 -6.109375 2.546875 -5.859375 2.453125 -5.0625 C 2.453125 -5.0625 0.5625 -5.0625 0.5625 -5.0625 C 0.6875 -6.8125 1.75 -7.6875 3.796875 -7.6875 C 5.84375 -7.6875 6.890625 -6.90625 6.890625 -5.359375 C 6.890625 -5.359375 6.890625 -1.15625 6.890625 -1.15625 C 6.890625 -0.765625 6.984375 -0.5625 7.34375 -0.234375 C 7.34375 -0.234375 7.34375 0 7.34375 0 Z M 4.96875 -3.234375 C 4.96875 -3.234375 4.96875 -3.5625 4.96875 -3.5625 C 4.75 -3.453125 4.65625 -3.4375 4.140625 -3.328125 C 4.140625 -3.328125 3.46875 -3.203125 3.46875 -3.203125 C 2.65625 -3.046875 2.359375 -2.84375 2.359375 -2.265625 C 2.359375 -1.703125 2.765625 -1.453125 3.421875 -1.453125 C 4.40625 -1.453125 4.96875 -2.09375 4.96875 -3.234375 Z M 4.96875 -3.234375 "/>
</g>
<g id="glyph-5-17-2b0d3954">
<path d="M 2.890625 0 C 2.890625 0 0.9375 0 0.9375 0 C 0.9375 0 0.9375 -10.203125 0.9375 -10.203125 C 0.9375 -10.203125 2.890625 -10.203125 2.890625 -10.203125 C 2.890625 -10.203125 2.890625 0 2.890625 0 Z M 2.890625 0 "/>
</g>
<g id="glyph-5-18-2b0d3954">
<path d="M 7.5 -7.5625 C 7.5 -7.5625 4.90625 0 4.90625 0 C 4.90625 0 2.84375 0 2.84375 0 C 2.84375 0 0.203125 -7.5625 0.203125 -7.5625 C 0.203125 -7.5625 2.265625 -7.5625 2.265625 -7.5625 C 2.265625 -7.5625 3.90625 -2.03125 3.90625 -2.03125 C 3.90625 -2.03125 5.4375 -7.5625 5.4375 -7.5625 C 5.4375 -7.5625 7.5 -7.5625 7.5 -7.5625 Z M 7.5 -7.5625 "/>
</g>
<g id="glyph-5-19-2b0d3954">
<path d="M 7.53125 -7.5625 C 7.53125 -7.5625 4.421875 1.390625 4.421875 1.390625 C 3.90625 2.828125 3.21875 3.0625 1.90625 3.0625 C 1.671875 3.0625 1.5 3.046875 1.203125 3.015625 C 1.203125 3.015625 1.203125 1.546875 1.203125 1.546875 C 1.453125 1.609375 1.5625 1.625 1.71875 1.625 C 2.40625 1.625 2.9375 1.078125 2.9375 0.359375 C 2.9375 0.359375 2.9375 0.328125 2.9375 0.328125 C 2.9375 0.328125 0.125 -7.5625 0.125 -7.5625 C 0.125 -7.5625 2.28125 -7.5625 2.28125 -7.5625 C 2.28125 -7.5625 3.953125 -2.0625 3.953125 -2.0625 C 3.953125 -2.0625 5.515625 -7.5625 5.515625 -7.5625 C 5.515625 -7.5625 7.53125 -7.5625 7.53125 -7.5625 Z M 7.53125 -7.5625 "/>
</g>
<g id="glyph-6-0-2b0d3954">
<path d="M 7.1875 -3.296875 C 7.1875 -1.1875 5.78125 0.203125 3.78125 0.203125 C 2.015625 0.203125 0.890625 -0.578125 0.484375 -2.546875 C 0.484375 -2.546875 1.71875 -2.546875 1.71875 -2.546875 C 2.015625 -1.421875 2.671875 -0.875 3.75 -0.875 C 5.09375 -0.875 5.921875 -1.6875 5.921875 -3.125 C 5.921875 -4.59375 5.078125 -5.453125 3.75 -5.453125 C 2.984375 -5.453125 2.5 -5.203125 1.9375 -4.515625 C 1.9375 -4.515625 0.796875 -4.515625 0.796875 -4.515625 C 0.796875 -4.515625 1.546875 -9.71875 1.546875 -9.71875 C 1.546875 -9.71875 6.65625 -9.71875 6.65625 -9.71875 C 6.65625 -9.71875 6.65625 -8.5 6.65625 -8.5 C 6.65625 -8.5 2.53125 -8.5 2.53125 -8.5 C 2.53125 -8.5 2.140625 -5.9375 2.140625 -5.9375 C 2.71875 -6.359375 3.28125 -6.53125 3.96875 -6.53125 C 5.875 -6.53125 7.1875 -5.25 7.1875 -3.296875 Z M 7.1875 -3.296875 "/>
</g>
<g id="glyph-6-1-2b0d3954">
<path d="M 3.5625 0 C 3.15625 0.0625 2.890625 0.09375 2.609375 0.09375 C 1.6875 0.09375 1.1875 -0.328125 1.1875 -1.0625 C 1.1875 -1.0625 1.1875 -6.390625 1.1875 -6.390625 C 1.1875 -6.390625 0.203125 -6.390625 0.203125 -6.390625 C 0.203125 -6.390625 0.203125 -7.34375 0.203125 -7.34375 C 0.203125 -7.34375 1.1875 -7.34375 1.1875 -7.34375 C 1.1875 -7.34375 1.1875 -9.359375 1.1875 -9.359375 C 1.1875 -9.359375 2.359375 -9.359375 2.359375 -9.359375 C 2.359375 -9.359375 2.359375 -7.34375 2.359375 -7.34375 C 2.359375 -7.34375 3.5625 -7.34375 3.5625 -7.34375 C 3.5625 -7.34375 3.5625 -6.390625 3.5625 -6.390625 C 3.5625 -6.390625 2.359375 -6.390625 2.359375 -6.390625 C 2.359375 -6.390625 2.359375 -1.578125 2.359375 -1.578125 C 2.359375 -1.0625 2.484375 -0.921875 3 -0.921875 C 3.21875 -0.921875 3.40625 -0.9375 3.5625 -0.984375 C 3.5625 -0.984375 3.5625 0 3.5625 0 Z M 3.5625 0 "/>
</g>
<g id="glyph-6-2-2b0d3954">
<path d="M 6.796875 0 C 6.796875 0 5.640625 0 5.640625 0 C 5.640625 0 5.640625 -5.078125 5.640625 -5.078125 C 5.640625 -6.046875 4.953125 -6.53125 4.125 -6.53125 C 2.921875 -6.53125 2.140625 -5.546875 2.140625 -4.046875 C 2.140625 -4.046875 2.140625 0 2.140625 0 C 2.140625 0 0.984375 0 0.984375 0 C 0.984375 0 0.984375 -10.203125 0.984375 -10.203125 C 0.984375 -10.203125 2.140625 -10.203125 2.140625 -10.203125 C 2.140625 -10.203125 2.140625 -6.328125 2.140625 -6.328125 C 2.828125 -7.21875 3.453125 -7.546875 4.5 -7.546875 C 5.921875 -7.546875 6.796875 -6.78125 6.796875 -5.546875 C 6.796875 -5.546875 6.796875 0 6.796875 0 Z M 6.796875 0 "/>
</g>
<g id="glyph-6-3-2b0d3954">
<path d="M 7.765625 -3.359375 C 7.765625 -3.359375 0 -3.359375 0 -3.359375 C 0 -3.359375 0 -4.375 0 -4.375 C 0 -4.375 7.765625 -4.375 7.765625 -4.375 C 7.765625 -4.375 7.765625 -3.359375 7.765625 -3.359375 Z M 7.765625 -3.359375 "/>
</g>
<g id="glyph-6-4-2b0d3954">
<path d="M 7.125 -5.1875 C 7.125 -1.765625 5.875 0.203125 3.5625 0.203125 C 2.046875 0.203125 0.984375 -0.75 0.734375 -2.375 C 0.734375 -2.375 1.96875 -2.375 1.96875 -2.375 C 2.171875 -1.421875 2.765625 -0.875 3.640625 -0.875 C 5.046875 -0.875 5.84375 -2.21875 5.859375 -4.640625 C 5.203125 -3.875 4.515625 -3.546875 3.578125 -3.546875 C 1.796875 -3.546875 0.53125 -4.78125 0.53125 -6.640625 C 0.53125 -8.578125 1.890625 -9.921875 3.78125 -9.921875 C 6.046875 -9.921875 7.125 -8.296875 7.125 -5.1875 Z M 5.78125 -6.65625 C 5.78125 -7.953125 4.90625 -8.84375 3.765625 -8.84375 C 2.625 -8.84375 1.796875 -8 1.796875 -6.734375 C 1.796875 -5.40625 2.53125 -4.640625 3.71875 -4.640625 C 4.921875 -4.640625 5.78125 -5.453125 5.78125 -6.65625 Z M 5.78125 -6.65625 "/>
</g>
<g id="glyph-6-5-2b0d3954">
</g>
<g id="glyph-6-6-2b0d3954">
<path d="M 7.328125 -3.59375 C 7.328125 -1.265625 6.078125 0.203125 4.1875 0.203125 C 3.234375 0.203125 2.546875 -0.125 1.9375 -0.875 C 1.9375 -0.875 1.9375 3.046875 1.9375 3.046875 C 1.9375 3.046875 0.765625 3.046875 0.765625 3.046875 C 0.765625 3.046875 0.765625 -7.34375 0.765625 -7.34375 C 0.765625 -7.34375 1.828125 -7.34375 1.828125 -7.34375 C 1.828125 -7.34375 1.828125 -6.234375 1.828125 -6.234375 C 2.375 -7.09375 3.171875 -7.546875 4.171875 -7.546875 C 6.125 -7.546875 7.328125 -6.0625 7.328125 -3.59375 Z M 6.109375 -3.625 C 6.109375 -5.375 5.265625 -6.453125 3.96875 -6.453125 C 2.75 -6.453125 1.9375 -5.328125 1.9375 -3.609375 C 1.9375 -1.890625 2.75 -0.875 3.96875 -0.875 C 5.25 -0.875 6.109375 -1.953125 6.109375 -3.625 Z M 6.109375 -3.625 "/>
</g>
<g id="glyph-6-7-2b0d3954">
<path d="M 7.1875 -3.328125 C 7.1875 -3.328125 1.78125 -3.328125 1.78125 -3.328125 C 1.8125 -1.65625 2.71875 -0.875 3.9375 -0.875 C 4.875 -0.875 5.53125 -1.265625 5.859375 -2.21875 C 5.859375 -2.21875 7.03125 -2.21875 7.03125 -2.21875 C 6.734375 -0.734375 5.578125 0.203125 3.890625 0.203125 C 1.828125 0.203125 0.5625 -1.21875 0.5625 -3.625 C 0.5625 -6.03125 1.875 -7.546875 3.921875 -7.546875 C 5.296875 -7.546875 6.40625 -6.8125 6.890625 -5.609375 C 7.09375 -5.0625 7.1875 -4.390625 7.1875 -3.328125 Z M 5.9375 -4.375 C 5.9375 -5.515625 5.046875 -6.46875 3.90625 -6.46875 C 2.734375 -6.46875 1.90625 -5.59375 1.8125 -4.28125 C 1.8125 -4.28125 5.921875 -4.28125 5.921875 -4.28125 C 5.9375 -4.3125 5.9375 -4.375 5.9375 -4.375 Z M 5.9375 -4.375 "/>
</g>
<g id="glyph-6-8-2b0d3954">
<path d="M 4.5 -6.3125 C 2.6875 -6.28125 2.140625 -5.453125 2.140625 -3.8125 C 2.140625 -3.8125 2.140625 0 2.140625 0 C 2.140625 0 0.984375 0 0.984375 0 C 0.984375 0 0.984375 -7.34375 0.984375 -7.34375 C 0.984375 -7.34375 2.046875 -7.34375 2.046875 -7.34375 C 2.046875 -7.34375 2.046875 -6 2.046875 -6 C 2.71875 -7.09375 3.296875 -7.546875 4.046875 -7.546875 C 4.203125 -7.546875 4.296875 -7.53125 4.5 -7.5 C 4.5 -7.5 4.5 -6.3125 4.5 -6.3125 Z M 4.5 -6.3125 "/>
</g>
<g id="glyph-6-9-2b0d3954">
<path d="M 6.671875 -2.515625 C 6.53125 -0.84375 5.4375 0.203125 3.6875 0.203125 C 1.6875 0.203125 0.4375 -1.234375 0.4375 -3.59375 C 0.4375 -6.03125 1.71875 -7.546875 3.703125 -7.546875 C 5.328125 -7.546875 6.453125 -6.65625 6.59375 -4.875 C 6.59375 -4.875 5.421875 -4.875 5.421875 -4.875 C 5.28125 -5.890625 4.65625 -6.46875 3.6875 -6.46875 C 2.40625 -6.46875 1.65625 -5.4375 1.65625 -3.59375 C 1.65625 -1.859375 2.421875 -0.875 3.703125 -0.875 C 4.703125 -0.875 5.3125 -1.34375 5.5 -2.515625 C 5.5 -2.515625 6.671875 -2.515625 6.671875 -2.515625 Z M 6.671875 -2.515625 "/>
</g>
<g id="glyph-6-10-2b0d3954">
<path d="M 6.8125 0 C 6.8125 0 5.65625 0 5.65625 0 C 5.65625 0 5.65625 -5.078125 5.65625 -5.078125 C 5.65625 -5.96875 5.0625 -6.53125 4.140625 -6.53125 C 2.953125 -6.53125 2.140625 -5.546875 2.140625 -4.046875 C 2.140625 -4.046875 2.140625 0 2.140625 0 C 2.140625 0 0.984375 0 0.984375 0 C 0.984375 0 0.984375 -7.34375 0.984375 -7.34375 C 0.984375 -7.34375 2.0625 -7.34375 2.0625 -7.34375 C 2.0625 -7.34375 2.0625 -6.109375 2.0625 -6.109375 C 2.703125 -7.125 3.40625 -7.546875 4.5 -7.546875 C 5.90625 -7.546875 6.8125 -6.765625 6.8125 -5.546875 C 6.8125 -5.546875 6.8125 0 6.8125 0 Z M 6.8125 0 "/>
</g>
<g id="glyph-6-11-2b0d3954">
<path d="M 2.140625 0 C 2.140625 0 0.984375 0 0.984375 0 C 0.984375 0 0.984375 -7.34375 0.984375 -7.34375 C 0.984375 -7.34375 2.140625 -7.34375 2.140625 -7.34375 C 2.140625 -7.34375 2.140625 0 2.140625 0 Z M 2.296875 -8.4375 C 2.296875 -8.4375 0.84375 -8.4375 0.84375 -8.4375 C 0.84375 -8.4375 0.84375 -9.890625 0.84375 -9.890625 C 0.84375 -9.890625 2.296875 -9.890625 2.296875 -9.890625 C 2.296875 -9.890625 2.296875 -8.4375 2.296875 -8.4375 Z M 2.296875 -8.4375 "/>
</g>
<g id="glyph-6-12-2b0d3954">
<path d="M 2.109375 0 C 2.109375 0 0.953125 0 0.953125 0 C 0.953125 0 0.953125 -10.203125 0.953125 -10.203125 C 0.953125 -10.203125 2.109375 -10.203125 2.109375 -10.203125 C 2.109375 -10.203125 2.109375 0 2.109375 0 Z M 2.109375 0 "/>
</g>
</g>
</defs>
<rect x="-52.8" y="-33.6" width="633.6" height="403.2" fill="rgb(100%, 100%, 100%)" fill-opacity="1"/>
<path fill-rule="nonzero" fill="rgb(100%, 100%, 100%)" fill-opacity="1" d="M 74 277 L 512 277 L 512 36 L 74 36 Z M 74 277 "/>
<path fill="none" stroke-width="1" stroke-linecap="butt" stroke-linejoin="miter" stroke="rgb(0%, 0%, 0%)" stroke-opacity="0.12" stroke-miterlimit="1.154701" d="M 92.324219 277 L 92.324219 36 "/>
<path fill="none" stroke-width="1" stroke-linecap="butt" stroke-linejoin="miter" stroke="rgb(0%, 0%, 0%)" stroke-opacity="0.12" stroke-miterlimit="1.154701" d="M 250.960938 277 L 250.960938 36 "/>
<path fill="none" stroke-width="1" stroke-linecap="butt" stroke-linejoin="miter" stroke="rgb(0%, 0%, 0%)" stroke-opacity="0.12" stroke-miterlimit="1.154701" d="M 409.597656 277 L 409.597656 36 "/>
<path fill="none" stroke-width="1" stroke-linecap="butt" stroke-linejoin="miter" stroke="rgb(0%, 0%, 0%)" stroke-opacity="0.12" stroke-miterlimit="1.154701" d="M 74 270.0625 L 512 270.0625 "/>
<path fill="none" stroke-width="1" stroke-linecap="butt" stroke-linejoin="miter" stroke="rgb(0%, 0%, 0%)" stroke-opacity="0.12" stroke-miterlimit="1.154701" d="M 74 204.066406 L 512 204.066406 "/>
<path fill="none" stroke-width="1" stroke-linecap="butt" stroke-linejoin="miter" stroke="rgb(0%, 0%, 0%)" stroke-opacity="0.12" stroke-miterlimit="1.154701" d="M 74 138.066406 L 512 138.066406 "/>
<path fill="none" stroke-width="1" stroke-linecap="butt" stroke-linejoin="miter" stroke="rgb(0%, 0%, 0%)" stroke-opacity="0.12" stroke-miterlimit="1.154701" d="M 74 72.070312 L 512 72.070312 "/>
<g fill="rgb(0%, 0%, 0%)" fill-opacity="1">
<use xlink:href="#glyph-0-0-2b0d3954" x="252.540008" y="317.567999"/>
</g>
<g fill="rgb(0%, 0%, 0%)" fill-opacity="1">
<use xlink:href="#glyph-0-1-2b0d3954" x="261.09401" y="317.567999"/>
</g>
<g fill="rgb(0%, 0%, 0%)" fill-opacity="1">
<use xlink:href="#glyph-0-2-2b0d3954" x="265.756008" y="317.567999"/>
</g>
<g fill="rgb(0%, 0%, 0%)" fill-opacity="1">
<use xlink:href="#glyph-0-3-2b0d3954" x="273.540009" y="317.567999"/>
</g>
<g fill="rgb(0%, 0%, 0%)" fill-opacity="1">
<use xlink:href="#glyph-0-4-2b0d3954" x="281.32401" y="317.567999"/>
</g>
<g fill="rgb(0%, 0%, 0%)" fill-opacity="1">
<use xlink:href="#glyph-0-5-2b0d3954" x="284.43201" y="317.567999"/>
</g>
<g fill="rgb(0%, 0%, 0%)" fill-opacity="1">
<use xlink:href="#glyph-0-6-2b0d3954" x="292.216008" y="317.567999"/>
</g>
<g fill="rgb(0%, 0%, 0%)" fill-opacity="1">
<use xlink:href="#glyph-0-3-2b0d3954" x="303.892007" y="317.567999"/>
</g>
<g fill="rgb(0%, 0%, 0%)" fill-opacity="1">
<use xlink:href="#glyph-0-2-2b0d3954" x="311.676008" y="317.567999"/>
</g>
<g fill="rgb(0%, 0%, 0%)" fill-opacity="1">
<use xlink:href="#glyph-0-7-2b0d3954" x="319.460009" y="317.567999"/>
</g>
<g fill="rgb(0%, 0%, 0%)" fill-opacity="1">
<use xlink:href="#glyph-0-8-2b0d3954" x="326.460009" y="317.567999"/>
</g>
<g fill="rgb(0%, 0%, 0%)" fill-opacity="1">
<use xlink:href="#glyph-0-9-2b0d3954" x="88.430711" y="298.258"/>
</g>
<g fill="rgb(0%, 0%, 0%)" fill-opacity="1">
<use xlink:href="#glyph-0-10-2b0d3954" x="239.284884" y="298.258"/>
</g>
<g fill="rgb(0%, 0%, 0%)" fill-opacity="1">
<use xlink:href="#glyph-0-9-2b0d3954" x="247.068884" y="298.258"/>
</g>
<g fill="rgb(0%, 0%, 0%)" fill-opacity="1">
<use xlink:href="#glyph-0-9-2b0d3954" x="254.852884" y="298.258"/>
</g>
<g fill="rgb(0%, 0%, 0%)" fill-opacity="1">
<use xlink:href="#glyph-0-11-2b0d3954" x="397.923072" y="298.258"/>
</g>
<g fill="rgb(0%, 0%, 0%)" fill-opacity="1">
<use xlink:href="#glyph-0-9-2b0d3954" x="405.707072" y="298.258"/>
</g>
<g fill="rgb(0%, 0%, 0%)" fill-opacity="1">
<use xlink:href="#glyph-0-9-2b0d3954" x="413.491073" y="298.258"/>
</g>
<g fill="rgb(0%, 0%, 0%)" fill-opacity="1">
<use xlink:href="#glyph-1-0-2b0d3954" x="28.704" y="182.560996"/>
</g>
<g fill="rgb(0%, 0%, 0%)" fill-opacity="1">
<use xlink:href="#glyph-2-0-2b0d3954" x="28.704001" y="173.222995"/>
</g>
<g fill="rgb(0%, 0%, 0%)" fill-opacity="1">
<use xlink:href="#glyph-2-1-2b0d3954" x="28.704001" y="165.438997"/>
</g>
<g fill="rgb(0%, 0%, 0%)" fill-opacity="1">
<use xlink:href="#glyph-1-1-2b0d3954" x="28.704001" y="162.330998"/>
</g>
<g fill="rgb(0%, 0%, 0%)" fill-opacity="1">
<use xlink:href="#glyph-2-2-2b0d3954" x="28.704002" y="154.546997"/>
</g>
<g fill="rgb(0%, 0%, 0%)" fill-opacity="1">
<use xlink:href="#glyph-3-0-2b0d3954" x="28.704002" y="150.654998"/>
</g>
<g fill="rgb(0%, 0%, 0%)" fill-opacity="1">
<use xlink:href="#glyph-2-1-2b0d3954" x="28.704002" y="147.546998"/>
</g>
<g fill="rgb(0%, 0%, 0%)" fill-opacity="1">
<use xlink:href="#glyph-1-2-2b0d3954" x="28.704002" y="144.438997"/>
</g>
<g fill="rgb(0%, 0%, 0%)" fill-opacity="1">
<use xlink:href="#glyph-2-2-2b0d3954" x="28.704003" y="141.330995"/>
</g>
<g fill="rgb(0%, 0%, 0%)" fill-opacity="1">
<use xlink:href="#glyph-4-0-2b0d3954" x="28.704003" y="137.438997"/>
</g>
<g fill="rgb(0%, 0%, 0%)" fill-opacity="1">
<use xlink:href="#glyph-0-9-2b0d3954" x="36.756002" y="275.166262"/>
</g>
<g fill="rgb(0%, 0%, 0%)" fill-opacity="1">
<use xlink:href="#glyph-0-12-2b0d3954" x="44.540002" y="275.166262"/>
</g>
<g fill="rgb(0%, 0%, 0%)" fill-opacity="1">
<use xlink:href="#glyph-0-11-2b0d3954" x="48.432002" y="275.166262"/>
</g>
<g fill="rgb(0%, 0%, 0%)" fill-opacity="1">
<use xlink:href="#glyph-0-13-2b0d3954" x="56.216001" y="275.166262"/>
</g>
<g fill="rgb(0%, 0%, 0%)" fill-opacity="1">
<use xlink:href="#glyph-0-9-2b0d3954" x="36.756002" y="209.168183"/>
</g>
<g fill="rgb(0%, 0%, 0%)" fill-opacity="1">
<use xlink:href="#glyph-0-12-2b0d3954" x="44.540002" y="209.168183"/>
</g>
<g fill="rgb(0%, 0%, 0%)" fill-opacity="1">
<use xlink:href="#glyph-0-14-2b0d3954" x="48.432002" y="209.168183"/>
</g>
<g fill="rgb(0%, 0%, 0%)" fill-opacity="1">
<use xlink:href="#glyph-0-9-2b0d3954" x="56.216001" y="209.168183"/>
</g>
<g fill="rgb(0%, 0%, 0%)" fill-opacity="1">
<use xlink:href="#glyph-0-9-2b0d3954" x="36.756002" y="143.170089"/>
</g>
<g fill="rgb(0%, 0%, 0%)" fill-opacity="1">
<use xlink:href="#glyph-0-12-2b0d3954" x="44.540002" y="143.170089"/>
</g>
<g fill="rgb(0%, 0%, 0%)" fill-opacity="1">
<use xlink:href="#glyph-0-14-2b0d3954" x="48.432002" y="143.170089"/>
</g>
<g fill="rgb(0%, 0%, 0%)" fill-opacity="1">
<use xlink:href="#glyph-0-13-2b0d3954" x="56.216001" y="143.170089"/>
</g>
<g fill="rgb(0%, 0%, 0%)" fill-opacity="1">
<use xlink:href="#glyph-0-9-2b0d3954" x="36.756002" y="77.172026"/>
</g>
<g fill="rgb(0%, 0%, 0%)" fill-opacity="1">
<use xlink:href="#glyph-0-12-2b0d3954" x="44.540002" y="77.172026"/>
</g>
<g fill="rgb(0%, 0%, 0%)" fill-opacity="1">
<use xlink:href="#glyph-0-15-2b0d3954" x="48.432002" y="77.172026"/>
</g>
<g fill="rgb(0%, 0%, 0%)" fill-opacity="1">
<use xlink:href="#glyph-0-9-2b0d3954" x="56.216001" y="77.172026"/>
</g>
<g fill="rgb(0%, 0%, 0%)" fill-opacity="1">
<use xlink:href="#glyph-5-0-2b0d3954" x="181.371023" y="28.947994"/>
</g>
<g fill="rgb(0%, 0%, 0%)" fill-opacity="1">
<use xlink:href="#glyph-5-1-2b0d3954" x="192.263021" y="28.947994"/>
</g>
<g fill="rgb(0%, 0%, 0%)" fill-opacity="1">
<use xlink:href="#glyph-5-2-2b0d3954" x="202.371023" y="28.947994"/>
</g>
<g fill="rgb(0%, 0%, 0%)" fill-opacity="1">
<use xlink:href="#glyph-5-3-2b0d3954" x="212.479025" y="28.947994"/>
</g>
<g fill="rgb(0%, 0%, 0%)" fill-opacity="1">
<use xlink:href="#glyph-5-4-2b0d3954" x="222.587028" y="28.947994"/>
</g>
<g fill="rgb(0%, 0%, 0%)" fill-opacity="1">
<use xlink:href="#glyph-5-5-2b0d3954" x="232.695022" y="28.947994"/>
</g>
<g fill="rgb(0%, 0%, 0%)" fill-opacity="1">
<use xlink:href="#glyph-5-6-2b0d3954" x="237.357021" y="28.947994"/>
</g>
<g fill="rgb(0%, 0%, 0%)" fill-opacity="1">
<use xlink:href="#glyph-5-7-2b0d3954" x="245.141021" y="28.947994"/>
</g>
<g fill="rgb(0%, 0%, 0%)" fill-opacity="1">
<use xlink:href="#glyph-5-8-2b0d3954" x="249.03302" y="28.947994"/>
</g>
<g fill="rgb(0%, 0%, 0%)" fill-opacity="1">
<use xlink:href="#glyph-5-6-2b0d3954" x="252.925018" y="28.947994"/>
</g>
<g fill="rgb(0%, 0%, 0%)" fill-opacity="1">
<use xlink:href="#glyph-5-9-2b0d3954" x="260.709015" y="28.947994"/>
</g>
<g fill="rgb(0%, 0%, 0%)" fill-opacity="1">
<use xlink:href="#glyph-5-8-2b0d3954" x="265.371018" y="28.947994"/>
</g>
<g fill="rgb(0%, 0%, 0%)" fill-opacity="1">
<use xlink:href="#glyph-5-10-2b0d3954" x="269.263016" y="28.947994"/>
</g>
<g fill="rgb(0%, 0%, 0%)" fill-opacity="1">
<use xlink:href="#glyph-5-11-2b0d3954" x="277.047013" y="28.947994"/>
</g>
<g fill="rgb(0%, 0%, 0%)" fill-opacity="1">
<use xlink:href="#glyph-5-12-2b0d3954" x="285.601014" y="28.947994"/>
</g>
<g fill="rgb(0%, 0%, 0%)" fill-opacity="1">
<use xlink:href="#glyph-5-13-2b0d3954" x="294.155015" y="28.947994"/>
</g>
<g fill="rgb(0%, 0%, 0%)" fill-opacity="1">
<use xlink:href="#glyph-5-14-2b0d3954" x="302.709016" y="28.947994"/>
</g>
<g fill="rgb(0%, 0%, 0%)" fill-opacity="1">
<use xlink:href="#glyph-5-15-2b0d3954" x="306.601015" y="28.947994"/>
</g>
<g fill="rgb(0%, 0%, 0%)" fill-opacity="1">
<use xlink:href="#glyph-5-14-2b0d3954" x="311.26301" y="28.947994"/>
</g>
<g fill="rgb(0%, 0%, 0%)" fill-opacity="1">
<use xlink:href="#glyph-5-11-2b0d3954" x="315.155008" y="28.947994"/>
</g>
<g fill="rgb(0%, 0%, 0%)" fill-opacity="1">
<use xlink:href="#glyph-5-12-2b0d3954" x="323.709009" y="28.947994"/>
</g>
<g fill="rgb(0%, 0%, 0%)" fill-opacity="1">
<use xlink:href="#glyph-5-16-2b0d3954" x="332.26301" y="28.947994"/>
</g>
<g fill="rgb(0%, 0%, 0%)" fill-opacity="1">
<use xlink:href="#glyph-5-17-2b0d3954" x="340.047007" y="28.947994"/>
</g>
<g fill="rgb(0%, 0%, 0%)" fill-opacity="1">
<use xlink:href="#glyph-5-8-2b0d3954" x="343.939006" y="28.947994"/>
</g>
<g fill="rgb(0%, 0%, 0%)" fill-opacity="1">
<use xlink:href="#glyph-5-18-2b0d3954" x="347.831004" y="28.947994"/>
</g>
<g fill="rgb(0%, 0%, 0%)" fill-opacity="1">
<use xlink:href="#glyph-5-11-2b0d3954" x="355.615001" y="28.947994"/>
</g>
<g fill="rgb(0%, 0%, 0%)" fill-opacity="1">
<use xlink:href="#glyph-5-17-2b0d3954" x="364.169002" y="28.947994"/>
</g>
<g fill="rgb(0%, 0%, 0%)" fill-opacity="1">
<use xlink:href="#glyph-5-16-2b0d3954" x="368.061" y="28.947994"/>
</g>
<g fill="rgb(0%, 0%, 0%)" fill-opacity="1">
<use xlink:href="#glyph-5-15-2b0d3954" x="375.844997" y="28.947994"/>
</g>
<g fill="rgb(0%, 0%, 0%)" fill-opacity="1">
<use xlink:href="#glyph-5-14-2b0d3954" x="380.507" y="28.947994"/>
</g>
<g fill="rgb(0%, 0%, 0%)" fill-opacity="1">
<use xlink:href="#glyph-5-17-2b0d3954" x="384.398998" y="28.947994"/>
</g>
<g fill="rgb(0%, 0%, 0%)" fill-opacity="1">
<use xlink:href="#glyph-5-14-2b0d3954" x="388.290997" y="28.947994"/>
</g>
<g fill="rgb(0%, 0%, 0%)" fill-opacity="1">
<use xlink:href="#glyph-5-15-2b0d3954" x="392.182995" y="28.947994"/>
</g>
<g fill="rgb(0%, 0%, 0%)" fill-opacity="1">
<use xlink:href="#glyph-5-19-2b0d3954" x="396.844998" y="28.947994"/>
</g>
<path fill-rule="nonzero" fill="rgb(27.450982%, 50.980395%, 70.588237%)" fill-opacity="0.2" d="M 93.910156 182.644531 L 95.496094 119.660156 L 97.082031 105.0625 L 98.667969 100.171875 L 100.253906 95.804688 L 101.839844 93.617188 L 103.425781 86.746094 L 105.015625 78.234375 L 106.601562 76.585938 L 108.1875 70.914062 L 109.773438 64.375 L 111.359375 72.910156 L 112.945312 77.609375 L 114.53125 66.421875 L 116.117188 73.660156 L 117.703125 69.007812 L 119.292969 72.617188 L 120.878906 63.417969 L 122.464844 72.46875 L 124.050781 65.761719 L 125.636719 63.75 L 127.222656 65.910156 L 128.808594 78.425781 L 130.394531 72.410156 L 131.980469 80.351562 L 133.570312 78.25 L 135.15625 69.695312 L 136.742188 68.6875 L 138.328125 69.730469 L 139.914062 67.640625 L 141.5 69.992188 L 143.085938 70.820312 L 144.671875 72.8125 L 146.257812 75.917969 L 147.847656 69.40625 L 149.433594 63.09375 L 151.019531 59.738281 L 152.605469 66.847656 L 154.191406 67.011719 L 155.777344 76.957031 L 157.363281 75.050781 L 158.949219 68.078125 L 160.539062 70.300781 L 162.125 73.460938 L 163.710938 69.878906 L 165.296875 81.835938 L 166.882812 72.421875 L 168.46875 67.441406 L 170.054688 53.597656 L 171.640625 56.222656 L 173.226562 61.902344 L 174.816406 61.554688 L 176.402344 63.273438 L 177.988281 67.761719 L 179.574219 66.824219 L 181.160156 70.628906 L 182.746094 76.488281 L 184.332031 72.972656 L 185.917969 75.554688 L 187.503906 62.96875 L 189.09375 70.890625 L 190.679688 66.355469 L 192.265625 61.476562 L 193.851562 66.84375 L 195.4375 72.179688 L 197.023438 75.339844 L 198.609375 70.46875 L 200.195312 68.441406 L 201.78125 73.765625 L 203.371094 69.925781 L 204.957031 74.472656 L 206.542969 69.480469 L 208.128906 59.019531 L 209.714844 57.285156 L 211.300781 59.652344 L 212.886719 69.78125 L 214.472656 71.0625 L 216.058594 78.621094 L 217.648438 91.992188 L 219.234375 78.875 L 220.820312 78.246094 L 222.40625 76.960938 L 223.992188 78.445312 L 225.578125 79.265625 L 227.164062 70.488281 L 228.75 72.015625 L 230.339844 63.257812 L 231.925781 69.019531 L 233.511719 69.257812 L 235.097656 61.792969 L 236.683594 66.546875 L 238.269531 60.300781 L 239.855469 63.242188 L 241.441406 60.542969 L 243.027344 59.558594 L 244.617188 66.242188 L 246.203125 63.875 L 247.789062 67.910156 L 249.375 66.167969 L 250.960938 62.988281 L 252.546875 72.273438 L 254.132812 73.164062 L 255.71875 77.214844 L 257.304688 70.957031 L 258.894531 65.871094 L 260.480469 69.230469 L 262.066406 62.878906 L 263.652344 56.699219 L 265.238281 68.558594 L 266.824219 71.042969 L 268.410156 75.496094 L 269.996094 69.910156 L 271.582031 65.960938 L 273.171875 64.90625 L 274.757812 65.777344 L 276.34375 67.203125 L 277.929688 69.363281 L 279.515625 70.074219 L 281.101562 65.0625 L 282.6875 59.945312 L 284.273438 58.53125 L 285.859375 58.578125 L 287.449219 71.757812 L 289.035156 62.476562 L 290.621094 65.011719 L 292.207031 65.539062 L 293.792969 50.554688 L 295.378906 57.089844 L 296.964844 60.507812 L 298.550781 66.234375 L 300.140625 57.355469 L 301.726562 55.996094 L 303.3125 60.316406 L 304.898438 68.042969 L 306.484375 70.898438 L 308.070312 50.636719 L 309.65625 65.464844 L 311.242188 65.179688 L 312.828125 70.910156 L 314.417969 75.351562 L 316.003906 69.230469 L 317.589844 65.976562 L 319.175781 65.933594 L 320.761719 54.367188 L 322.347656 64.867188 L 323.933594 63.675781 L 325.519531 56.191406 L 327.105469 56.699219 L 328.695312 50.945312 L 330.28125 46.953125 L 331.867188 53.761719 L 333.453125 56.816406 L 335.039062 60.558594 L 336.625 61.960938 L 338.210938 62.960938 L 339.796875 63.195312 L 341.382812 65.378906 L 342.972656 61.796875 L 344.558594 58.402344 L 346.144531 69.648438 L 347.730469 72.222656 L 349.316406 68.9375 L 350.902344 71.535156 L 352.488281 63.097656 L 354.074219 55.78125 L 355.660156 61.257812 L 357.25 64.738281 L 358.835938 72.136719 L 360.421875 68.824219 L 362.007812 68.097656 L 363.59375 73.105469 L 365.179688 67.605469 L 366.765625 66.964844 L 368.351562 60.183594 L 369.941406 71.945312 L 371.527344 78.777344 L 373.113281 80.625 L 374.699219 68.675781 L 376.285156 70.328125 L 377.871094 66.78125 L 379.457031 61.632812 L 381.042969 63.734375 L 382.628906 65.460938 L 384.21875 67.644531 L 385.804688 64.417969 L 387.390625 60.261719 L 388.976562 67.988281 L 390.5625 57.589844 L 392.148438 60.046875 L 393.734375 71.804688 L 395.320312 66.078125 L 396.90625 79.949219 L 398.496094 73.339844 L 400.082031 72.328125 L 401.667969 69.640625 L 403.253906 64.007812 L 404.839844 52.28125 L 406.425781 54.691406 L 408.011719 65.152344 L 409.597656 48.457031 L 411.183594 57.441406 L 412.773438 57.1875 L 414.359375 65.011719 L 415.945312 60.34375 L 417.53125 61.832031 L 419.117188 66.164062 L 420.703125 60.515625 L 422.289062 63.792969 L 423.875 64.035156 L 425.460938 73.527344 L 427.050781 76.394531 L 428.636719 67.652344 L 430.222656 67.644531 L 431.808594 76.507812 L 433.394531 71.039062 L 434.980469 63.085938 L 436.566406 58.828125 L 438.152344 53.183594 L 439.742188 64.519531 L 441.328125 71.484375 L 442.914062 57.433594 L 444.5 57.023438 L 446.085938 59.6875 L 447.671875 62.21875 L 449.257812 73.085938 L 450.84375 75.882812 L 452.429688 77.363281 L 454.019531 73.699219 L 455.605469 82.265625 L 457.191406 67.949219 L 458.777344 72.835938 L 460.363281 74.9375 L 461.949219 81.726562 L 463.535156 77.257812 L 465.121094 81.589844 L 466.707031 76.019531 L 468.296875 80.226562 L 469.882812 72.117188 L 471.46875 64.640625 L 473.054688 49.675781 L 474.640625 61.804688 L 476.226562 59.210938 L 477.8125 64.652344 L 479.398438 64.117188 L 480.984375 64.066406 L 482.574219 71.113281 L 484.160156 69.757812 L 485.746094 66.714844 L 487.332031 59.570312 L 488.917969 69.984375 L 490.503906 73.777344 L 492.089844 70.492188 L 492.089844 262.496094 L 490.503906 264.261719 L 488.917969 262.617188 L 487.332031 262.882812 L 485.746094 263.160156 L 484.160156 263.933594 L 482.574219 262.992188 L 480.984375 265.128906 L 479.398438 262.496094 L 477.8125 263.175781 L 476.226562 263.75 L 474.640625 263.382812 L 473.054688 263.671875 L 471.46875 262.289062 L 469.882812 260.8125 L 468.296875 260.914062 L 466.707031 261.59375 L 465.121094 260.917969 L 463.535156 260.195312 L 461.949219 260.410156 L 460.363281 260.460938 L 458.777344 261.386719 L 457.191406 259.605469 L 455.605469 260.820312 L 454.019531 261.667969 L 452.429688 261.148438 L 450.84375 260.484375 L 449.257812 261.648438 L 447.671875 261.078125 L 446.085938 259.824219 L 444.5 260.992188 L 442.914062 260.867188 L 441.328125 261.976562 L 439.742188 264.898438 L 438.152344 261.46875 L 436.566406 261.472656 L 434.980469 262.101562 L 433.394531 266.046875 L 431.808594 264.675781 L 430.222656 263.972656 L 428.636719 265.589844 L 427.050781 263.492188 L 425.460938 262.707031 L 423.875 262.671875 L 422.289062 261.144531 L 420.703125 260.859375 L 419.117188 260.765625 L 417.53125 260.785156 L 415.945312 261.609375 L 414.359375 263.296875 L 412.773438 261.257812 L 411.183594 263.066406 L 409.597656 261.449219 L 408.011719 263.492188 L 406.425781 262.035156 L 404.839844 263.699219 L 403.253906 262.363281 L 401.667969 262.105469 L 400.082031 261.597656 L 398.496094 262.789062 L 396.90625 263.238281 L 395.320312 263.34375 L 393.734375 262.773438 L 392.148438 262.46875 L 390.5625 262.445312 L 388.976562 261.023438 L 387.390625 263.636719 L 385.804688 264.527344 L 384.21875 262.652344 L 382.628906 262.976562 L 381.042969 261.542969 L 379.457031 260.296875 L 377.871094 260.234375 L 376.285156 260.589844 L 374.699219 261.515625 L 373.113281 262.035156 L 371.527344 261.847656 L 369.941406 261.636719 L 368.351562 261.664062 L 366.765625 260.484375 L 365.179688 260.320312 L 363.59375 260.238281 L 362.007812 260.144531 L 360.421875 260.257812 L 358.835938 261.0625 L 357.25 260.214844 L 355.660156 259.457031 L 354.074219 258.957031 L 352.488281 259.761719 L 350.902344 261.113281 L 349.316406 258.988281 L 347.730469 260.453125 L 346.144531 260.378906 L 344.558594 260.730469 L 342.972656 258.964844 L 341.382812 262.308594 L 339.796875 260.75 L 338.210938 259.921875 L 336.625 261.351562 L 335.039062 262.5 L 333.453125 261.007812 L 331.867188 260.496094 L 330.28125 260.851562 L 328.695312 261.589844 L 327.105469 261.910156 L 325.519531 260.707031 L 323.933594 259.703125 L 322.347656 261.617188 L 320.761719 262.359375 L 319.175781 262.355469 L 317.589844 263.074219 L 316.003906 264.109375 L 314.417969 261.753906 L 312.828125 260.125 L 311.242188 260.34375 L 309.65625 258.007812 L 308.070312 258.816406 L 306.484375 258.804688 L 304.898438 261.28125 L 303.3125 261.921875 L 301.726562 263.460938 L 300.140625 264.273438 L 298.550781 264.605469 L 296.964844 263.804688 L 295.378906 263.511719 L 293.792969 264.023438 L 292.207031 263.472656 L 290.621094 264.109375 L 289.035156 262.21875 L 287.449219 260.832031 L 285.859375 259.550781 L 284.273438 263.113281 L 282.6875 259.8125 L 281.101562 260.78125 L 279.515625 261.976562 L 277.929688 260.910156 L 276.34375 262.128906 L 274.757812 262.558594 L 273.171875 262.515625 L 271.582031 263.917969 L 269.996094 261.230469 L 268.410156 262.234375 L 266.824219 261.136719 L 265.238281 264.109375 L 263.652344 262.871094 L 262.066406 260.609375 L 260.480469 260.617188 L 258.894531 260.582031 L 257.304688 261.664062 L 255.71875 261.5625 L 254.132812 261.164062 L 252.546875 261.527344 L 250.960938 259.613281 L 249.375 258.289062 L 247.789062 259.894531 L 246.203125 260.78125 L 244.617188 262.507812 L 243.027344 263.785156 L 241.441406 263.613281 L 239.855469 263.054688 L 238.269531 263.925781 L 236.683594 264.238281 L 235.097656 261.96875 L 233.511719 260.691406 L 231.925781 261.734375 L 230.339844 263.480469 L 228.75 264.675781 L 227.164062 262.714844 L 225.578125 261.746094 L 223.992188 264.160156 L 222.40625 263.628906 L 220.820312 262.835938 L 219.234375 263.902344 L 217.648438 261.761719 L 216.058594 261.574219 L 214.472656 261.394531 L 212.886719 261.753906 L 211.300781 261.96875 L 209.714844 262.21875 L 208.128906 263.523438 L 206.542969 262.890625 L 204.957031 262.507812 L 203.371094 263.390625 L 201.78125 265.074219 L 200.195312 263.28125 L 198.609375 261.960938 L 197.023438 261.671875 L 195.4375 262.519531 L 193.851562 262.457031 L 192.265625 263.121094 L 190.679688 264.9375 L 189.09375 263.914062 L 187.503906 264.195312 L 185.917969 261.742188 L 184.332031 262.585938 L 182.746094 262.972656 L 181.160156 263.0625 L 179.574219 264.328125 L 177.988281 264.324219 L 176.402344 262.363281 L 174.816406 263.707031 L 173.226562 263.121094 L 171.640625 264.261719 L 170.054688 263.636719 L 168.46875 264.023438 L 166.882812 262.871094 L 165.296875 263.894531 L 163.710938 262.410156 L 162.125 262.148438 L 160.539062 263.148438 L 158.949219 262.007812 L 157.363281 260.917969 L 155.777344 260.316406 L 154.191406 261.609375 L 152.605469 263.195312 L 151.019531 263.375 L 149.433594 263.570312 L 147.847656 263.847656 L 146.257812 262.445312 L 144.671875 262.054688 L 143.085938 260.222656 L 141.5 259.273438 L 139.914062 261.144531 L 138.328125 259.839844 L 136.742188 260.675781 L 135.15625 260.625 L 133.570312 259.640625 L 131.980469 259.898438 L 130.394531 259.011719 L 128.808594 260.71875 L 127.222656 261.390625 L 125.636719 260.804688 L 124.050781 260.207031 L 122.464844 260.222656 L 120.878906 259.433594 L 119.292969 260.539062 L 117.703125 258.621094 L 116.117188 259.894531 L 114.53125 258.035156 L 112.945312 256.726562 L 111.359375 255.972656 L 109.773438 255.605469 L 108.1875 254.808594 L 106.601562 253.128906 L 105.015625 251.085938 L 103.425781 246.648438 L 101.839844 242.820312 L 100.253906 238.398438 L 98.667969 230.863281 L 97.082031 220.496094 L 95.496094 203.96875 Z M 93.910156 182.644531 "/>
<path fill-rule="nonzero" fill="rgb(27.450982%, 50.980395%, 70.588237%)" fill-opacity="0.4" d="M 93.910156 182.644531 L 95.496094 177 L 97.082031 169.261719 L 98.667969 158.914062 L 100.253906 161.066406 L 101.839844 160.023438 L 103.425781 162.324219 L 105.015625 162.441406 L 106.601562 158.785156 L 108.1875 164.125 L 109.773438 156.304688 L 111.359375 156.742188 L 112.945312 159.007812 L 114.53125 160.203125 L 116.117188 163.082031 L 117.703125 164.414062 L 119.292969 160.355469 L 120.878906 162.460938 L 122.464844 159.699219 L 124.050781 161.894531 L 125.636719 160.367188 L 127.222656 160.144531 L 128.808594 159.628906 L 130.394531 160.765625 L 131.980469 162.035156 L 133.570312 162.347656 L 135.15625 161.164062 L 136.742188 163.101562 L 138.328125 162.457031 L 139.914062 162.445312 L 141.5 160.273438 L 143.085938 161.398438 L 144.671875 163.464844 L 146.257812 162.304688 L 147.847656 164.285156 L 149.433594 163.394531 L 151.019531 158.238281 L 152.605469 157.570312 L 154.191406 158.539062 L 155.777344 155.578125 L 157.363281 155.027344 L 158.949219 158.242188 L 160.539062 159.199219 L 162.125 158.710938 L 163.710938 158.765625 L 165.296875 161.957031 L 166.882812 161.390625 L 168.46875 158.605469 L 170.054688 159.203125 L 171.640625 160.824219 L 173.226562 156.9375 L 174.816406 162.199219 L 176.402344 160.527344 L 177.988281 160.25 L 179.574219 158.378906 L 181.160156 157.328125 L 182.746094 157.691406 L 184.332031 158.667969 L 185.917969 153.316406 L 187.503906 158.214844 L 189.09375 159.730469 L 190.679688 158.230469 L 192.265625 158.484375 L 193.851562 157.980469 L 195.4375 159.484375 L 197.023438 156.351562 L 198.609375 159.78125 L 200.195312 159.261719 L 201.78125 156.667969 L 203.371094 156.246094 L 204.957031 160.5625 L 206.542969 158.953125 L 208.128906 159.242188 L 209.714844 156.03125 L 211.300781 156.417969 L 212.886719 157.136719 L 214.472656 162.890625 L 216.058594 163.570312 L 217.648438 164.800781 L 219.234375 163.972656 L 220.820312 164.320312 L 222.40625 165.863281 L 223.992188 164.292969 L 225.578125 158.96875 L 227.164062 157.550781 L 228.75 157.996094 L 230.339844 157.832031 L 231.925781 155.324219 L 233.511719 154.464844 L 235.097656 153.039062 L 236.683594 154.152344 L 238.269531 155.917969 L 239.855469 155.992188 L 241.441406 154.421875 L 243.027344 154.476562 L 244.617188 151.902344 L 246.203125 152.820312 L 247.789062 156.917969 L 249.375 156.382812 L 250.960938 156.316406 L 252.546875 155.734375 L 254.132812 157.019531 L 255.71875 158.898438 L 257.304688 160.835938 L 258.894531 157.304688 L 260.480469 159.125 L 262.066406 159.554688 L 263.652344 157.71875 L 265.238281 157.949219 L 266.824219 159.167969 L 268.410156 157.386719 L 269.996094 157.894531 L 271.582031 157.835938 L 273.171875 161.78125 L 274.757812 160.828125 L 276.34375 161.089844 L 277.929688 162.382812 L 279.515625 162.683594 L 281.101562 159.308594 L 282.6875 161.796875 L 284.273438 160.640625 L 285.859375 160.167969 L 287.449219 157.699219 L 289.035156 159.851562 L 290.621094 159.113281 L 292.207031 155.332031 L 293.792969 159.308594 L 295.378906 160.171875 L 296.964844 157.21875 L 298.550781 163.1875 L 300.140625 161.160156 L 301.726562 161.300781 L 303.3125 158.914062 L 304.898438 160.53125 L 306.484375 160.949219 L 308.070312 158.503906 L 309.65625 154.6875 L 311.242188 151.902344 L 312.828125 159.46875 L 314.417969 156.332031 L 316.003906 157.410156 L 317.589844 158.800781 L 319.175781 158.097656 L 320.761719 158.644531 L 322.347656 157.039062 L 323.933594 154.292969 L 325.519531 155.878906 L 327.105469 153.109375 L 328.695312 153.320312 L 330.28125 151.398438 L 331.867188 150.886719 L 333.453125 150.425781 L 335.039062 152.957031 L 336.625 153.304688 L 338.210938 154.945312 L 339.796875 155.9375 L 341.382812 155.421875 L 342.972656 154.460938 L 344.558594 156.324219 L 346.144531 154.265625 L 347.730469 157.425781 L 349.316406 156.117188 L 350.902344 161.101562 L 352.488281 158.976562 L 354.074219 158.988281 L 355.660156 157.035156 L 357.25 159.816406 L 358.835938 157.382812 L 360.421875 161.867188 L 362.007812 161.191406 L 363.59375 160.027344 L 365.179688 158.695312 L 366.765625 161.9375 L 368.351562 161.113281 L 369.941406 160.8125 L 371.527344 162.753906 L 373.113281 161.945312 L 374.699219 161.4375 L 376.285156 159.917969 L 377.871094 162.089844 L 379.457031 166.347656 L 381.042969 158.714844 L 382.628906 157.804688 L 384.21875 153.589844 L 385.804688 157.453125 L 387.390625 159.738281 L 388.976562 162.9375 L 390.5625 161.707031 L 392.148438 161.03125 L 393.734375 160.285156 L 395.320312 158.074219 L 396.90625 156.15625 L 398.496094 155.550781 L 400.082031 160.425781 L 401.667969 159.691406 L 403.253906 157.503906 L 404.839844 161.136719 L 406.425781 157.75 L 408.011719 158.910156 L 409.597656 157.304688 L 411.183594 153.683594 L 412.773438 154.746094 L 414.359375 156.65625 L 415.945312 158.597656 L 417.53125 157.335938 L 419.117188 156.027344 L 420.703125 159.820312 L 422.289062 157.234375 L 423.875 160.660156 L 425.460938 161.585938 L 427.050781 161.839844 L 428.636719 162.269531 L 430.222656 160.636719 L 431.808594 162.203125 L 433.394531 164.257812 L 434.980469 161.648438 L 436.566406 158.050781 L 438.152344 159.015625 L 439.742188 154.394531 L 441.328125 150.8125 L 442.914062 151.359375 L 444.5 156.765625 L 446.085938 150.941406 L 447.671875 155.589844 L 449.257812 156.75 L 450.84375 157.6875 L 452.429688 159.648438 L 454.019531 159.972656 L 455.605469 162.371094 L 457.191406 161.503906 L 458.777344 162.992188 L 460.363281 163.894531 L 461.949219 166.363281 L 463.535156 162.90625 L 465.121094 157.851562 L 466.707031 159.621094 L 468.296875 159.433594 L 469.882812 162.226562 L 471.46875 163.90625 L 473.054688 163.296875 L 474.640625 164.847656 L 476.226562 163.210938 L 477.8125 161.527344 L 479.398438 157.21875 L 480.984375 158.328125 L 482.574219 159.40625 L 484.160156 162.382812 L 485.746094 160.800781 L 487.332031 159.863281 L 488.917969 160.910156 L 490.503906 161.230469 L 492.089844 158.53125 L 492.089844 231.070312 L 490.503906 231.792969 L 488.917969 233.855469 L 487.332031 234.21875 L 485.746094 235.003906 L 484.160156 234.207031 L 482.574219 234.65625 L 480.984375 236.535156 L 479.398438 235.101562 L 477.8125 236.472656 L 476.226562 233.480469 L 474.640625 232.777344 L 473.054688 234.902344 L 471.46875 233.789062 L 469.882812 234.332031 L 468.296875 234.960938 L 466.707031 233.8125 L 465.121094 232.269531 L 463.535156 231.378906 L 461.949219 232.019531 L 460.363281 230.882812 L 458.777344 234.136719 L 457.191406 233.03125 L 455.605469 232.558594 L 454.019531 231.84375 L 452.429688 231.144531 L 450.84375 231.421875 L 449.257812 233.464844 L 447.671875 230.832031 L 446.085938 229.867188 L 444.5 230.542969 L 442.914062 231.539062 L 441.328125 231.824219 L 439.742188 230.695312 L 438.152344 231.058594 L 436.566406 233.617188 L 434.980469 233.339844 L 433.394531 233.832031 L 431.808594 234.242188 L 430.222656 233.128906 L 428.636719 231.511719 L 427.050781 232.949219 L 425.460938 234.265625 L 423.875 234.3125 L 422.289062 234.675781 L 420.703125 235.757812 L 419.117188 234.0625 L 417.53125 232.160156 L 415.945312 230.949219 L 414.359375 232.378906 L 412.773438 233.5625 L 411.183594 233.011719 L 409.597656 234.25 L 408.011719 232.8125 L 406.425781 232.613281 L 404.839844 234.757812 L 403.253906 234.488281 L 401.667969 231.660156 L 400.082031 232.785156 L 398.496094 233.34375 L 396.90625 233.238281 L 395.320312 234.109375 L 393.734375 233.4375 L 392.148438 233.378906 L 390.5625 232.691406 L 388.976562 233.925781 L 387.390625 233.214844 L 385.804688 232.605469 L 384.21875 234.480469 L 382.628906 234.871094 L 381.042969 233.984375 L 379.457031 233.328125 L 377.871094 232.917969 L 376.285156 231.6875 L 374.699219 232.445312 L 373.113281 232.722656 L 371.527344 234.183594 L 369.941406 231.765625 L 368.351562 232.859375 L 366.765625 232.628906 L 365.179688 234.015625 L 363.59375 232.785156 L 362.007812 229.832031 L 360.421875 231.121094 L 358.835938 231.644531 L 357.25 231.3125 L 355.660156 232.191406 L 354.074219 229.59375 L 352.488281 230.398438 L 350.902344 230.636719 L 349.316406 228.246094 L 347.730469 229.304688 L 346.144531 228.707031 L 344.558594 228.871094 L 342.972656 228.113281 L 341.382812 229.25 L 339.796875 228.929688 L 338.210938 230.757812 L 336.625 231.597656 L 335.039062 232.144531 L 333.453125 232.117188 L 331.867188 231.578125 L 330.28125 232.160156 L 328.695312 231.652344 L 327.105469 232.234375 L 325.519531 233.738281 L 323.933594 229.589844 L 322.347656 229.886719 L 320.761719 232.601562 L 319.175781 234.09375 L 317.589844 232.785156 L 316.003906 232.085938 L 314.417969 233.734375 L 312.828125 233.976562 L 311.242188 232.441406 L 309.65625 232.476562 L 308.070312 231.230469 L 306.484375 231.664062 L 304.898438 232.746094 L 303.3125 234.074219 L 301.726562 234.214844 L 300.140625 232.992188 L 298.550781 233.761719 L 296.964844 235.5625 L 295.378906 233.582031 L 293.792969 232.921875 L 292.207031 233.632812 L 290.621094 232.945312 L 289.035156 232.65625 L 287.449219 233.886719 L 285.859375 233.386719 L 284.273438 233.535156 L 282.6875 232.933594 L 281.101562 231.238281 L 279.515625 233.148438 L 277.929688 232.828125 L 276.34375 233.691406 L 274.757812 233.410156 L 273.171875 232.550781 L 271.582031 233.703125 L 269.996094 234.96875 L 268.410156 234.898438 L 266.824219 233.398438 L 265.238281 232.304688 L 263.652344 232.714844 L 262.066406 230.914062 L 260.480469 233.085938 L 258.894531 232.582031 L 257.304688 231.417969 L 255.71875 231.6875 L 254.132812 231.625 L 252.546875 232.539062 L 250.960938 231.4375 L 249.375 231.402344 L 247.789062 230.507812 L 246.203125 231.816406 L 244.617188 231.785156 L 243.027344 232.859375 L 241.441406 233.695312 L 239.855469 232.273438 L 238.269531 232.917969 L 236.683594 232.128906 L 235.097656 233.382812 L 233.511719 230.632812 L 231.925781 232.691406 L 230.339844 232.714844 L 228.75 233.867188 L 227.164062 231.882812 L 225.578125 233.726562 L 223.992188 233.292969 L 222.40625 233.164062 L 220.820312 233.421875 L 219.234375 232.761719 L 217.648438 232.335938 L 216.058594 232.285156 L 214.472656 232.289062 L 212.886719 232.335938 L 211.300781 232.441406 L 209.714844 232.550781 L 208.128906 231.636719 L 206.542969 232.722656 L 204.957031 232.582031 L 203.371094 232.417969 L 201.78125 231.351562 L 200.195312 230.839844 L 198.609375 231.246094 L 197.023438 230 L 195.4375 229.945312 L 193.851562 231.144531 L 192.265625 232.320312 L 190.679688 231.300781 L 189.09375 230.714844 L 187.503906 230.835938 L 185.917969 232.183594 L 184.332031 235.695312 L 182.746094 234.992188 L 181.160156 234.046875 L 179.574219 234.507812 L 177.988281 232.707031 L 176.402344 233.269531 L 174.816406 236.007812 L 173.226562 235.167969 L 171.640625 234.695312 L 170.054688 233.011719 L 168.46875 233.179688 L 166.882812 231.21875 L 165.296875 233.628906 L 163.710938 235.1875 L 162.125 232.964844 L 160.539062 232.277344 L 158.949219 232.921875 L 157.363281 231.820312 L 155.777344 232.859375 L 154.191406 232.214844 L 152.605469 232.109375 L 151.019531 231.089844 L 149.433594 233.074219 L 147.847656 233.476562 L 146.257812 232.753906 L 144.671875 233.828125 L 143.085938 232.964844 L 141.5 233.445312 L 139.914062 232.140625 L 138.328125 231.121094 L 136.742188 232.257812 L 135.15625 232.613281 L 133.570312 233.078125 L 131.980469 233.847656 L 130.394531 233.035156 L 128.808594 232.125 L 127.222656 232.261719 L 125.636719 234.410156 L 124.050781 234.066406 L 122.464844 233.546875 L 120.878906 230.707031 L 119.292969 231.492188 L 117.703125 230.933594 L 116.117188 231.636719 L 114.53125 230.105469 L 112.945312 230.292969 L 111.359375 228.53125 L 109.773438 230.300781 L 108.1875 230.03125 L 106.601562 227.816406 L 105.015625 225.480469 L 103.425781 223.238281 L 101.839844 221.53125 L 100.253906 217.722656 L 98.667969 215.242188 L 97.082031 209.882812 L 95.496094 202.292969 Z M 93.910156 182.644531 "/>
<path fill="none" stroke-width="2" stroke-linecap="butt" stroke-linejoin="miter" stroke="rgb(27.450982%, 50.980395%, 70.588237%)" stroke-opacity="1" stroke-miterlimit="2" d="M 93.910156 182.644531 L 95.496094 194.765625 L 97.082031 192.703125 L 98.667969 194.316406 L 100.253906 196.15625 L 101.839844 195.21875 L 103.425781 200.105469 L 105.015625 199.523438 L 106.601562 202.355469 L 108.1875 202.789062 L 109.773438 201.617188 L 111.359375 199.546875 L 112.945312 199.714844 L 114.53125 200.941406 L 116.117188 200.582031 L 117.703125 202.28125 L 119.292969 203.351562 L 120.878906 202.867188 L 122.464844 201.875 L 124.050781 202.808594 L 125.636719 202.839844 L 127.222656 200.945312 L 128.808594 201.414062 L 130.394531 203.03125 L 131.980469 201.816406 L 133.570312 203.75 L 135.15625 204.671875 L 136.742188 206.085938 L 138.328125 204.792969 L 139.914062 205.089844 L 141.5 204.484375 L 143.085938 205.441406 L 144.671875 201.859375 L 146.257812 202.226562 L 147.847656 203.910156 L 149.433594 204.398438 L 151.019531 203.441406 L 152.605469 203.277344 L 154.191406 199.683594 L 155.777344 201.523438 L 157.363281 203.046875 L 158.949219 204.378906 L 160.539062 203.617188 L 162.125 201.914062 L 163.710938 203.1875 L 165.296875 202.496094 L 166.882812 202.730469 L 168.46875 204.167969 L 170.054688 204.332031 L 171.640625 202.25 L 173.226562 201.980469 L 174.816406 200.839844 L 176.402344 201.960938 L 177.988281 203.441406 L 179.574219 203.761719 L 181.160156 202.328125 L 182.746094 201.996094 L 184.332031 200.890625 L 185.917969 199.222656 L 187.503906 201.804688 L 189.09375 201.742188 L 190.679688 201.773438 L 192.265625 200.832031 L 193.851562 198.492188 L 195.4375 199.582031 L 197.023438 201.085938 L 198.609375 201.105469 L 200.195312 201.34375 L 201.78125 201.25 L 203.371094 202.835938 L 204.957031 200.503906 L 206.542969 202.121094 L 208.128906 202.140625 L 209.714844 202.96875 L 211.300781 203.085938 L 212.886719 202.195312 L 214.472656 203.058594 L 216.058594 202.046875 L 217.648438 201.613281 L 219.234375 203.210938 L 220.820312 202.507812 L 222.40625 204.265625 L 223.992188 203.152344 L 225.578125 203.546875 L 227.164062 200.105469 L 228.75 199.148438 L 230.339844 201.300781 L 231.925781 200.46875 L 233.511719 201.554688 L 235.097656 200.402344 L 236.683594 199.109375 L 238.269531 201.214844 L 239.855469 200.632812 L 241.441406 200.300781 L 243.027344 202.140625 L 244.617188 200.609375 L 246.203125 198.816406 L 247.789062 200.507812 L 249.375 200.0625 L 250.960938 201.179688 L 252.546875 200.050781 L 254.132812 199.457031 L 255.71875 198.316406 L 257.304688 201.0625 L 258.894531 201.242188 L 260.480469 201.714844 L 262.066406 200.511719 L 263.652344 200.824219 L 265.238281 202.242188 L 266.824219 202.550781 L 268.410156 200.59375 L 269.996094 201.152344 L 271.582031 202.328125 L 273.171875 201.6875 L 274.757812 201.210938 L 276.34375 201.132812 L 277.929688 203.296875 L 279.515625 201.113281 L 281.101562 201.460938 L 282.6875 202.945312 L 284.273438 202.570312 L 285.859375 203.464844 L 287.449219 202.128906 L 289.035156 203.140625 L 290.621094 199.132812 L 292.207031 201.765625 L 293.792969 202.320312 L 295.378906 203.046875 L 296.964844 203.449219 L 298.550781 203.570312 L 300.140625 205.40625 L 301.726562 204.507812 L 303.3125 205.175781 L 304.898438 203.277344 L 306.484375 202.386719 L 308.070312 201.398438 L 309.65625 203.109375 L 311.242188 202.5625 L 312.828125 200.996094 L 314.417969 200.589844 L 316.003906 202.476562 L 317.589844 202.570312 L 319.175781 203.144531 L 320.761719 201.578125 L 322.347656 200.636719 L 323.933594 199.703125 L 325.519531 200.714844 L 327.105469 199.960938 L 328.695312 199.539062 L 330.28125 199.089844 L 331.867188 201.734375 L 333.453125 200.800781 L 335.039062 197.882812 L 336.625 196.703125 L 338.210938 197.699219 L 339.796875 198.578125 L 341.382812 196.761719 L 342.972656 197.671875 L 344.558594 196.535156 L 346.144531 193.496094 L 347.730469 197.195312 L 349.316406 199.230469 L 350.902344 200.316406 L 352.488281 200.5 L 354.074219 200.722656 L 355.660156 200.078125 L 357.25 198.4375 L 358.835938 200.589844 L 360.421875 200.332031 L 362.007812 202.769531 L 363.59375 204.6875 L 365.179688 200.46875 L 366.765625 202.570312 L 368.351562 204.933594 L 369.941406 204.773438 L 371.527344 204.082031 L 373.113281 204.515625 L 374.699219 203.699219 L 376.285156 203.359375 L 377.871094 202.890625 L 379.457031 203.421875 L 381.042969 202.890625 L 382.628906 203.234375 L 384.21875 201.96875 L 385.804688 203.714844 L 387.390625 204.644531 L 388.976562 202.082031 L 390.5625 202.371094 L 392.148438 203.378906 L 393.734375 202.496094 L 395.320312 203.328125 L 396.90625 201.914062 L 398.496094 201.441406 L 400.082031 202.167969 L 401.667969 200.390625 L 403.253906 201.421875 L 404.839844 203.070312 L 406.425781 203.273438 L 408.011719 202.679688 L 409.597656 200.695312 L 411.183594 200.488281 L 412.773438 199.339844 L 414.359375 199.933594 L 415.945312 198.933594 L 417.53125 202.359375 L 419.117188 202.996094 L 420.703125 202.027344 L 422.289062 200.226562 L 423.875 203.816406 L 425.460938 202.367188 L 427.050781 201.722656 L 428.636719 202.953125 L 430.222656 204.660156 L 431.808594 201.847656 L 433.394531 202.324219 L 434.980469 202.191406 L 436.566406 199.316406 L 438.152344 200.710938 L 439.742188 199.851562 L 441.328125 200.023438 L 442.914062 198.523438 L 444.5 198.066406 L 446.085938 197.191406 L 447.671875 199.234375 L 449.257812 199.703125 L 450.84375 202.203125 L 452.429688 203.289062 L 454.019531 201.925781 L 455.605469 202.011719 L 457.191406 202.253906 L 458.777344 202.199219 L 460.363281 203.5625 L 461.949219 203.816406 L 463.535156 203.035156 L 465.121094 204.675781 L 466.707031 203.003906 L 468.296875 203.238281 L 469.882812 203.476562 L 471.46875 201.207031 L 473.054688 202.027344 L 474.640625 202.855469 L 476.226562 204.105469 L 477.8125 204.960938 L 479.398438 203.878906 L 480.984375 205.027344 L 482.574219 204.242188 L 484.160156 205.472656 L 485.746094 201.910156 L 487.332031 204.199219 L 488.917969 202.433594 L 490.503906 201.144531 L 492.089844 202.558594 "/>
<path fill-rule="nonzero" fill="rgb(100%, 100%, 100%)" fill-opacity="1" stroke-width="1" stroke-linecap="butt" stroke-linejoin="miter" stroke="rgb(0%, 0%, 0%)" stroke-opacity="1" stroke-miterlimit="2" d="M 342 120 L 506 120 L 506 42 L 342 42 Z M 342 120 "/>
<path fill="none" stroke-width="1" stroke-linecap="butt" stroke-linejoin="miter" stroke="rgb(0%, 0%, 0%)" stroke-opacity="1" stroke-miterlimit="1.154701" d="M 92.324219 277.5 L 92.324219 282.5 "/>
<path fill="none" stroke-width="1" stroke-linecap="butt" stroke-linejoin="miter" stroke="rgb(0%, 0%, 0%)" stroke-opacity="1" stroke-miterlimit="1.154701" d="M 250.960938 277.5 L 250.960938 282.5 "/>
<path fill="none" stroke-width="1" stroke-linecap="butt" stroke-linejoin="miter" stroke="rgb(0%, 0%, 0%)" stroke-opacity="1" stroke-miterlimit="1.154701" d="M 409.597656 277.5 L 409.597656 282.5 "/>
<path fill="none" stroke-width="1" stroke-linecap="butt" stroke-linejoin="miter" stroke="rgb(0%, 0%, 0%)" stroke-opacity="1" stroke-miterlimit="1.154701" d="M 73.5 270.0625 L 68.5 270.0625 "/>
<path fill="none" stroke-width="1" stroke-linecap="butt" stroke-linejoin="miter" stroke="rgb(0%, 0%, 0%)" stroke-opacity="1" stroke-miterlimit="1.154701" d="M 73.5 204.066406 L 68.5 204.066406 "/>
<path fill="none" stroke-width="1" stroke-linecap="butt" stroke-linejoin="miter" stroke="rgb(0%, 0%, 0%)" stroke-opacity="1" stroke-miterlimit="1.154701" d="M 73.5 138.066406 L 68.5 138.066406 "/>
<path fill="none" stroke-width="1" stroke-linecap="butt" stroke-linejoin="miter" stroke="rgb(0%, 0%, 0%)" stroke-opacity="1" stroke-miterlimit="1.154701" d="M 73.5 72.070312 L 68.5 72.070312 "/>
<path fill-rule="nonzero" fill="rgb(27.450982%, 50.980395%, 70.588237%)" fill-opacity="0.2" d="M 348.074219 68 L 368.074219 68 L 368.074219 48 L 348.074219 48 Z M 348.074219 68 "/>
<path fill-rule="nonzero" fill="rgb(27.450982%, 50.980395%, 70.588237%)" fill-opacity="0.4" d="M 348.074219 91 L 368.074219 91 L 368.074219 71 L 348.074219 71 Z M 348.074219 91 "/>
<path fill="none" stroke-width="2" stroke-linecap="butt" stroke-linejoin="miter" stroke="rgb(27.450982%, 50.980395%, 70.588237%)" stroke-opacity="1" stroke-miterlimit="2" d="M 348.074219 104 L 368.074219 104 "/>
<g fill="rgb(0%, 0%, 0%)" fill-opacity="1">
<use xlink:href="#glyph-6-0-2b0d3954" x="373.073021" y="63.102995"/>
</g>
<g fill="rgb(0%, 0%, 0%)" fill-opacity="1">
<use xlink:href="#glyph-6-1-2b0d3954" x="380.857021" y="63.102995"/>
</g>
<g fill="rgb(0%, 0%, 0%)" fill-opacity="1">
<use xlink:href="#glyph-6-2-2b0d3954" x="384.74902" y="63.102995"/>
</g>
<g fill="rgb(0%, 0%, 0%)" fill-opacity="1">
<use xlink:href="#glyph-6-3-2b0d3954" x="392.53302" y="63.102995"/>
</g>
<g fill="rgb(0%, 0%, 0%)" fill-opacity="1">
<use xlink:href="#glyph-6-4-2b0d3954" x="400.317021" y="63.102995"/>
</g>
<g fill="rgb(0%, 0%, 0%)" fill-opacity="1">
<use xlink:href="#glyph-6-0-2b0d3954" x="408.101022" y="63.102995"/>
</g>
<g fill="rgb(0%, 0%, 0%)" fill-opacity="1">
<use xlink:href="#glyph-6-1-2b0d3954" x="415.885022" y="63.102995"/>
</g>
<g fill="rgb(0%, 0%, 0%)" fill-opacity="1">
<use xlink:href="#glyph-6-2-2b0d3954" x="419.777021" y="63.102995"/>
</g>
<g fill="rgb(0%, 0%, 0%)" fill-opacity="1">
<use xlink:href="#glyph-6-5-2b0d3954" x="427.561021" y="63.102995"/>
</g>
<g fill="rgb(0%, 0%, 0%)" fill-opacity="1">
<use xlink:href="#glyph-6-6-2b0d3954" x="431.45302" y="63.102995"/>
</g>
<g fill="rgb(0%, 0%, 0%)" fill-opacity="1">
<use xlink:href="#glyph-6-7-2b0d3954" x="439.237016" y="63.102995"/>
</g>
<g fill="rgb(0%, 0%, 0%)" fill-opacity="1">
<use xlink:href="#glyph-6-8-2b0d3954" x="447.021013" y="63.102995"/>
</g>
<g fill="rgb(0%, 0%, 0%)" fill-opacity="1">
<use xlink:href="#glyph-6-9-2b0d3954" x="451.683016" y="63.102995"/>
</g>
<g fill="rgb(0%, 0%, 0%)" fill-opacity="1">
<use xlink:href="#glyph-6-7-2b0d3954" x="458.683016" y="63.102995"/>
</g>
<g fill="rgb(0%, 0%, 0%)" fill-opacity="1">
<use xlink:href="#glyph-6-10-2b0d3954" x="466.467013" y="63.102995"/>
</g>
<g fill="rgb(0%, 0%, 0%)" fill-opacity="1">
<use xlink:href="#glyph-6-1-2b0d3954" x="474.25101" y="63.102995"/>
</g>
<g fill="rgb(0%, 0%, 0%)" fill-opacity="1">
<use xlink:href="#glyph-6-11-2b0d3954" x="478.143008" y="63.102995"/>
</g>
<g fill="rgb(0%, 0%, 0%)" fill-opacity="1">
<use xlink:href="#glyph-6-12-2b0d3954" x="481.25101" y="63.102995"/>
</g>
<g fill="rgb(0%, 0%, 0%)" fill-opacity="1">
<use xlink:href="#glyph-6-7-2b0d3954" x="484.359012" y="63.102995"/>
</g>
<g fill="rgb(0%, 0%, 0%)" fill-opacity="1">
<use xlink:href="#glyph-0-11-2b0d3954" x="373.073017" y="86.102996"/>
</g>
<g fill="rgb(0%, 0%, 0%)" fill-opacity="1">
<use xlink:href="#glyph-0-13-2b0d3954" x="380.857017" y="86.102996"/>
</g>
<g fill="rgb(0%, 0%, 0%)" fill-opacity="1">
<use xlink:href="#glyph-0-16-2b0d3954" x="388.641018" y="86.102996"/>
</g>
<g fill="rgb(0%, 0%, 0%)" fill-opacity="1">
<use xlink:href="#glyph-0-17-2b0d3954" x="392.533016" y="86.102996"/>
</g>
<g fill="rgb(0%, 0%, 0%)" fill-opacity="1">
<use xlink:href="#glyph-0-18-2b0d3954" x="400.317017" y="86.102996"/>
</g>
<g fill="rgb(0%, 0%, 0%)" fill-opacity="1">
<use xlink:href="#glyph-0-19-2b0d3954" x="408.101018" y="86.102996"/>
</g>
<g fill="rgb(0%, 0%, 0%)" fill-opacity="1">
<use xlink:href="#glyph-0-13-2b0d3954" x="415.885018" y="86.102996"/>
</g>
<g fill="rgb(0%, 0%, 0%)" fill-opacity="1">
<use xlink:href="#glyph-0-16-2b0d3954" x="423.669019" y="86.102996"/>
</g>
<g fill="rgb(0%, 0%, 0%)" fill-opacity="1">
<use xlink:href="#glyph-0-17-2b0d3954" x="427.561017" y="86.102996"/>
</g>
<g fill="rgb(0%, 0%, 0%)" fill-opacity="1">
<use xlink:href="#glyph-0-20-2b0d3954" x="435.345018" y="86.102996"/>
</g>
<g fill="rgb(0%, 0%, 0%)" fill-opacity="1">
<use xlink:href="#glyph-0-21-2b0d3954" x="439.23702" y="86.102996"/>
</g>
<g fill="rgb(0%, 0%, 0%)" fill-opacity="1">
<use xlink:href="#glyph-0-22-2b0d3954" x="447.021017" y="86.102996"/>
</g>
<g fill="rgb(0%, 0%, 0%)" fill-opacity="1">
<use xlink:href="#glyph-0-1-2b0d3954" x="454.805014" y="86.102996"/>
</g>
<g fill="rgb(0%, 0%, 0%)" fill-opacity="1">
<use xlink:href="#glyph-0-23-2b0d3954" x="459.467017" y="86.102996"/>
</g>
<g fill="rgb(0%, 0%, 0%)" fill-opacity="1">
<use xlink:href="#glyph-0-22-2b0d3954" x="466.467017" y="86.102996"/>
</g>
<g fill="rgb(0%, 0%, 0%)" fill-opacity="1">
<use xlink:href="#glyph-0-5-2b0d3954" x="474.251014" y="86.102996"/>
</g>
<g fill="rgb(0%, 0%, 0%)" fill-opacity="1">
<use xlink:href="#glyph-0-16-2b0d3954" x="482.03501" y="86.102996"/>
</g>
<g fill="rgb(0%, 0%, 0%)" fill-opacity="1">
<use xlink:href="#glyph-0-4-2b0d3954" x="485.927009" y="86.102996"/>
</g>
<g fill="rgb(0%, 0%, 0%)" fill-opacity="1">
<use xlink:href="#glyph-0-24-2b0d3954" x="489.035011" y="86.102996"/>
</g>
<g fill="rgb(0%, 0%, 0%)" fill-opacity="1">
<use xlink:href="#glyph-0-22-2b0d3954" x="492.143012" y="86.102996"/>
</g>
<g fill="rgb(0%, 0%, 0%)" fill-opacity="1">
<use xlink:href="#glyph-0-25-2b0d3954" x="373.073013" y="109.102996"/>
</g>
<g fill="rgb(0%, 0%, 0%)" fill-opacity="1">
<use xlink:href="#glyph-0-22-2b0d3954" x="384.735013" y="109.102996"/>
</g>
<g fill="rgb(0%, 0%, 0%)" fill-opacity="1">
<use xlink:href="#glyph-0-3-2b0d3954" x="392.519013" y="109.102996"/>
</g>
<g fill="rgb(0%, 0%, 0%)" fill-opacity="1">
<use xlink:href="#glyph-0-4-2b0d3954" x="400.303013" y="109.102996"/>
</g>
<g fill="rgb(0%, 0%, 0%)" fill-opacity="1">
<use xlink:href="#glyph-0-2-2b0d3954" x="403.411013" y="109.102996"/>
</g>
<g fill="rgb(0%, 0%, 0%)" fill-opacity="1">
<use xlink:href="#glyph-0-5-2b0d3954" x="411.195012" y="109.102996"/>
</g>
<path fill="none" stroke-width="1" stroke-linecap="butt" stroke-linejoin="miter" stroke="rgb(0%, 0%, 0%)" stroke-opacity="1" stroke-miterlimit="1.154701" d="M 73.5 277 L 512.5 277 "/>
<path fill="none" stroke-width="1" stroke-linecap="butt" stroke-linejoin="miter" stroke="rgb(0%, 0%, 0%)" stroke-opacity="1" stroke-miterlimit="1.154701" d="M 74 277.5 L 74 35.5 "/>
<path fill="none" stroke-width="1" stroke-linecap="butt" stroke-linejoin="miter" stroke="rgb(0%, 0%, 0%)" stroke-opacity="1" stroke-miterlimit="1.154701" d="M 73.5 36 L 512.5 36 "/>
<path fill="none" stroke-width="1" stroke-linecap="butt" stroke-linejoin="miter" stroke="rgb(0%, 0%, 0%)" stroke-opacity="1" stroke-miterlimit="1.154701" d="M 512 277.5 L 512 35.5 "/>
</svg>
