<?xml version="1.0" encoding="UTF-8" standalone="no"?>
<!DOCTYPE svg PUBLIC "-//W3C//DTD SVG 1.1//EN" "http://www.w3.org/Graphics/SVG/1.1/DTD/svg11.dtd">
<svg width="100%" height="100%" viewBox="0 0 560 500" version="1.1" xmlns="http://www.w3.org/2000/svg" xmlns:xlink="http://www.w3.org/1999/xlink" xml:space="preserve" xmlns:serif="http://www.serif.com/" style="fill-rule:evenodd;clip-rule:evenodd;">
    <g id="path2987" transform="matrix(-1,0,0,1,564.771,8.98865)">
        <path d="M297.745,281.515C297.745,287.513 292.809,292.448 286.811,292.448C280.814,292.448 275.878,287.513 275.878,281.515C275.878,275.517 280.814,270.581 286.811,270.581C292.809,270.581 297.745,275.517 297.745,281.515Z" style="fill:none;fill-rule:nonzero;stroke:black;stroke-width:4.5px;"/>
    </g>
    <g id="path3757" transform="matrix(-1,0,0,1,564.771,8.98865)">
        <path d="M476.769,281.515C476.769,385.722 391.019,471.472 286.811,471.472C182.604,471.472 96.854,385.722 96.854,281.515L96.854,281.515C96.854,177.307 182.604,91.558 286.811,91.558C391.019,91.558 476.769,177.307 476.769,281.515L476.769,281.515Z" style="fill:none;fill-rule:nonzero;stroke:black;stroke-width:1.5px;"/>
    </g>
    <g id="path3759" transform="matrix(-1,0,0,1,727.409,-91.1037)">
        <path d="M354.673,281.498L354.673,281.531C354.673,318.759 324.039,349.393 286.811,349.393C249.584,349.393 218.95,318.759 218.95,281.531L218.95,281.498C218.95,244.271 249.584,213.637 286.811,213.637C324.039,213.637 354.673,244.271 354.673,281.498Z" style="fill:none;fill-rule:nonzero;stroke:black;stroke-width:1.5px;"/>
    </g>
    <path id="path3769" d="M519.828,403.372C541.844,311.22 490.864,268.305 444.173,264.797C427.571,263.55 407.619,270.932 408.37,293.074C408.674,302.048 418.173,318.946 444.922,316.482C532.571,308.408 531.018,222.755 499.028,156.759C457.79,71.684 331.557,69.857 304.849,135.96C299.027,150.37 300.156,163.911 311.591,171.914C314.955,174.269 318.941,175.891 324.009,176.353C336.253,177.469 351.728,174.377 356.846,148.007C373.618,61.6 270.897,29.607 190.016,59.212C96.328,93.505 76.48,179.118 132.691,222.973C145.146,232.691 167.633,234.775 177.182,219.867C189.114,201.239 170.117,184.422 161.169,178.48C132.941,159.736 55.914,164.655 21.339,238.332" style="fill:none;fill-rule:nonzero;stroke:black;stroke-width:4px;"/>
    <g id="path3773" transform="matrix(-1,0,0,1,727.409,-91.1037)">
        <path d="M291.114,281.514L291.114,281.516C291.114,283.876 289.171,285.818 286.811,285.818C284.451,285.818 282.509,283.876 282.509,281.516L282.509,281.514C282.509,279.153 284.451,277.211 286.811,277.211C289.171,277.211 291.114,279.153 291.114,281.514Z" style="fill-rule:nonzero;stroke:black;stroke-width:2.5px;"/>
    </g>
    <g id="path3761" transform="matrix(-1,0,0,1,784.947,-124.297)">
        <path d="M297.745,281.515C297.745,287.513 292.809,292.448 286.811,292.448C280.814,292.448 275.878,287.513 275.878,281.515C275.878,275.517 280.814,270.581 286.811,270.581C292.809,270.581 297.745,275.517 297.745,281.515Z" style="fill:rgb(212,0,0);fill-rule:nonzero;stroke:rgb(212,0,0);stroke-width:4.5px;"/>
    </g>
    <path id="path3775" d="M287.048,93.47L264.616,100.451L287.048,107.336L287.048,93.47Z" style="fill-rule:nonzero;stroke:black;stroke-width:1px;"/>
    <path id="path3777" d="M370.788,218.149L388.106,234.024L382.773,211.174L370.788,218.149Z" style="fill-rule:nonzero;stroke:black;stroke-width:1px;"/>
    <path id="path3779" d="M16.017,231.879L14.907,255.347L29.047,236.621L16.017,231.879Z" style="fill-rule:nonzero;stroke:black;stroke-width:1px;"/>
    <g id="text3043">
        <g transform="matrix(1,0,0,1,457.321,118.287)">
            <g transform="matrix(36,0,0,36,102.076,0)">
            </g>
            <text x="0px" y="0px" style="font-family:'ArialMT', 'Arial', sans-serif;font-size:36px;fill:rgb(212,0,0);">Planet</text>
        </g>
        <g transform="matrix(1,0,0,1,235.818,337.63)">
            <g transform="matrix(36,0,0,36,86.0449,0)">
            </g>
            <text x="0px" y="0px" style="font-family:'ArialMT', 'Arial', sans-serif;font-size:36px;">Earth</text>
        </g>
    </g>
    <g id="text3047">
    </g>
    <g id="text3051">
    </g>
    <g id="text3055">
    </g>
</svg>
